<svg width="174" height="43" viewBox="0 0 174 43" fill="none" xmlns="http://www.w3.org/2000/svg">
<path d="M26.8222 24.5449L42.5056 21.4962L26.8222 18.4475L32.1977 10.4221L24.2641 15.8598L21.2528 0L18.239 15.8649L10.3054 10.4272L15.6809 18.4526L0 21.4987L15.6834 24.5474L10.3079 32.5728L18.2415 27.1351L21.2553 43L24.2691 27.1351L32.2027 32.5728L26.8272 24.5474L26.8222 24.5449Z" fill="#D2A63C"/>
<path d="M23.0102 5.61855C30.3194 6.44121 36.1381 12.3272 36.9513 19.721L38.1095 19.9451C37.3768 11.7388 30.8985 5.18812 22.7861 4.44441L23.0077 5.616L23.0102 5.61855Z" fill="#D2A63C"/>
<path d="M5.55176 19.7211C6.36501 12.3274 12.1837 6.44139 19.4929 5.61872L19.7144 4.44713C11.6021 5.18829 5.12625 11.7416 4.39105 19.9478L5.54925 19.7237L5.55176 19.7211Z" fill="#D2A63C"/>
<path d="M36.9513 23.2765C36.1381 30.6703 30.3194 36.5562 23.0102 37.3789L22.7887 38.5505C30.901 37.8093 37.3768 31.2561 38.112 23.0498L36.9538 23.2739L36.9513 23.2765Z" fill="#D2A63C"/>
<path d="M19.4954 37.3789C12.1862 36.5562 6.36753 30.6703 5.55428 23.2765L4.39609 23.0524C5.12877 31.2586 11.6071 37.8093 19.7195 38.553L19.4979 37.3814L19.4954 37.3789Z" fill="#D2A63C"/>
<path d="M30.7122 11.9273L24.677 18.0349L24.3472 16.2928L30.7122 11.9273Z" fill="url(#paint0_linear_361_560)"/>
<path d="M24.8079 18.4679L40.4058 21.4987H21.8118L24.8079 18.4679Z" fill="#7F6028"/>
<path d="M11.7909 11.9273L17.8286 18.0349L16.1064 18.3685L11.7909 11.9273Z" fill="url(#paint1_linear_361_560)"/>
<path d="M11.7909 31.0676L17.8286 24.9626L18.1584 26.7047L11.7909 31.0676Z" fill="url(#paint2_linear_361_560)"/>
<path d="M17.6951 24.5296L2.09985 21.4987H20.6913L17.6951 24.5296Z" fill="url(#paint3_linear_361_560)"/>
<path d="M18.2566 17.8999L21.2528 2.12415V20.9308L18.2566 17.8999Z" fill="url(#paint4_linear_361_560)"/>
<path d="M21.2528 22.0641L24.249 25.095L21.2528 40.8733V22.0641Z" fill="url(#paint5_linear_361_560)"/>
<path d="M24.677 24.9626L26.3992 24.6289L30.7122 31.0676L24.677 24.9626Z" fill="url(#paint6_linear_361_560)"/>
<path d="M56.3063 28.4861C54.3819 28.4861 52.5182 27.9028 51.3277 27.2297L50.4724 30.2096C51.6022 30.8799 53.8618 31.466 56.0606 31.466C61.3455 31.466 63.8478 28.7211 63.8478 25.538C63.8478 22.7061 62.1372 20.9825 58.5629 19.6971C55.815 18.6757 54.6246 17.9735 54.6246 16.456C54.6246 15.2866 55.633 14.0912 58.0139 14.0912C59.9383 14.0912 61.3744 14.6454 62.1372 15.0255L63.0243 12.1326C61.9552 11.6074 60.3371 11.1402 58.1064 11.1402C53.619 11.1373 50.8076 13.5602 50.8076 16.8013C50.8076 19.6332 52.9747 21.3568 56.3958 22.5262C58.9906 23.4315 60.0308 24.3077 60.0308 25.7963C60.0308 27.4038 58.6872 28.4832 56.3034 28.4832L56.3063 28.4861Z" fill="#D2A63C"/>
<path d="M69.6093 16.6681H66.0322V31.1413H69.6093V16.6681Z" fill="#D2A63C"/>
<path d="M69.6093 10.7486H66.0322V14.3988H69.6093V10.7486Z" fill="#D2A63C"/>
<path d="M86.6658 20.6144C86.6658 18.5658 86.7265 17.3413 86.7872 16.3316H83.5279L83.3748 18.3192H83.3141C82.6148 17.0947 81.303 15.995 79.0203 15.995C75.4576 15.995 72.2879 18.9633 72.2879 23.8555C72.2879 28.0773 74.9086 31.1356 78.5927 31.1356C80.572 31.1356 82.0658 30.2477 82.9182 28.9333H82.9789V30.2187C82.9789 33.4308 81.1499 34.7162 78.714 34.7162C76.9168 34.7162 75.3334 34.1359 74.3885 33.5846L73.565 36.4281C74.8451 37.1942 76.8561 37.6207 78.7429 37.6207C80.7829 37.6207 82.9471 37.1913 84.4699 35.8159C86.0244 34.4086 86.663 32.1773 86.663 29.0551V20.6115L86.6658 20.6144ZM82.9182 24.7114C82.9182 25.1409 82.8864 25.6603 82.7651 26.0259C82.3374 27.4012 81.121 28.321 79.7196 28.321C77.3733 28.321 76.0962 26.2725 76.0962 23.7336C76.0962 20.7043 77.6507 18.8705 79.7514 18.8705C81.3348 18.8705 82.401 19.9093 82.7969 21.2875C82.8893 21.5922 82.9182 21.9288 82.9182 22.2973V24.7143V24.7114Z" fill="#D2A63C"/>
<path d="M95.6868 21.0144H89.3878V23.858H95.6868V21.0144Z" fill="#D2A63C"/>
<path d="M114.613 31.1439V11.4564H111.223V25.8949C110.345 23.9392 109.259 21.8819 108.071 19.8972L102.896 11.4564H98.7033V31.141H102.093V15.8872C103.063 18.0518 104.329 20.3702 105.572 22.4681L110.804 31.1439H114.613Z" fill="#D2A63C"/>
<path d="M124.619 16.302C119.99 16.302 117.557 20.0857 117.557 24.1074C117.557 28.5468 120.317 31.4368 125.003 31.4368C127.081 31.4368 128.8 31.0509 130.045 30.5141L129.511 28.0129C128.384 28.4017 127.196 28.6687 125.506 28.6687C123.163 28.6687 121.146 27.5371 121.056 24.914H130.727C130.788 24.5861 130.846 24.0493 130.846 23.3645C130.846 20.1757 129.303 16.3049 124.616 16.3049L124.619 16.302ZM121.056 22.349C121.204 20.8605 122.154 18.8032 124.408 18.8032C126.841 18.8032 127.433 21.0084 127.404 22.349H121.056Z" fill="#D2A63C"/>
<path d="M140.933 23.5853L145.778 16.5953H141.794L140.187 19.2822C139.742 20.0279 139.326 20.7765 138.907 21.5832H138.847C138.431 20.8374 138.014 20.1207 137.538 19.3431L135.813 16.5953H131.739L136.584 23.7332L131.559 31.1411H135.602L137.266 28.2453C137.711 27.4386 138.159 26.7219 138.575 25.8862H138.636C139.052 26.6929 139.468 27.4705 139.945 28.2453L141.699 31.1411H145.862L140.927 23.5853H140.933Z" fill="#D2A63C"/>
<path d="M157.79 31.135H160.902C160.844 29.9395 160.786 28.509 160.786 26.7768V16.5979H157.209V25.3753C157.209 25.7931 157.151 26.2109 157.007 26.5098C156.657 27.4644 155.727 28.48 154.274 28.48C152.384 28.48 151.627 26.9276 151.627 24.5106V16.6008H148.05V25.1373C148.05 29.8844 150.405 31.4658 152.965 31.4658C155.525 31.4658 156.92 29.9743 157.53 28.9588H157.617L157.79 31.1379V31.135Z" fill="#D2A63C"/>
<path d="M169.822 22.3577C167.831 21.6642 167.091 21.2406 167.091 20.3063C167.091 19.372 167.863 18.7394 169.276 18.7394C170.689 18.7394 171.943 19.2211 172.584 19.5838L173.387 16.9898C172.457 16.5081 170.946 16.1164 169.212 16.1164C165.583 16.1164 163.303 18.1069 163.303 20.7009C163.303 22.4506 164.557 24.0175 167.609 24.9837C169.536 25.6482 170.177 26.1298 170.177 27.1251C170.177 28.1203 169.406 28.7848 167.672 28.7848C166.259 28.7848 164.557 28.2132 163.69 27.6996L162.887 30.4126C164.043 31.0161 165.745 31.4369 167.64 31.4369C171.784 31.4369 174 29.5073 174 26.8233C173.968 24.6529 172.682 23.295 169.825 22.3606L169.822 22.3577Z" fill="#D2A63C"/>
<defs>
<linearGradient id="paint0_linear_361_560" x1="-69.7239" y1="21.5" x2="91.3362" y2="21.5" gradientUnits="userSpaceOnUse">
<stop stop-color="#553D10"/>
<stop offset="1" stop-color="#7E5C1F"/>
</linearGradient>
<linearGradient id="paint1_linear_361_560" x1="0" y1="21.5085" x2="174" y2="21.5085" gradientUnits="userSpaceOnUse">
<stop stop-color="#553D10"/>
<stop offset="1" stop-color="#7E5C1F"/>
</linearGradient>
<linearGradient id="paint2_linear_361_560" x1="0" y1="21.509" x2="174" y2="21.509" gradientUnits="userSpaceOnUse">
<stop stop-color="#553D10"/>
<stop offset="1" stop-color="#7E5C1F"/>
</linearGradient>
<linearGradient id="paint3_linear_361_560" x1="84.6436" y1="3.61345" x2="117.875" y2="-18.0581" gradientUnits="userSpaceOnUse">
<stop stop-color="#553D10"/>
<stop offset="1" stop-color="#7E5C1F"/>
</linearGradient>
<linearGradient id="paint4_linear_361_560" x1="0" y1="21.5" x2="174" y2="21.5" gradientUnits="userSpaceOnUse">
<stop stop-color="#553D10"/>
<stop offset="1" stop-color="#7E5C1F"/>
</linearGradient>
<linearGradient id="paint5_linear_361_560" x1="-222.691" y1="12.6351" x2="-221.477" y2="43.1089" gradientUnits="userSpaceOnUse">
<stop stop-color="#7E5C1F"/>
<stop offset="1" stop-color="#553D10"/>
</linearGradient>
<linearGradient id="paint6_linear_361_560" x1="0" y1="21.5" x2="174" y2="21.5" gradientUnits="userSpaceOnUse">
<stop stop-color="#7E5C1F"/>
<stop offset="1" stop-color="#553D10"/>
</linearGradient>
</defs>
</svg>
