<svg width="47" height="47" viewBox="0 0 47 47" fill="none" xmlns="http://www.w3.org/2000/svg">
<rect width="47" height="47" rx="8" fill="#151515"/>
<path d="M26.6324 27.7012V32.9131C26.6298 33.4564 26.416 33.9775 26.0361 34.3668C25.6561 34.756 25.1396 34.983 24.5952 35H14.0919C13.538 34.9971 13.0076 34.7763 12.6159 34.3856C12.2242 33.9948 12.0029 33.4657 12 32.9131V14.1416C12.0029 13.589 12.2242 13.0598 12.6159 12.6691C13.0076 12.2783 13.538 12.0575 14.0919 12.0546H24.5952C25.1492 12.0575 25.6796 12.2783 26.0713 12.6691C26.4629 13.0598 26.6843 13.589 26.6871 14.1416V17.2665M18.2757 31.8751H20.3676M23.5 22.4893H25.5919M26.6324 22.4893H28.7243M29.7757 22.4893H31.8676M21.4081 13.0926H17.2243C16.9434 13.0786 16.6787 12.9573 16.485 12.7539C16.2913 12.5505 16.1835 12.2806 16.1838 12H22.4595C22.4597 12.2824 22.3504 12.5539 22.1544 12.7576C21.9584 12.9613 21.6909 13.0813 21.4081 13.0926ZM20.3676 22.4893V24.62L18.2757 27.7012H29.7757C31.1604 27.6983 32.4875 27.1483 33.4666 26.1715C34.4458 25.1947 34.9971 23.8707 35 22.4893C35 21.106 34.4499 19.7792 33.4705 18.8001C32.4911 17.8209 31.1623 17.2694 29.7757 17.2665H25.5919C24.9049 17.2665 24.2247 17.4017 23.5901 17.6643C22.9556 17.9269 22.3792 18.3118 21.8939 18.7969C21.4086 19.282 21.024 19.8579 20.7621 20.4915C20.5002 21.1251 20.3662 21.804 20.3676 22.4893Z" stroke="white" stroke-width="2" stroke-miterlimit="10"/>
</svg>
