<svg width="71" height="71" viewBox="0 0 71 71" fill="none" xmlns="http://www.w3.org/2000/svg">
<rect width="71" height="71" rx="35.5" fill="#151515"/>
<path d="M40.2667 41.8931V49.8242C40.2628 50.651 39.9375 51.4441 39.3593 52.0364C38.781 52.6287 37.995 52.9742 37.1667 53H21.1833C20.3404 52.9956 19.5333 52.6596 18.9372 52.065C18.3412 51.4704 18.0044 50.6651 18 49.8242V21.2589C18.0044 20.418 18.3412 19.6128 18.9372 19.0181C19.5333 18.4235 20.3404 18.0875 21.1833 18.0831H37.1667C38.0096 18.0875 38.8167 18.4235 39.4128 19.0181C40.0088 19.6128 40.3456 20.418 40.35 21.2589V26.0143M27.55 48.2447H30.7333M35.5 33.962H38.6833M40.2667 33.962H43.45M45.05 33.962H48.2333M32.3167 19.6627H25.95C25.5226 19.6414 25.1198 19.4568 24.825 19.1473C24.5302 18.8377 24.3661 18.4269 24.3667 18H33.9167C33.917 18.4297 33.7506 18.8428 33.4523 19.1528C33.154 19.4628 32.747 19.6455 32.3167 19.6627ZM30.7333 33.962V37.2043L27.55 41.8931H45.05C47.1571 41.8887 49.1767 41.0517 50.6666 39.5653C52.1566 38.0789 52.9956 36.0641 53 33.962C53 31.857 52.163 29.838 50.6725 28.348C49.1821 26.8579 47.16 26.0187 45.05 26.0143H38.6833C37.6379 26.0142 36.6028 26.2199 35.6371 26.6196C34.6715 27.0192 33.7944 27.6049 33.0559 28.3431C32.3175 29.0813 31.7322 29.9576 31.3337 30.9218C30.9352 31.8859 30.7311 32.9191 30.7333 33.962Z" stroke="white" stroke-width="3" stroke-miterlimit="10"/>
</svg>
