<svg width="216" height="36" viewBox="0 0 216 36" fill="none" xmlns="http://www.w3.org/2000/svg">
<g clip-path="url(#clip0_2343_18043)">
<path d="M130.711 10.168V25.8313H127.438V10.168H130.711Z" fill="white"/>
<path d="M50.5156 22.1229H63.4269V25.8328H47.2422V10.582H50.5156V22.1229Z" fill="white"/>
<path d="M165.442 20.988C165.442 20.362 164.994 19.8545 164.442 19.8545H155.168C152.808 19.8545 150.895 17.6861 150.895 15.0112C150.895 12.3363 152.808 10.168 155.168 10.168H168.352V13.8777H155.168C154.615 13.8777 154.167 14.3852 154.167 15.0112C154.167 15.6373 154.615 16.1448 155.168 16.1448H164.442C166.802 16.1448 168.715 18.3131 168.715 20.988C168.715 23.6628 166.802 25.8313 164.442 25.8313H151.258V22.1215H164.442C164.994 22.1215 165.442 21.6141 165.442 20.988Z" fill="white"/>
<path fill-rule="evenodd" clip-rule="evenodd" d="M144.985 10.168C147.848 10.168 150.168 12.7978 150.168 16.0417C150.168 19.2857 147.848 21.9154 144.985 21.9154H135.074V25.8313H131.801V10.168H144.985ZM135.074 18.2057H144.985C146.039 18.2057 146.895 17.2368 146.895 16.0417C146.895 14.8465 146.039 13.8777 144.985 13.8777H135.074V18.2057Z" fill="white"/>
<path d="M80.7015 17.9996C80.7015 15.7231 79.0735 13.8777 77.0649 13.8777H69.9728C67.9641 13.8777 66.3358 15.7231 66.3358 17.9996C66.3358 20.276 67.9641 22.1215 69.9728 22.1215H77.0649C79.0735 22.1215 80.7015 20.2761 80.7015 17.9996ZM83.9749 17.9996C83.9749 22.3249 80.881 25.8313 77.0649 25.8313H69.9728C66.1563 25.8313 63.0625 22.3249 63.0625 17.9996C63.0625 13.6744 66.1563 10.168 69.9728 10.168H77.0649C80.881 10.168 83.9749 13.6744 83.9749 17.9996Z" fill="white"/>
<path d="M123.256 17.9996C123.256 15.7231 121.628 13.8777 119.62 13.8777H112.528C110.518 13.8777 108.891 15.7231 108.891 17.9996C108.891 20.276 110.518 22.1215 112.528 22.1215H119.62C121.628 22.1215 123.256 20.2761 123.256 17.9996ZM126.529 17.9996C126.529 22.3249 123.436 25.8313 119.62 25.8313H112.528C108.711 25.8313 105.617 22.3249 105.617 17.9996C105.617 13.6744 108.711 10.168 112.528 10.168H119.62C123.436 10.168 126.529 13.6744 126.529 17.9996Z" fill="white"/>
<path d="M169.441 19.2362V10.168H172.715V19.2362C172.715 20.8297 173.854 22.1215 175.261 22.1215H184.534C185.941 22.1215 187.08 20.8297 187.08 19.2362V10.168H190.354V19.2362C190.354 22.8786 187.749 25.8313 184.534 25.8313H175.261C172.047 25.8313 169.441 22.8786 169.441 19.2362Z" fill="white"/>
<path d="M84.5195 17.9996C84.5195 13.6744 87.6126 10.168 91.4292 10.168H104.341V13.8777H91.4292C89.4208 13.8777 87.7921 15.7231 87.7921 17.9996C87.7921 20.276 89.4208 22.1215 91.4292 22.1215H101.159C101.711 22.1215 102.158 21.6141 102.158 20.988C102.158 20.362 101.711 19.8545 101.159 19.8545H90.5199V16.1448H101.159C103.519 16.1448 105.432 18.3131 105.432 20.988C105.432 23.6628 103.519 25.8313 101.159 25.8313H91.4292C87.6126 25.8313 84.5195 22.3249 84.5195 17.9996Z" fill="white"/>
<path d="M208.644 10.168C210.357 10.168 211.873 11.4275 212.388 13.2795L215.88 25.8313H212.447L209.266 14.3947C209.18 14.087 208.929 13.8777 208.644 13.8777C208.365 13.8778 208.119 14.0787 208.028 14.3734L208.012 14.4336L206.075 22.9996C205.699 24.6659 204.374 25.8313 202.856 25.8313C201.313 25.8312 199.973 24.6271 199.621 22.9242L197.864 14.4297C197.798 14.1065 197.543 13.8778 197.25 13.8777C196.976 13.8778 196.733 14.0791 196.649 14.3756L193.428 25.8313H189.992L193.53 13.2494C194.046 11.4141 195.551 10.168 197.25 10.168C199.063 10.168 200.638 11.5828 201.052 13.5835L202.808 22.0778C202.813 22.1034 202.833 22.1215 202.856 22.1215C202.879 22.1215 202.899 22.104 202.905 22.0791L204.841 13.513L204.863 13.421C205.335 11.5019 206.879 10.168 208.644 10.168Z" fill="white"/>
<path d="M19.8296 0L23.5733 3.53572L20.338 6.5913C20.0435 6.86944 19.6157 6.86944 19.3212 6.5913L16.0859 3.53572L19.8296 0Z" fill="white"/>
<path fill-rule="evenodd" clip-rule="evenodd" d="M19.3246 10.2171C19.6191 10.4952 20.0469 10.4952 20.3414 10.2171L25.4972 5.34766L28.4628 8.14854L21.8665 14.3785C20.6885 15.491 18.9775 15.491 17.7995 14.3785L11.2031 8.14854L14.1688 5.34766L19.3246 10.2171Z" fill="white"/>
<path d="M19.8296 35.9991L16.0859 32.4634L19.3212 29.4078C19.6157 29.1297 20.0435 29.1297 20.338 29.4078L23.5733 32.4634L19.8296 35.9991Z" fill="white"/>
<path fill-rule="evenodd" clip-rule="evenodd" d="M20.3414 25.7809C20.0469 25.5028 19.6191 25.5028 19.3246 25.7809L14.1688 30.6503L11.2031 27.8494L17.7995 21.6195C18.9775 20.507 20.6885 20.507 21.8665 21.6195L28.4628 27.8494L25.4972 30.6503L20.3414 25.7809Z" fill="white"/>
<path d="M38.8887 18.0006L35.145 14.4648L32.1334 17.3092C31.7524 17.669 31.7524 18.3321 32.1334 18.692L35.145 21.5363L38.8887 18.0006Z" fill="white"/>
<path fill-rule="evenodd" clip-rule="evenodd" d="M28.2921 18.6895C27.911 18.3297 27.911 17.6666 28.2921 17.3068L33.2242 12.6485L30.2585 9.84766L24.557 15.2325C23.0331 16.6718 23.0331 19.3245 24.557 20.7638L30.2585 26.1486L33.2242 23.3477L28.2921 18.6895Z" fill="white"/>
<path d="M0.773438 18.0006L4.51712 21.5363L7.52874 18.692C7.90972 18.3321 7.90972 17.669 7.52874 17.3092L4.51712 14.4648L0.773438 18.0006Z" fill="white"/>
<path fill-rule="evenodd" clip-rule="evenodd" d="M11.3696 17.3068C11.7506 17.6666 11.7506 18.3297 11.3697 18.6895L6.4375 23.3477L9.40315 26.1486L15.1047 20.7638C16.6286 19.3245 16.6286 16.6718 15.1047 15.2325L9.40315 9.84766L6.4375 12.6485L11.3696 17.3068Z" fill="white"/>
</g>
<defs>
<clipPath id="clip0_2343_18043">
<rect width="216" height="36" fill="white"/>
</clipPath>
</defs>
</svg>
