<svg width="216" height="49" viewBox="0 0 216 49" fill="none" xmlns="http://www.w3.org/2000/svg">
<g clip-path="url(#clip0_1153_43947)">
<mask id="mask0_1153_43947" style="mask-type:luminance" maskUnits="userSpaceOnUse" x="0" y="0" width="216" height="49">
<path d="M216 0H0V49H216V0Z" fill="white"/>
</mask>
<g mask="url(#mask0_1153_43947)">
<path d="M62.321 25.4825C62.3639 24.6455 62.3639 23.8067 62.321 22.9697H15.2119C15.2019 23.1783 15.1932 23.3881 15.1883 23.5979H5.31931L5.31434 23.912H0V24.5402H5.3131L5.32055 24.8543H15.1883C15.1932 25.0654 15.2007 25.2739 15.2131 25.4825H28.7379C28.6866 25.0657 28.6609 24.6461 28.661 24.2261H48.523C48.523 24.652 48.4982 25.0717 48.4461 25.4825H62.321ZM62.2229 21.7133H48.2114C48.1025 21.2858 47.9656 20.866 47.8018 20.4569H29.3859C29.2233 20.8639 29.0855 21.2823 28.9763 21.7133H15.3087C15.331 21.5035 15.3559 21.2936 15.3832 21.0851H5.51421L5.55641 20.7785H0V20.1503H5.65448L5.71159 19.8287H15.5806C15.6178 19.6188 15.66 19.409 15.7047 19.2005H61.8294C62.0032 20.0234 62.136 20.8614 62.2229 21.7133ZM61.5277 17.9441H46.3457C45.9876 17.4917 45.5918 17.0714 45.1626 16.6876H32.0239C31.5956 17.0721 31.1983 17.4917 30.8408 17.9441H16.0063C16.0622 17.7342 16.1218 17.5244 16.1839 17.3158H6.3149L6.42414 16.9628H0V16.3333H6.63145L6.72828 16.0582H16.5972C16.6717 15.8471 16.7512 15.6385 16.8331 15.43H60.6997C61.02 16.2466 61.2968 17.0872 61.5277 17.9441ZM60.1659 14.1748H17.3669C17.4637 13.9637 17.563 13.7552 17.6661 13.5466H7.79834L7.97338 13.1998H0V12.5716H8.30979L8.46745 12.2902H18.3364C18.4568 12.0791 18.581 11.8693 18.7076 11.662H58.8252C59.3193 12.4686 59.7687 13.3079 60.1659 14.1748ZM15.3087 26.7389H62.2241C62.136 27.5908 62.0032 28.4301 61.8294 29.2517H47.196C47.4257 28.8497 47.6292 28.4301 47.803 27.9953H29.3834C29.5572 28.4301 29.7596 28.8497 29.9892 29.2517H15.7034C15.6593 29.0429 15.6179 28.8335 15.5793 28.6235H5.71159C5.69137 28.5131 5.67192 28.4025 5.65324 28.2918H0V27.6636H5.55517C5.54092 27.5649 5.52726 27.466 5.51421 27.3671H15.3832C15.3556 27.1581 15.3308 26.9486 15.3087 26.7389ZM16.0051 30.5082H61.5265C61.2968 31.3663 61.02 32.2043 60.6997 33.021H43.4048C44.0338 32.6676 44.6232 32.2463 45.1626 31.7646H32.0239C32.5633 32.2463 33.1526 32.6676 33.7817 33.021H16.8331C16.7516 32.8127 16.673 32.6033 16.5972 32.3928H6.72828L6.62152 32.09H0V31.4618H6.41545C6.38159 31.3535 6.34848 31.2451 6.31614 31.1364H16.1839C16.1218 30.9278 16.0622 30.7192 16.0051 30.5082ZM17.3669 34.2774H60.1659C59.7691 35.1414 59.3214 35.9805 58.8252 36.7902H18.7076C18.5803 36.5828 18.4561 36.3733 18.3352 36.162H8.46745C8.40538 36.0539 8.34455 35.9459 8.28496 35.8366H0V35.2084H7.95103L7.79834 34.9068H17.6673C17.5642 34.6989 17.464 34.4895 17.3669 34.2786V34.2774ZM21.0041 39.9312C21.1866 40.1448 21.3741 40.3534 21.5652 40.5594H55.9676C56.7003 39.7692 57.3792 38.9297 57.9997 38.0466H19.5331C19.6821 38.2589 19.8335 38.4688 19.9899 38.6748H10.121L10.3668 38.9952H0V39.6234H10.8745C10.9601 39.7277 11.047 39.8295 11.1352 39.9312H21.0041ZM25.1218 43.7005C25.4234 43.9178 25.7301 44.1276 26.0404 44.3287H51.4924C52.635 43.586 53.7123 42.7453 54.7126 41.8158H22.8215C23.0512 42.0294 23.2858 42.2393 23.5241 42.4441H13.6552C13.7892 42.5596 13.9246 42.6727 14.0611 42.7833H0V43.4115H14.8618C14.9909 43.5095 15.1225 43.6062 15.2541 43.7005H25.123H25.1218ZM33.8326 47.5752C35.424 47.9182 37.0738 48.0979 38.7658 48.0979C42.557 48.0979 46.1383 47.1933 49.3113 45.5851H28.2203C28.6622 45.8087 29.1103 46.0185 29.5659 46.2133H19.697C19.8732 46.2887 20.0508 46.3628 20.2283 46.4344H0V47.0626H22.0034C24.1846 47.7361 26.4997 48.0979 28.8981 48.0979C30.5901 48.0979 32.2411 47.9182 33.8326 47.5752ZM19.5331 10.4056H57.9997C57.3792 9.52248 56.7003 8.68295 55.9676 7.89277H21.5652C21.3741 8.09882 21.1866 8.30738 21.0029 8.52097H11.1352L10.9167 8.77979H0V9.408H10.4052C10.3097 9.52987 10.2153 9.653 10.1222 9.77738H19.9899C19.8335 9.98469 19.6821 10.1945 19.5331 10.4056ZM22.8203 6.63636H54.7113C53.7115 5.70693 52.6346 4.86622 51.4924 4.12354H26.0404C25.7301 4.32582 25.4234 4.53564 25.1218 4.75174H15.2541C15.1175 4.851 14.981 4.95026 14.8469 5.05203H0V5.68023H14.0474C13.9159 5.78828 13.7855 5.89759 13.6564 6.00815H23.5241C23.2858 6.21295 23.0512 6.42277 22.8203 6.63636ZM28.2215 2.86713H49.3125C46.0389 1.20921 42.4277 0.348716 38.767 0.354308C37.0738 0.354308 35.424 0.535231 33.8326 0.878231C32.2104 0.529201 30.5565 0.353596 28.8981 0.354308C26.249 0.354308 23.7029 0.796564 21.3257 1.61072H0V2.23892H29.5659C29.1114 2.43395 28.663 2.64345 28.2215 2.86713ZM138.101 0C138.917 0 139.557 0.206051 140.023 0.618154C140.508 1.01141 140.75 1.56046 140.75 2.26908C140.75 2.97644 140.508 3.53554 140.023 3.94764C139.557 4.3409 138.917 4.53815 138.101 4.53815C137.287 4.53815 136.636 4.3409 136.151 3.94764C135.685 3.53554 135.452 2.97644 135.452 2.26908C135.452 1.56172 135.685 1.01267 136.151 0.618154C136.636 0.206051 137.287 0 138.101 0ZM140.371 7.27713V20.0938C140.371 20.9192 140.508 21.4796 140.78 21.7736C141.07 22.0688 141.556 22.2158 142.235 22.2158V22.834C141.692 22.8071 141.148 22.7875 140.605 22.7749C139.858 22.7354 139.111 22.7157 138.363 22.7159C137.607 22.7159 136.84 22.736 136.064 22.7749C135.481 22.7879 134.899 22.8076 134.317 22.834V22.2158C134.996 22.2158 135.472 22.0688 135.744 21.7736C136.034 21.4796 136.181 20.9192 136.181 20.0938V10.8127C136.181 9.92941 136.044 9.27985 135.772 8.869C135.52 8.43679 135.035 8.22069 134.317 8.22069V7.60128C134.938 7.66033 135.54 7.68923 136.122 7.68923C136.937 7.68923 137.694 7.66033 138.393 7.60128C139.11 7.52338 139.771 7.41533 140.371 7.27713Z" fill="#151515"/>
<path fill-rule="evenodd" clip-rule="evenodd" d="M148.563 9.97969V7.27589C147.962 7.4141 147.302 7.52215 146.584 7.60005C145.866 7.6591 145.108 7.688 144.313 7.688C143.731 7.688 143.13 7.6591 142.508 7.60005V8.21946C143.207 8.21946 143.692 8.43556 143.964 8.86776C144.236 9.27987 144.371 9.92818 144.371 10.8114V25.5441C144.371 26.3294 144.236 26.8596 143.964 27.1347C143.712 27.4099 143.265 27.5468 142.624 27.5468V28.1662L144.168 28.0783C144.876 28.0583 145.584 28.0482 146.293 28.0481C147.282 28.0481 148.214 28.0582 149.087 28.077C149.98 28.1172 150.679 28.1461 151.184 28.165V27.5468C150.368 27.5468 149.728 27.3898 149.262 27.0757C148.797 26.7817 148.563 26.1723 148.563 25.2488V22.2963C148.819 22.5124 149.119 22.6908 149.466 22.8328C150.086 23.1092 150.775 23.2461 151.533 23.2461C152.562 23.2461 153.483 23.0589 154.298 22.6858C155.128 22.3167 155.857 21.7508 156.424 21.0361C157.025 20.2898 157.481 19.3764 157.792 18.2959C158.122 17.2154 158.287 15.9589 158.287 14.5241C158.287 12.8946 158.054 11.5389 157.588 10.4584C157.123 9.35776 156.501 8.54361 155.725 8.01341C154.949 7.46339 154.022 7.17457 153.076 7.18794C151.95 7.18794 150.96 7.48194 150.106 8.0712C149.435 8.52979 148.921 9.16553 148.563 9.98094V9.97969ZM148.563 10.9924V21.6731C148.725 21.8666 148.92 22.0274 149.145 22.1556C149.514 22.3516 149.931 22.4496 150.398 22.4496C151.271 22.4496 151.96 22.1556 152.465 21.5663C152.969 20.9569 153.328 20.1126 153.541 19.0321C153.775 17.9328 153.891 16.6261 153.891 15.1134C153.891 13.4248 153.784 12.098 153.571 11.1356C153.357 10.1732 153.066 9.48592 152.697 9.07382C152.328 8.66046 151.883 8.45441 151.358 8.45441C150.66 8.45441 150.019 8.73082 149.437 9.27987C148.999 9.70705 148.707 10.2787 148.563 10.9924Z" fill="#151515"/>
<path d="M164.971 7.18778C165.786 7.18778 166.494 7.29584 167.096 7.51194C167.717 7.70794 168.164 7.90519 168.436 8.10119C169.095 8.5535 169.503 8.25825 169.658 7.21668H170.269C170.231 7.76699 170.201 8.44545 170.182 9.24955C170.162 10.0361 170.152 11.0864 170.152 12.4031H169.542C169.442 11.6665 169.256 10.9444 168.988 10.2522C168.741 9.58037 168.331 8.98236 167.795 8.5133C167.29 8.06099 166.631 7.83484 165.815 7.83484C165.253 7.83484 164.777 8.00319 164.389 8.3374C164 8.6515 163.806 9.1126 163.806 9.72196C163.806 10.3112 163.981 10.8314 164.33 11.2837C164.68 11.7159 165.126 12.138 165.67 12.5501C166.232 12.9434 166.814 13.3656 167.416 13.8166C168.057 14.3079 168.639 14.7991 169.163 15.2904C169.665 15.7347 170.088 16.2629 170.414 16.8521C170.726 17.4212 170.881 18.0984 170.881 18.885C170.881 19.7682 170.628 20.5434 170.124 21.2118C169.619 21.8601 168.949 22.3615 168.115 22.7145C167.3 23.0688 166.387 23.246 165.379 23.246C164.85 23.252 164.322 23.1926 163.806 23.0688C163.403 22.967 163.012 22.8187 162.642 22.6266C162.39 22.5085 162.147 22.4004 161.915 22.3024C161.717 22.1921 161.512 22.094 161.303 22.0084C161.109 21.9493 160.934 22.0172 160.779 22.2144C160.643 22.4104 160.537 22.6856 160.458 23.0387H159.848C159.886 22.4104 159.916 21.644 159.935 20.7407C159.954 19.8373 159.964 18.6387 159.964 17.1473H160.575C160.692 18.2078 160.905 19.1501 161.216 19.9743C161.526 20.7809 161.943 21.4191 162.467 21.8903C163.011 22.3426 163.69 22.5688 164.505 22.5688C164.836 22.5688 165.156 22.4997 165.466 22.3615C165.776 22.2232 166.028 21.9971 166.223 21.683C166.437 21.3689 166.544 20.9668 166.544 20.4768C166.544 19.6112 166.262 18.8938 165.698 18.3246C165.156 17.7555 164.457 17.136 163.603 16.4689C162.982 15.9575 162.39 15.4575 161.828 14.9662C161.306 14.4833 160.855 13.9279 160.488 13.3166C160.134 12.689 159.953 11.9763 159.964 11.2535C159.964 10.3703 160.196 9.62396 160.662 9.0146C161.137 8.39889 161.773 7.92943 162.497 7.65894C163.284 7.34266 164.124 7.1827 164.971 7.18778ZM201.109 7.51194C200.603 7.29584 199.944 7.18778 199.129 7.18778C198.216 7.1784 197.315 7.40133 196.509 7.83609C195.714 8.24819 195.083 8.9455 194.616 9.92801V7.27699C194.015 7.41394 193.355 7.52199 192.637 7.59989C191.939 7.65894 191.181 7.68784 190.367 7.68784C189.785 7.68784 189.183 7.65894 188.562 7.59989V8.2193C189.28 8.2193 189.765 8.4354 190.017 8.8676C190.289 9.27971 190.424 9.92801 190.424 10.8113V20.0924C190.424 20.9178 190.279 21.4782 189.988 21.7722C189.716 22.0675 189.241 22.2144 188.562 22.2144V22.8326C189.144 22.8062 189.726 22.7865 190.309 22.7736C191.065 22.7348 191.822 22.7151 192.579 22.7145C193.258 22.7145 193.919 22.7346 194.558 22.7736C195.218 22.7937 195.704 22.8138 196.014 22.8326V22.2144C195.51 22.2144 195.15 22.0675 194.936 21.7722C194.723 21.4782 194.616 20.9178 194.616 20.0924V11.9018C194.616 11.2535 194.743 10.6743 194.995 10.163C195.267 9.63276 195.616 9.22066 196.043 8.92666C196.453 8.63745 196.941 8.48303 197.44 8.4844C197.887 8.4844 198.216 8.59245 198.43 8.80855C198.663 9.00455 198.818 9.28976 198.896 9.66291C198.973 10.016 199.012 10.4381 199.012 10.9294V20.0924C199.012 20.9178 198.905 21.4782 198.692 21.7722C198.498 22.0675 198.139 22.2144 197.615 22.2144V22.8326C197.964 22.8138 198.478 22.7937 199.158 22.7736C200.535 22.6941 201.915 22.6941 203.292 22.7736C204.01 22.7937 204.544 22.8138 204.892 22.8326V22.2144C204.272 22.2144 203.835 22.0675 203.583 21.7722C203.331 21.4782 203.204 20.9178 203.204 20.0924V12.0325L203.203 11.9408L203.198 11.643C203.242 11.1505 203.373 10.6699 203.583 10.2233C203.855 9.69181 204.203 9.26966 204.63 8.95555C205.057 8.64145 205.524 8.4844 206.028 8.4844C206.532 8.4844 206.902 8.59245 207.134 8.80855C207.386 9.00455 207.551 9.28976 207.63 9.66291C207.726 10.016 207.775 10.4381 207.775 10.9294V20.0924C207.775 20.9178 207.668 21.4782 207.455 21.7722C207.261 22.0675 206.902 22.2144 206.377 22.2144V22.8326C206.727 22.8138 207.241 22.7937 207.92 22.7736C208.608 22.734 209.298 22.7143 209.987 22.7145C210.706 22.7145 211.433 22.7346 212.171 22.7736C212.908 22.7937 213.462 22.8138 213.83 22.8326V22.2144C213.151 22.2144 212.666 22.0675 212.374 21.7722C212.102 21.4782 211.967 20.9178 211.967 20.0924V12.1669C211.967 11.1844 211.899 10.3992 211.763 9.80991C211.627 9.20055 211.405 8.71055 211.093 8.3374C210.783 7.98309 210.376 7.70919 209.87 7.51194C209.366 7.29584 208.706 7.18778 207.892 7.18778C206.902 7.18778 205.97 7.39384 205.097 7.80594C204.26 8.2105 203.583 8.98194 203.063 10.1202C203.045 10.0162 203.024 9.91275 203 9.80991C202.865 9.20055 202.642 8.71055 202.331 8.3374C202.021 7.98309 201.613 7.70919 201.109 7.51194ZM186.278 19.6212V7.27573C185.676 7.41394 185.017 7.52199 184.298 7.59989C183.6 7.65894 182.843 7.68784 182.027 7.68784C181.445 7.68784 180.844 7.65894 180.222 7.59989V8.2193C180.941 8.2193 181.427 8.4354 181.679 8.8676C181.95 9.27971 182.086 9.92801 182.086 10.8113V18.5307C182.086 19.179 181.95 19.7682 181.679 20.2984C181.448 20.7839 181.097 21.2004 180.659 21.5071C180.252 21.802 179.762 21.957 179.262 21.9493C178.777 21.9493 178.409 21.8501 178.156 21.6541C177.894 21.4224 177.711 21.1135 177.632 20.7708C177.549 20.3438 177.51 19.9093 177.515 19.4742V7.27573C176.914 7.41394 176.254 7.52199 175.536 7.59989C174.837 7.65894 174.08 7.68784 173.266 7.68784C172.684 7.68784 172.081 7.65894 171.461 7.59989V8.2193C172.178 8.2193 172.664 8.4354 172.916 8.8676C173.188 9.27971 173.323 9.92801 173.323 10.8113V18.2656C173.323 19.228 173.391 20.0145 173.528 20.6226C173.663 21.2319 173.896 21.7232 174.225 22.0963C174.517 22.4306 174.914 22.7057 175.42 22.9218C175.924 23.1367 176.584 23.246 177.4 23.246C178.409 23.246 179.32 23.0387 180.136 22.6266C180.97 22.1943 181.62 21.487 182.086 20.5057V23.1568C182.736 22.9947 183.398 22.8863 184.066 22.8326C184.765 22.7736 185.521 22.7447 186.336 22.7447C186.938 22.7447 187.539 22.7736 188.141 22.8326V22.2144C187.442 22.2144 186.957 22.0084 186.685 21.595C186.413 21.1628 186.278 20.5057 186.278 19.6225V19.6212Z" fill="#151515"/>
<path fill-rule="evenodd" clip-rule="evenodd" d="M129.967 7.98555C128.899 7.45535 127.656 7.19025 126.24 7.19025C124.862 7.19025 123.629 7.45535 122.543 7.98555C121.476 8.51576 120.631 9.37012 120.011 10.5486C119.409 11.7271 119.107 13.2889 119.107 15.2338C119.107 17.1787 119.409 18.7392 120.01 19.9189C120.63 21.0773 121.474 21.9217 122.542 22.4519C123.629 22.9821 124.862 23.2484 126.24 23.2484C127.656 23.2484 128.899 22.9821 129.967 22.4519C131.033 21.9217 131.868 21.0773 132.469 19.9189C133.071 18.7404 133.372 17.1787 133.372 15.2338C133.372 13.2889 133.071 11.7284 132.469 10.5486C131.868 9.37012 131.033 8.51576 129.967 7.98555ZM124.29 9.54727C124.814 8.36876 125.464 7.7795 126.24 7.7795C127.036 7.7795 127.686 8.36876 128.19 9.54727C128.714 10.7057 128.976 12.6016 128.976 15.2338C128.976 17.866 128.714 19.7619 128.19 20.9203C127.686 22.0787 127.036 22.6592 126.24 22.6592C125.464 22.6592 124.814 22.0787 124.29 20.9203C123.766 19.7619 123.504 17.866 123.504 15.2338C123.504 12.6016 123.765 10.7057 124.29 9.54727ZM109.614 28.3746C108.41 28.3746 107.334 28.2665 106.383 28.0504C105.452 27.8544 104.715 27.5403 104.171 27.1081C103.647 26.6948 103.385 26.1847 103.385 25.5753C103.385 24.9659 103.656 24.4169 104.199 23.9256C104.743 23.4545 105.549 23.0813 106.616 22.8062L106.877 23.2773C106.544 23.5306 106.266 23.8516 106.063 24.2196C105.907 24.5739 105.829 24.937 105.829 25.3102C105.829 26.1357 106.198 26.7639 106.937 27.1948C107.694 27.6471 108.712 27.8733 109.993 27.8733C110.866 27.8733 111.643 27.7552 112.322 27.5202C113.021 27.284 113.563 26.9297 113.952 26.4598C114.36 25.9874 114.564 25.4082 114.564 24.7209C114.564 24.1317 114.35 23.6304 113.923 23.2183C113.496 22.825 112.642 22.629 111.361 22.629H109.556C108.761 22.629 108.061 22.5411 107.46 22.3639C106.877 22.188 106.421 21.9116 106.091 21.5384C105.762 21.1464 105.597 20.6552 105.597 20.0659C105.597 19.2405 105.917 18.5143 106.558 17.8848C107.059 17.3923 107.752 16.9237 108.636 16.4801C108.055 16.407 107.484 16.2658 106.935 16.0592C106.063 15.725 105.374 15.2137 104.87 14.5264C104.364 13.8392 104.112 12.9559 104.112 11.8754C104.112 10.7949 104.364 9.91037 104.87 9.22312C105.374 8.51576 106.063 8.0044 106.937 7.6903C107.809 7.35735 108.799 7.19025 109.905 7.19025C111.012 7.19025 112.001 7.35735 112.874 7.69155C113.45 7.8976 113.944 8.19035 114.36 8.56727C114.607 8.20668 114.907 7.88504 115.261 7.60235C115.922 7.09225 116.63 6.83594 117.386 6.83594C118.007 6.83594 118.474 7.01309 118.784 7.3674C119.115 7.70035 119.28 8.1426 119.28 8.69291C119.28 9.28217 119.123 9.72317 118.813 10.0184C118.502 10.2948 118.154 10.4318 117.765 10.4318C117.423 10.4272 117.094 10.3019 116.834 10.0775C116.561 9.84127 116.407 9.48822 116.369 9.01707C116.335 8.59491 116.452 8.07225 116.719 7.44655C116.153 7.6903 115.716 7.96796 115.408 8.28081C115.176 8.50729 114.973 8.76271 114.804 9.04094C114.852 9.09999 114.898 9.16155 114.941 9.22312C115.446 9.91037 115.698 10.7936 115.698 11.8741C115.698 12.9547 115.446 13.8392 114.941 14.5264C114.437 15.2137 113.748 15.725 112.874 16.0592C112.001 16.3922 111.012 16.5593 109.905 16.5593C109.739 16.5595 109.574 16.5557 109.408 16.548C109.146 16.7277 108.894 16.9186 108.653 17.1197C108.504 17.2381 108.384 17.3904 108.303 17.5643C108.222 17.7382 108.183 17.9289 108.188 18.121C108.188 18.7492 108.576 19.0633 109.352 19.0633H112.525C113.593 19.0633 114.544 19.1915 115.378 19.4465C116.232 19.7028 116.901 20.125 117.386 20.7142C117.892 21.2834 118.144 22.0297 118.144 22.9532C118.144 23.9156 117.833 24.8089 117.213 25.6343C116.611 26.4598 115.68 27.1169 114.417 27.6082C113.156 28.1195 111.555 28.3746 109.614 28.3746ZM109.905 16.0291C110.43 16.0291 110.836 15.7351 111.127 15.1458C111.419 14.5365 111.564 13.4459 111.564 11.8754C111.564 10.3036 111.419 9.22312 111.127 8.63386C110.837 8.0245 110.43 7.72045 109.906 7.72045C109.401 7.72045 108.994 8.0245 108.683 8.63386C108.391 9.22312 108.246 10.3036 108.246 11.8754C108.246 13.4459 108.391 14.5365 108.683 15.1458C108.994 15.7351 109.401 16.0291 109.905 16.0291ZM99.6162 7.98555C98.5486 7.45535 97.3072 7.19025 95.8908 7.19025C94.5128 7.19025 93.2802 7.45535 92.1939 7.98555C91.1264 8.51576 90.2822 9.37012 89.6615 10.5486C89.0595 11.7271 88.7578 13.2889 88.7578 15.2338C88.7578 17.1787 89.0595 18.7392 89.6603 19.9189C90.281 21.0773 91.1251 21.9217 92.1927 22.4519C93.2802 22.9821 94.5128 23.2484 95.8908 23.2484C97.3072 23.2484 98.5498 22.9821 99.6162 22.4519C100.684 21.9217 101.518 21.0773 102.12 19.9189C102.722 18.7404 103.022 17.1787 103.022 15.2338C103.022 13.2889 102.722 11.7284 102.12 10.5486C101.519 9.37012 100.684 8.51576 99.6162 7.98555ZM93.9393 9.54727C94.4644 8.36876 95.1137 7.7795 95.8908 7.7795C96.6853 7.7795 97.3357 8.36876 97.8397 9.54727C98.3648 10.7057 98.6268 12.6016 98.6268 15.2338C98.6268 17.866 98.3648 19.7619 97.841 20.9203C97.3357 22.0787 96.6865 22.6592 95.8908 22.6592C95.1137 22.6592 94.4632 22.0787 93.9393 20.9203C93.4155 19.7619 93.1535 17.866 93.1535 15.2338C93.1535 12.6016 93.4155 10.7057 93.9393 9.54727Z" fill="#151515"/>
<path d="M80.9188 1.97266V2.56317C80.2597 2.58202 79.7544 2.65991 79.4056 2.79812C79.2459 2.85283 79.1016 2.94569 78.9849 3.06882C78.8682 3.19195 78.7826 3.34173 78.7352 3.50548C78.6198 3.83843 78.5614 4.36989 78.5614 5.09609V20.0637C78.5614 20.6718 78.5999 21.1241 78.6781 21.4194C78.775 21.7134 78.95 21.9094 79.202 22.0086C79.4739 22.1066 79.8723 22.1556 80.395 22.1556H81.8226C82.4805 22.1556 83.1024 21.9986 83.6846 21.6845C84.2681 21.3704 84.7907 20.9281 85.2562 20.3577C85.7472 19.7242 86.1402 19.0188 86.4219 18.2658C86.7322 17.4617 86.9643 16.5671 87.1195 15.5846H87.7899C87.7315 16.253 87.703 17.1174 87.703 18.1778C87.703 18.6301 87.7117 19.2872 87.7315 20.1517C87.7514 21.0161 87.8085 21.9106 87.9053 22.8328C86.7902 22.7912 85.6744 22.7715 84.5585 22.7738C83.3172 22.7549 82.2099 22.7449 81.2391 22.7449H79.377C78.6198 22.7449 77.8042 22.7549 76.9315 22.7738C76.0576 22.7738 75.175 22.7838 74.2824 22.8039C73.3886 22.8039 72.5445 22.814 71.75 22.8328V22.2436C72.3707 22.2046 72.8362 22.1255 73.1466 22.0086C73.4569 21.8905 73.6605 21.6543 73.7586 21.3013C73.874 20.947 73.9323 20.4168 73.9323 19.7094V5.09609C73.9323 4.36863 73.874 3.83968 73.7586 3.50548C73.7203 3.34203 73.6414 3.19122 73.5293 3.0674C73.4171 2.94358 73.2756 2.85087 73.118 2.79812C72.8077 2.65991 72.3508 2.58202 71.75 2.56191V1.97266C73.2825 2.03012 74.8158 2.05944 76.3493 2.06061C77.2034 2.06061 78.0376 2.05181 78.8519 2.03171C79.6874 2.01161 80.3763 1.99276 80.9188 1.97266Z" fill="#151515"/>
<path fill-rule="evenodd" clip-rule="evenodd" d="M210.873 47.1812C210.832 46.9702 210.859 46.695 210.957 46.3558L215.058 31.3203C214.401 31.5928 213.722 31.8051 213.028 31.9548C212.317 32.0968 211.501 32.1734 210.58 32.1885L210.433 32.6333C211.117 32.6333 211.543 32.7463 211.711 32.9725C211.877 33.1986 211.898 33.5504 211.773 34.0304L210.802 37.7355C210.741 37.5568 210.636 37.3968 210.497 37.2707C210.26 37.0445 209.932 36.9314 209.514 36.9314C208.677 36.9314 207.902 37.1224 207.191 37.5031C206.475 37.8988 205.832 38.4145 205.287 39.0284C204.714 39.6504 204.229 40.3488 203.843 41.104C203.463 41.8389 203.161 42.6126 202.943 43.412C202.745 44.1006 202.639 44.8131 202.629 45.5303C202.629 46.2075 202.734 46.7654 202.943 47.2026C203.153 47.626 203.438 47.9439 203.801 48.155C204.163 48.3535 204.568 48.4515 205.015 48.4515C205.698 48.4515 206.312 48.2479 206.856 47.8383C207.4 47.4149 207.908 46.7654 208.384 45.8896C208.583 45.5328 208.782 45.132 208.981 44.6873L208.843 45.2124C208.717 45.6261 208.633 46.0517 208.592 46.4827C208.565 46.8495 208.593 47.1611 208.677 47.4149C208.843 48.106 209.36 48.4527 210.225 48.4527C210.545 48.4527 210.873 48.3886 211.208 48.2617C211.543 48.1348 211.856 47.9162 212.149 47.6046C212.457 47.2943 212.7 46.8508 212.881 46.2703L213.384 44.725H212.987L212.652 45.6773C212.401 46.3985 212.164 46.8847 211.941 47.1385C211.731 47.3797 211.515 47.4991 211.291 47.4991C211.054 47.4991 210.915 47.3936 210.873 47.1812ZM209.757 41.7284C209.599 42.2448 209.428 42.7361 209.242 43.1997C208.893 44.1043 208.523 44.8807 208.132 45.5303C207.756 46.1648 207.386 46.6586 207.023 47.0129C206.661 47.3508 206.339 47.5205 206.061 47.5205C205.796 47.5205 205.601 47.3936 205.475 47.1398C205.364 46.8709 205.308 46.4688 205.308 45.9324C205.308 45.1697 205.391 44.3933 205.559 43.603C205.726 42.7989 205.956 42.0287 206.249 41.295C206.519 40.6064 206.855 39.9465 207.253 39.3249C207.63 38.7319 208.028 38.2657 208.446 37.9265C208.878 37.5873 209.304 37.4189 209.722 37.4189C210.001 37.4189 210.225 37.5182 210.392 37.7154C210.509 37.8436 210.599 38.0295 210.661 38.2758L209.757 41.7284Z" fill="#151515"/>
<path d="M196.952 48.1571H194.379L196.889 39.0306C197.016 38.6072 197.057 38.3107 197.016 38.141C196.973 37.9714 196.848 37.8872 196.638 37.8872C196.374 37.8872 196.129 38.0217 195.906 38.2893C195.682 38.5569 195.453 39.0306 195.216 39.709L194.859 40.7029H194.462L195.006 39.1148C195.202 38.5494 195.445 38.1134 195.738 37.8018C196.031 37.4777 196.353 37.2515 196.702 37.1246C197.05 36.9977 197.405 36.9336 197.768 36.9336C198.215 36.9336 198.542 37.0253 198.751 37.21C198.974 37.3935 199.115 37.6334 199.171 37.93C199.241 38.2495 199.255 38.5792 199.212 38.9037C199.184 39.2429 199.128 39.5746 199.044 39.8988L198.708 41.2268L198.793 41.0006C199.184 39.998 199.56 39.2002 199.923 38.6072C200.3 38.0003 200.698 37.5694 201.116 37.3156C201.526 37.0634 201.997 36.9312 202.476 36.9336C202.978 36.9336 203.362 37.0819 203.627 37.3784C203.906 37.6749 204.046 38.0418 204.046 38.4803C204.046 38.8321 203.961 39.165 203.795 39.4753C203.632 39.7666 203.402 40.0136 203.124 40.1953C202.86 40.3649 202.553 40.4491 202.205 40.4491C201.856 40.4491 201.576 40.3573 201.367 40.1739C201.172 39.9905 201.074 39.7216 201.074 39.3698C201.074 39.0582 201.144 38.7768 201.283 38.5217C201.418 38.2734 201.603 38.0571 201.827 37.8872C202.051 37.7038 202.295 37.5769 202.56 37.5053C202.53 37.4762 202.495 37.4546 202.455 37.4425C202.408 37.4275 202.358 37.4203 202.309 37.4211C202.002 37.4211 201.688 37.5342 201.367 37.7603C201.046 37.9714 200.711 38.3182 200.362 38.7981C200.014 39.2781 199.658 39.9126 199.296 40.7029C198.887 41.6374 198.524 42.5917 198.207 43.5624C198.05 44.0323 197.891 44.5374 197.732 45.0789L196.952 48.1571Z" fill="#151515"/>
<path fill-rule="evenodd" clip-rule="evenodd" d="M189.131 44.8833L189.043 45.2124C188.911 45.6906 188.82 46.1795 188.771 46.6736C188.729 47.126 188.798 47.5066 188.979 47.817C189.259 48.2404 189.733 48.4527 190.402 48.4527C190.724 48.4527 191.044 48.3886 191.365 48.2617C191.699 48.1348 192.013 47.9162 192.306 47.6046C192.599 47.2805 192.844 46.8282 193.039 46.2502L193.563 44.7049H193.164L192.85 45.6572C192.599 46.391 192.356 46.8784 192.119 47.1184C191.882 47.3571 191.651 47.4777 191.427 47.4777C191.246 47.4777 191.128 47.4212 191.072 47.3081C191.029 47.1643 191.014 47.013 191.03 46.8634C191.057 46.6838 191.099 46.5069 191.156 46.3344L193.856 36.9314C193.435 37.0331 193.008 37.104 192.578 37.1438C192.146 37.1865 191.679 37.2141 191.177 37.228L190.874 38.3612C190.861 38.0735 190.778 37.7934 190.633 37.5458C190.524 37.3528 190.365 37.1936 190.173 37.0853C189.981 36.9771 189.764 36.9239 189.544 36.9314C188.931 36.9314 188.318 37.1224 187.703 37.5031C187.051 37.9185 186.465 38.4329 185.967 39.0284C185.403 39.6778 184.912 40.3877 184.502 41.1454C184.09 41.9053 183.761 42.7077 183.519 43.5389C183.29 44.2868 183.171 45.0642 183.164 45.8469C183.164 46.6385 183.345 47.273 183.707 47.7529C184.07 48.219 184.627 48.4515 185.381 48.4515C185.911 48.4515 186.42 48.2969 186.909 47.9866C187.41 47.675 187.885 47.1599 188.331 46.4412C188.608 46.0077 188.874 45.4888 189.131 44.8833ZM187.327 47.033C187.006 47.3295 186.72 47.4777 186.469 47.4777C186.26 47.4777 186.099 47.3722 185.988 47.1599C185.89 46.9337 185.841 46.5606 185.841 46.0379C185.841 45.2891 185.924 44.5202 186.092 43.7299C186.26 42.9383 186.483 42.177 186.762 41.4432C187.055 40.7082 187.376 40.0524 187.724 39.4732C188.073 38.8952 188.422 38.4354 188.771 38.0961C189.133 37.7569 189.475 37.5885 189.796 37.5885C190.13 37.5885 190.367 37.7582 190.508 38.0961C190.647 38.4027 190.683 38.8135 190.616 39.3274L189.997 41.6417L190.068 41.2736C189.845 42.177 189.579 43.01 189.272 43.7726C189.005 44.4544 188.684 45.1129 188.31 45.7414C187.975 46.2917 187.647 46.7226 187.327 47.033ZM180.351 46.3558C180.253 46.695 180.225 46.9702 180.267 47.1812C180.308 47.3936 180.449 47.4991 180.686 47.4991C180.909 47.4991 181.125 47.3797 181.334 47.1398C181.557 46.8847 181.794 46.3985 182.045 45.6773L182.38 44.725H182.778L182.276 46.2703C182.095 46.8495 181.85 47.2943 181.544 47.6046C181.283 47.8932 180.961 48.1179 180.601 48.2617C180.288 48.385 179.955 48.4497 179.618 48.4527C178.754 48.4527 178.238 48.106 178.07 47.4149C177.982 47.1128 177.954 46.7959 177.987 46.4827C178.014 46.1158 178.098 45.6911 178.238 45.2124L178.376 44.6873C178.176 45.132 177.976 45.5328 177.777 45.8896C177.303 46.7654 176.794 47.4149 176.25 47.8371C175.72 48.2423 175.072 48.4588 174.408 48.4527C173.962 48.4527 173.558 48.3522 173.195 48.1562C172.821 47.9324 172.523 47.6002 172.337 47.2026C172.128 46.7654 172.023 46.2075 172.023 45.5303C172.023 44.8807 172.128 44.1734 172.337 43.412C172.546 42.6355 172.846 41.8666 173.236 41.104C173.622 40.349 174.108 39.6508 174.68 39.0284C175.252 38.3926 175.887 37.8851 176.584 37.5031C177.3 37.121 178.098 36.9245 178.907 36.9314C179.325 36.9314 179.653 37.0445 179.89 37.2707C180.027 37.3925 180.13 37.5471 180.197 37.7355L181.166 34.0304C181.293 33.5504 181.272 33.1974 181.104 32.9712C180.937 32.7451 180.511 32.632 179.828 32.632L179.974 32.1885C180.796 32.1837 181.615 32.1055 182.422 31.9548C183.116 31.8051 183.796 31.5928 184.452 31.3203L180.351 46.3558ZM178.635 43.1997C178.821 42.7348 178.994 42.2448 179.15 41.7284L180.055 38.2758C180.012 38.0697 179.919 37.8774 179.786 37.7154C179.704 37.6181 179.601 37.5409 179.485 37.4895C179.369 37.4382 179.243 37.414 179.117 37.4189C178.698 37.4189 178.273 37.5885 177.841 37.9265C177.421 38.2657 177.024 38.7319 176.648 39.3249C176.249 39.9458 175.913 40.6053 175.643 41.2937C175.346 42.0412 175.115 42.814 174.953 43.603C174.788 44.3683 174.704 45.1491 174.701 45.9324C174.701 46.4688 174.757 46.8709 174.869 47.1385C174.994 47.3936 175.19 47.5205 175.455 47.5205C175.734 47.5205 176.054 47.3508 176.417 47.0116C176.78 46.6598 177.149 46.1648 177.526 45.5291C177.961 44.7862 178.332 44.0068 178.635 43.1997Z" fill="#151515"/>
<path d="M160.504 48.1571H163.077L163.319 47.1997L163.307 47.2688C163.573 46.28 163.872 45.3277 164.207 44.4092C164.533 43.5327 164.895 42.6709 165.294 41.8261C165.672 41.0345 166.048 40.3435 166.425 39.7505C166.801 39.1574 167.164 38.6989 167.513 38.3734C167.862 38.0342 168.182 37.8658 168.475 37.8658C168.712 37.8658 168.858 37.95 168.914 38.1196C168.972 38.3121 168.979 38.5165 168.935 38.7127C168.894 38.9422 168.838 39.1688 168.768 39.3911L166.865 45.2146C166.669 45.8076 166.557 46.3152 166.53 46.7386C166.501 47.162 166.578 47.5088 166.759 47.7764C166.899 47.9887 167.094 48.1508 167.345 48.2639C167.611 48.3895 167.925 48.4549 168.287 48.4549C168.621 48.4549 168.956 48.3908 169.292 48.2639C169.64 48.1508 169.961 47.9385 170.254 47.6282C170.56 47.3178 170.812 46.8655 171.007 46.2725L171.53 44.7271H171.133L170.797 45.6795C170.533 46.4145 170.282 46.9007 170.045 47.1407C169.822 47.3819 169.606 47.5013 169.396 47.5013C169.172 47.5013 169.033 47.4095 168.978 47.2248C168.922 47.0288 168.956 46.7386 169.082 46.3579L171.133 40.1312C171.314 39.5809 171.404 39.0657 171.404 38.5858C171.418 38.092 171.287 37.6962 171.007 37.3997C170.742 37.0894 170.267 36.9348 169.585 36.9348C169.068 36.9348 168.573 37.0479 168.099 37.2728C167.624 37.499 167.164 37.8935 166.718 38.4589C166.271 39.0092 165.811 39.758 165.337 40.7028C165.022 41.3401 164.733 41.9902 164.471 42.6515L165.169 39.8987C165.253 39.5595 165.315 39.2203 165.358 38.8823C165.4 38.5305 165.385 38.2114 165.315 37.9287C165.249 37.6368 165.078 37.3803 164.835 37.2087C164.598 37.0253 164.249 36.9336 163.789 36.9336C163.23 36.9336 162.721 37.0894 162.26 37.3997C161.801 37.7101 161.424 38.2817 161.131 39.1147L160.587 40.7028H160.984L161.341 39.7077C161.591 39.0167 161.821 38.5431 162.031 38.2893C162.254 38.0216 162.498 37.8872 162.763 37.8872C162.958 37.8872 163.077 37.9437 163.119 38.0568C163.174 38.1699 163.189 38.3106 163.16 38.4802C163.129 38.666 163.087 38.8497 163.035 39.0305L160.504 48.1571Z" fill="#151515"/>
<path fill-rule="evenodd" clip-rule="evenodd" d="M155.169 45.2146L155.258 44.8854C155.034 45.4262 154.767 45.9473 154.458 46.4434C154.011 47.162 153.537 47.6784 153.034 47.9887C152.546 48.2991 152.037 48.4536 151.507 48.4536C150.754 48.4536 150.197 48.2212 149.834 47.7551C149.47 47.2751 149.289 46.6406 149.289 45.8491C149.289 45.1153 149.408 44.3464 149.645 43.5411C149.887 42.7099 150.217 41.9075 150.629 41.1476C151.038 40.3896 151.53 39.6796 152.093 39.0305C152.592 38.435 153.177 37.9206 153.83 37.5053C154.443 37.1246 155.058 36.9336 155.671 36.9336C156.145 36.9336 156.508 37.1384 156.76 37.5492C156.894 37.7591 156.974 38.0304 157.001 38.3634L157.303 37.2301C157.805 37.2163 158.273 37.1886 158.705 37.1459C159.152 37.1032 159.576 37.0329 159.981 36.9336L157.282 46.3378C157.226 46.5102 157.184 46.6871 157.157 46.8668C157.141 47.0164 157.155 47.1677 157.199 47.3115C157.255 47.4246 157.373 47.4812 157.554 47.4812C157.778 47.4812 158.007 47.3618 158.244 47.1218C158.481 46.8819 158.726 46.3931 158.977 45.6606L159.291 44.707H159.688L159.165 46.2524C158.971 46.8316 158.726 47.2826 158.433 47.6093C158.172 47.8971 157.851 48.1214 157.492 48.2652C157.186 48.3895 156.859 48.4542 156.529 48.4561C155.86 48.4561 155.385 48.2438 155.106 47.8204C154.925 47.5101 154.855 47.1294 154.898 46.6771C154.946 46.183 155.037 45.6928 155.169 45.2146ZM152.595 47.4799C152.847 47.4799 153.132 47.3316 153.454 47.0351C153.774 46.7248 154.102 46.2939 154.437 45.7435C154.771 45.1932 155.093 44.5374 155.399 43.7747C155.706 43.0121 155.971 42.1791 156.195 41.2745L156.124 41.6439L156.742 39.3308C156.808 38.8157 156.772 38.4048 156.634 38.0995C156.494 37.7603 156.257 37.5907 155.922 37.5907C155.601 37.5907 155.26 37.7603 154.898 38.0983C154.549 38.4375 154.2 38.8961 153.851 39.4753C153.502 40.0533 153.181 40.7104 152.888 41.4441C152.607 42.1877 152.383 42.9522 152.219 43.7308C152.055 44.4894 151.971 45.2635 151.968 46.0401C151.968 46.5627 152.016 46.9371 152.114 47.162C152.226 47.3744 152.386 47.4799 152.595 47.4799Z" fill="#151515"/>
<path d="M150.74 37.6529L150.804 37.2294H148.311L149.297 33.7567C148.884 33.8595 148.465 33.9305 148.042 33.9691C147.61 34.0105 147.142 34.0394 146.64 34.0532L145.74 37.2294H143.836L143.732 37.6529H145.621L143.48 45.2139C143.298 45.8346 143.236 46.3924 143.292 46.8862C143.362 47.3662 143.557 47.7481 143.878 48.0295C144.212 48.3122 144.694 48.4542 145.322 48.4542C146.033 48.4542 146.646 48.2632 147.163 47.8813C147.679 47.5006 148.084 46.8724 148.377 45.9967L148.795 44.7264H148.397L148.084 45.5946C147.832 46.3007 147.554 46.7945 147.246 47.0772C146.953 47.3599 146.66 47.5006 146.367 47.5006C146.252 47.5045 146.138 47.4815 146.032 47.4336C145.927 47.3857 145.835 47.3141 145.761 47.2242C145.621 47.042 145.607 46.753 145.719 46.3573L148.191 37.6529H150.74ZM143.811 33.0154C143.672 33.3823 143.483 33.9201 143.246 34.6249C143.023 35.3159 142.801 36.2205 142.577 37.335H142.159C142.2 37.1377 142.228 36.9329 142.242 36.7219C142.269 36.5325 142.283 36.3415 142.284 36.1502C142.284 35.5986 142.172 35.1199 141.949 34.7103C141.734 34.2808 141.39 33.9318 140.966 33.714C140.534 33.4602 139.975 33.3333 139.292 33.3333C138.553 33.3333 137.924 33.5306 137.409 33.9263C136.893 34.307 136.635 34.9214 136.635 35.7682C136.635 36.2909 136.753 36.7859 136.99 37.2508C137.242 37.7031 137.556 38.1479 137.932 38.5851C138.323 39.0085 138.734 39.4395 139.166 39.8767C139.599 40.3001 140.004 40.7386 140.38 41.1896C140.756 41.642 141.064 42.1219 141.301 42.6295C141.552 43.1245 141.677 43.6673 141.677 44.2603C141.677 45.0091 141.496 45.6512 141.133 46.1877C140.78 46.7147 140.315 47.1558 139.773 47.4792C139.204 47.8082 138.591 48.0508 137.953 48.1992C137.339 48.3652 136.706 48.4509 136.07 48.4542C135.442 48.4542 134.919 48.404 134.501 48.306C134.143 48.2378 133.798 48.1163 133.475 47.9454C133.201 47.7934 132.929 47.6384 132.659 47.4805C132.535 47.3759 132.393 47.2965 132.24 47.2468C132.143 47.1972 132.036 47.1681 131.927 47.1614C131.745 47.1614 131.592 47.2531 131.467 47.4378C131.302 47.7136 131.162 48.0037 131.048 48.3047H130.629C130.974 47.4435 131.262 46.5595 131.488 45.6587C131.654 45.0091 131.843 44.1975 132.053 43.2225H132.471C132.413 43.503 132.364 43.7855 132.325 44.0693C132.282 44.352 132.269 44.6347 132.282 44.9174C132.325 45.905 132.624 46.6676 133.182 47.2041C133.755 47.7406 134.591 48.0082 135.692 48.0082C136.627 48.0082 137.332 47.8109 137.807 47.4164C138.281 47.0068 138.518 46.4138 138.518 45.6373C138.518 45.0443 138.406 44.5066 138.183 44.0279C137.972 43.5299 137.69 43.066 137.346 42.6509C136.991 42.2213 136.622 41.8047 136.237 41.402C135.852 40.9992 135.482 40.5822 135.128 40.1519C134.785 39.7243 134.497 39.2549 134.27 38.7547C134.041 38.22 133.928 37.6423 133.936 37.0598C133.936 36.355 134.082 35.7406 134.375 35.2179C134.671 34.7081 135.07 34.2678 135.546 33.9263C136.035 33.5733 136.58 33.3081 137.157 33.1423C137.719 32.9628 138.305 32.87 138.894 32.8672C139.648 32.8672 140.268 32.9589 140.756 33.1436C141.245 33.3258 141.664 33.5456 142.012 33.7994L142.41 34.0532C142.535 34.1098 142.633 34.1374 142.703 34.1374C142.897 34.1374 143.128 33.7643 143.393 33.0154H143.811Z" fill="#151515"/>
<path fill-rule="evenodd" clip-rule="evenodd" d="M123.615 47.1812C123.573 46.9702 123.601 46.695 123.7 46.3558L127.8 31.3203C127.143 31.5928 126.464 31.8051 125.77 31.9548C125.059 32.0968 124.243 32.1734 123.322 32.1885L123.176 32.6333C123.858 32.6333 124.285 32.7463 124.452 32.9725C124.619 33.1986 124.64 33.5504 124.515 34.0304L123.544 37.7355C123.483 37.5568 123.378 37.3968 123.239 37.2707C123.002 37.0445 122.674 36.9314 122.256 36.9314C121.418 36.9314 120.644 37.1224 119.933 37.5031C119.218 37.8987 118.574 38.4145 118.029 39.0284C117.456 39.6504 116.971 40.3488 116.585 41.104C116.205 41.8388 115.903 42.6125 115.685 43.412C115.487 44.1005 115.381 44.8131 115.371 45.5303C115.371 46.2075 115.477 46.7654 115.685 47.2026C115.895 47.626 116.18 47.9439 116.543 48.155C116.905 48.3535 117.31 48.4515 117.757 48.4515C118.44 48.4515 119.054 48.2479 119.598 47.8383C120.142 47.4149 120.651 46.7654 121.125 45.8896C121.324 45.5328 121.523 45.132 121.723 44.6873L121.587 45.2124C121.46 45.626 121.375 46.0516 121.335 46.4827C121.301 46.7959 121.33 47.1128 121.418 47.4149C121.585 48.106 122.101 48.4527 122.967 48.4527C123.287 48.4527 123.615 48.3886 123.95 48.2617C124.285 48.1348 124.598 47.9162 124.891 47.6046C125.199 47.2943 125.442 46.8508 125.624 46.2703L126.126 44.725H125.729L125.394 45.6773C125.143 46.3985 124.906 46.8847 124.683 47.1385C124.473 47.3797 124.257 47.4991 124.033 47.4991C123.798 47.4991 123.657 47.3936 123.615 47.1812ZM122.498 41.7284C122.341 42.2448 122.17 42.7361 121.983 43.1997C121.635 44.1043 121.265 44.8807 120.874 45.5303C120.498 46.1648 120.128 46.6586 119.766 47.0129C119.403 47.3508 119.083 47.5205 118.802 47.5205C118.538 47.5205 118.343 47.3936 118.218 47.1398C118.106 46.8709 118.05 46.4688 118.05 45.9324C118.05 45.1697 118.133 44.3933 118.301 43.603C118.468 42.7989 118.698 42.0287 118.991 41.295C119.261 40.6062 119.598 39.9463 119.996 39.3249C120.373 38.7319 120.77 38.2657 121.188 37.9265C121.62 37.5873 122.046 37.4189 122.464 37.4189C122.744 37.4189 122.967 37.5182 123.135 37.7154C123.251 37.8436 123.341 38.0295 123.403 38.2758L122.498 41.7284Z" fill="#151515"/>
<path d="M106.421 48.1571H103.848L106.38 39.0305C106.436 38.8333 106.477 38.6498 106.504 38.4802C106.535 38.3383 106.521 38.19 106.463 38.0568C106.421 37.9437 106.302 37.8872 106.107 37.8872C105.843 37.8872 105.598 38.0216 105.375 38.2893C105.166 38.5431 104.935 39.0167 104.684 39.709L104.329 40.7028H103.932L104.476 39.1147C104.769 38.2817 105.146 37.7101 105.605 37.3997C106.065 37.0894 106.574 36.9348 107.132 36.9348C107.593 36.9348 107.942 37.0253 108.179 37.2087C108.422 37.38 108.594 37.6366 108.66 37.9287C108.73 38.2114 108.744 38.5292 108.703 38.8823C108.66 39.2246 108.597 39.564 108.514 39.8987L107.816 42.6528C108.112 41.9127 108.4 41.2644 108.682 40.7028C109.156 39.758 109.615 39.0092 110.062 38.4589C110.509 37.8935 110.968 37.499 111.442 37.2728C111.918 37.0467 112.412 36.9336 112.928 36.9336C113.611 36.9336 114.087 37.0894 114.351 37.3997C114.63 37.6962 114.763 38.0907 114.748 38.5858C114.748 39.0657 114.659 39.5809 114.476 40.1312L112.427 46.3579C112.3 46.7386 112.265 47.0288 112.321 47.2248C112.377 47.4095 112.517 47.5013 112.741 47.5013C112.949 47.5013 113.165 47.3819 113.389 47.1419C113.626 46.9007 113.877 46.4132 114.142 45.6795L114.478 44.7271H114.875L114.351 46.2725C114.156 46.8655 113.904 47.3178 113.599 47.6294C113.336 47.92 113.004 48.1383 112.635 48.2639C112.315 48.3884 111.975 48.4531 111.631 48.4549C111.269 48.4549 110.955 48.3908 110.69 48.2639C110.438 48.1508 110.243 47.9875 110.104 47.7764C109.923 47.5088 109.846 47.162 109.873 46.7386C109.902 46.3152 110.014 45.8076 110.208 45.2146L112.113 39.3911C112.182 39.165 112.238 38.9388 112.28 38.7127C112.324 38.5165 112.317 38.3121 112.259 38.1196C112.203 37.95 112.057 37.8658 111.82 37.8658C111.527 37.8658 111.205 38.0355 110.858 38.3734C110.509 38.6989 110.145 39.1574 109.769 39.7505C109.352 40.4187 108.974 41.1118 108.639 41.8261C108.263 42.6176 107.9 43.477 107.551 44.4092C107.216 45.3264 106.918 46.28 106.652 47.2688L106.664 47.1997L106.421 48.1571Z" fill="#151515"/>
<path fill-rule="evenodd" clip-rule="evenodd" d="M98.604 44.8822L98.5171 45.2114C98.3853 45.6897 98.294 46.1785 98.244 46.6726C98.2018 47.1249 98.2713 47.5056 98.4526 47.8159C98.7319 48.2393 99.2061 48.4516 99.8764 48.4516C100.234 48.449 100.588 48.3725 100.915 48.2266C101.243 48.0808 101.537 47.8688 101.781 47.6036C102.074 47.2794 102.317 46.8271 102.513 46.2492L103.035 44.7038H102.637L102.324 45.6561C102.072 46.3899 101.828 46.8774 101.592 47.1173C101.355 47.356 101.124 47.4767 100.902 47.4767C100.719 47.4767 100.601 47.4201 100.546 47.307C100.502 47.1632 100.488 47.0119 100.503 46.8623C100.532 46.6788 100.573 46.5029 100.63 46.3333L103.329 36.9304C102.909 37.032 102.482 37.1029 102.053 37.1427C101.619 37.1854 101.153 37.2131 100.65 37.2269L100.347 38.3602C100.334 38.0725 100.251 37.7924 100.106 37.5447C99.9972 37.3519 99.8384 37.1928 99.6467 37.0846C99.4551 36.9763 99.238 36.923 99.0186 36.9304C98.4042 36.9304 97.7897 37.1213 97.1764 37.502C96.5632 37.884 95.9847 38.3916 95.4397 39.0273C94.8762 39.6764 94.3849 40.3864 93.9749 41.1444C93.5634 41.9042 93.2338 42.7067 92.9917 43.5378C92.7635 44.2857 92.6439 45.0632 92.6367 45.8458C92.6367 46.6374 92.818 47.2719 93.1804 47.7518C93.5429 48.2179 94.1015 48.4504 94.8538 48.4504C95.3839 48.4504 95.8941 48.2958 96.3807 47.9855C96.8835 47.6739 97.3589 47.1588 97.8046 46.4401C98.0814 46.0067 98.3471 45.4878 98.604 44.8822ZM96.8003 47.0319C96.48 47.3284 96.1933 47.4767 95.9425 47.4767C95.7327 47.4767 95.5726 47.3711 95.4609 47.1588C95.364 46.9326 95.3144 46.5595 95.3144 46.0368C95.3144 45.288 95.3988 44.5191 95.5664 43.7288C95.7327 42.9373 95.9562 42.1759 96.2355 41.4421C96.5284 40.7071 96.8487 40.0513 97.1975 39.4721C97.5464 38.8941 97.8952 38.4343 98.244 38.0951C98.6065 37.7558 98.9479 37.5875 99.2694 37.5875C99.6046 37.5875 99.8404 37.7571 99.9807 38.0951C100.12 38.4016 100.155 38.8125 100.089 39.3263L99.4705 41.6406L99.5413 41.2725C99.3178 42.1759 99.0534 43.0089 98.7468 43.7715C98.4389 44.5329 98.1186 45.19 97.7835 45.7403C97.4483 46.2906 97.1206 46.7216 96.8003 47.0319Z" fill="#151515"/>
<path d="M87.0382 48.1571H84.4648L86.9749 39.0306C87.1003 38.6072 87.1425 38.3107 87.1003 38.141C87.0593 37.9714 86.9339 37.8872 86.7242 37.8872C86.4597 37.8872 86.2152 38.0217 85.9917 38.2893C85.7683 38.5569 85.5386 39.0306 85.3015 39.709L84.9453 40.7029H84.548L85.0917 39.1148C85.2879 38.5494 85.5312 38.1134 85.8242 37.8018C86.1171 37.4777 86.4386 37.2515 86.7875 37.1246C87.1351 36.9977 87.4913 36.9336 87.8551 36.9336C88.3007 36.9336 88.6284 37.0253 88.837 37.21C89.0589 37.3902 89.2081 37.6462 89.2566 37.93C89.3261 38.2265 89.3397 38.5506 89.2975 38.9037C89.2702 39.2429 89.2144 39.5746 89.13 39.8988L88.7948 41.2268L88.8283 41.1351L88.8792 41.0006C89.2702 39.998 89.6464 39.2002 90.0088 38.6072C90.3862 38.0003 90.7835 37.5694 91.2018 37.3156C91.6117 37.0634 92.0827 36.9312 92.5624 36.9336C93.0639 36.9336 93.4475 37.0819 93.7131 37.3784C93.9912 37.6749 94.1315 38.0418 94.1315 38.4803C94.1315 38.8321 94.0471 39.165 93.8795 39.4753C93.7171 39.7665 93.4875 40.0135 93.2104 40.1953C92.9338 40.3678 92.614 40.4559 92.2893 40.4491C91.9417 40.4491 91.6624 40.3573 91.4526 40.1739C91.2577 39.9905 91.1596 39.7216 91.1596 39.3698C91.1596 39.0582 91.2291 38.7768 91.3694 38.5217C91.5084 38.2679 91.6897 38.0569 91.9131 37.8872C92.1366 37.7038 92.3799 37.5769 92.6455 37.5053C92.6161 37.4764 92.5804 37.4549 92.5413 37.4425C92.5135 37.4329 92.4848 37.4266 92.4556 37.4236C92.435 37.4216 92.4143 37.4208 92.3935 37.4211C92.0882 37.4211 91.7728 37.5342 91.4526 37.7603C91.1323 37.9714 90.7971 38.3182 90.4483 38.7981C90.1007 39.2781 89.7444 39.9126 89.3807 40.7029C88.9717 41.6373 88.6088 42.5916 88.2933 43.5624C88.1356 44.0311 87.9767 44.5374 87.8178 45.0789L87.0382 48.1571Z" fill="#151515"/>
<path fill-rule="evenodd" clip-rule="evenodd" d="M83.1236 33.9481C82.426 33.4392 81.31 33.1854 79.7756 33.1854C79.3014 33.1854 78.8272 33.193 78.3518 33.2068C77.8924 33.2206 77.3624 33.2281 76.7628 33.2281H75.7163C75.3389 33.2131 74.9839 33.2068 74.6487 33.2068C74.3697 33.1943 74.0908 33.1801 73.812 33.1641L73.7078 33.5875C74.2515 33.5875 74.6214 33.6578 74.8163 33.7998C75.0261 33.9254 75.1229 34.124 75.1093 34.3928C75.0811 34.7357 75.0251 35.0757 74.9417 35.4093L72.1796 45.9129C72.0555 46.4204 71.9152 46.8024 71.7613 47.0562C71.6223 47.2989 71.3987 47.4804 71.1344 47.565C70.8687 47.6492 70.4988 47.7058 70.0246 47.7334L69.9414 48.1568C70.1773 48.1442 70.464 48.1367 70.798 48.1367C71.1331 48.1216 71.4894 48.1153 71.8655 48.1153C72.9186 48.0829 73.9724 48.0901 75.0249 48.1367C75.5971 48.1493 76.121 48.1581 76.5952 48.1581C77.5014 48.1581 78.3592 48.0651 79.1686 47.8817C79.9146 47.7104 80.6282 47.4176 81.2814 47.0147C81.8658 46.6624 82.3603 46.1761 82.7251 45.595C83.0876 45.0296 83.2689 44.3675 83.2689 43.6048C83.2689 42.7429 82.9213 42.0017 82.2236 41.381C81.5409 40.7591 80.4584 40.3922 78.9799 40.2791C79.9023 40.1451 80.7986 39.8666 81.6364 39.4537C82.4185 39.0441 83.0318 38.5428 83.4787 37.9497C83.9285 37.3867 84.1723 36.6836 84.1689 35.9596C84.1689 35.1128 83.8225 34.4418 83.1236 33.9481ZM76.445 40.5555L75.046 45.9129C74.9628 46.2647 74.9069 46.5762 74.8796 46.8439C74.8647 47.1127 74.9342 47.3175 75.0882 47.4595C75.2421 47.6002 75.5276 47.6706 75.946 47.6706C76.9366 47.6706 77.746 47.4796 78.3729 47.0989C78.9871 46.7333 79.4765 46.1867 79.7756 45.5322C80.0822 44.8537 80.2349 44.0911 80.2349 43.2455C80.2349 42.7216 80.1443 42.263 79.9631 41.8685C79.8035 41.4677 79.5165 41.1321 79.1475 40.9149C78.7713 40.6749 78.2686 40.5555 77.6404 40.5555H76.445ZM76.5393 40.1949H77.4952C78.2897 40.1949 78.9662 39.9901 79.5236 39.5806C80.0959 39.1571 80.5291 38.6068 80.8221 37.9296C81.1272 37.2587 81.2839 36.5285 81.2814 35.79C81.2814 35.0839 81.1424 34.5411 80.8631 34.1591C80.5986 33.7784 80.1307 33.5875 79.4603 33.5875C78.9737 33.5875 78.6249 33.6867 78.4151 33.884C78.2065 34.0674 78.0253 34.4695 77.8713 35.0901L76.5393 40.1949Z" fill="#151515"/>
</g>
</g>
<defs>
<clipPath id="clip0_1153_43947">
<rect width="216" height="49" fill="white"/>
</clipPath>
</defs>
</svg>
