<svg width="216" height="56" viewBox="0 0 216 56" fill="none" xmlns="http://www.w3.org/2000/svg">
<g clip-path="url(#clip0_2344_18177)">
<path d="M19.9422 42.0586C19.9417 42.115 19.9414 42.1717 19.9414 42.2284C19.9414 42.6633 19.9569 43.09 19.988 43.5086H28.6496C28.5717 43.1036 28.5326 42.6768 28.5326 42.2284C28.5326 42.1714 28.5333 42.1149 28.5346 42.0586H19.9422Z" fill="white"/>
<path d="M9.37393 42.0586V43.5086H1.15625V42.0586H9.37393Z" fill="white"/>
<path d="M20.0195 40.5829H28.7373C28.8481 40.1604 29.0042 39.7582 29.2055 39.3763C29.253 39.2933 29.3024 39.2122 29.3534 39.1328H20.2294C20.1373 39.6048 20.0673 40.088 20.0195 40.5829Z" fill="white"/>
<path d="M9.37393 39.1328V40.5829H1.15625V39.1328H9.37393Z" fill="white"/>
<path d="M19.1737 37.657C18.8304 37.3275 18.3528 37.0749 17.741 36.8993C17.0686 36.7242 16.11 36.6366 14.8649 36.6366H9.37393V37.657H1.15625V36.207H19.6086V37.657H19.1737Z" fill="white"/>
<path d="M20.6016 37.657H30.7805C30.899 37.5754 31.0217 37.4978 31.1484 37.4245C31.9701 36.9493 32.9165 36.7116 33.9873 36.7116C35.0581 36.7116 35.9919 36.9493 36.7887 37.4245C36.9156 37.4978 37.0379 37.5754 37.1558 37.657H47.3113C47.2031 37.323 47.0823 36.9954 46.9488 36.6741C46.8856 36.5164 46.8198 36.3608 46.7515 36.207H21.1551C21.0846 36.3608 21.0166 36.5164 20.9511 36.6741C20.8222 36.9954 20.7057 37.323 20.6016 37.657Z" fill="white"/>
<path d="M21.9453 34.7312H45.9828C45.6733 34.2216 45.3303 33.7382 44.9539 33.2812H22.985C22.6066 33.7382 22.26 34.2216 21.9453 34.7312Z" fill="white"/>
<path d="M24.4297 31.8056H43.5175C42.8921 31.2599 42.2132 30.7764 41.4804 30.3555H26.4751C25.7453 30.7764 25.0636 31.2599 24.4297 31.8056Z" fill="white"/>
<path d="M19.6112 30.3555V31.8056H1.00987C0.968529 31.5543 0.918568 31.3257 0.860013 31.1197C0.786176 30.8336 0.692195 30.5788 0.578125 30.3555H19.6112Z" fill="white"/>
<path d="M56.6447 30.3555C56.6096 30.3724 56.5745 30.3895 56.5394 30.4067C55.7234 30.8119 54.9734 31.2782 54.2891 31.8056H72.6612C72.6661 31.7894 72.6709 31.7734 72.676 31.7577C72.8503 31.2072 73.1243 30.7819 73.4977 30.4817V30.3555H56.6447Z" fill="white"/>
<path d="M80.3892 30.3555C79.6594 30.7764 78.9777 31.2599 78.3438 31.8056H97.4317C96.8063 31.2599 96.1272 30.7764 95.3945 30.3555H80.3892Z" fill="white"/>
<path d="M137.98 30.3555H149.65C150.089 30.5922 150.495 30.8595 150.867 31.1571C151.122 31.3632 151.357 31.5795 151.576 31.8056H137.98V30.3555Z" fill="white"/>
<path d="M114.57 30.3555H123.962C123.847 30.5671 123.745 30.8093 123.654 31.0822C123.584 31.2939 123.525 31.535 123.476 31.8056H114.97C114.934 31.5543 114.89 31.3257 114.839 31.1197C114.765 30.8336 114.675 30.5788 114.57 30.3555Z" fill="white"/>
<path d="M103.426 30.3555H112.703C112.598 30.5788 112.509 30.8336 112.435 31.1197C112.384 31.3257 112.34 31.5543 112.304 31.8056H103.825C103.789 31.5543 103.746 31.3257 103.694 31.1197C103.62 30.8336 103.531 30.5788 103.426 30.3555Z" fill="white"/>
<path d="M98.868 33.2812H76.8991C76.5205 33.7382 76.174 34.2216 75.8594 34.7312H99.8968C99.5873 34.2216 99.2442 33.7382 98.868 33.2812Z" fill="white"/>
<path d="M103.956 34.7312V34.0094C103.956 33.7554 103.953 33.5127 103.945 33.2812H112.185C112.178 33.5127 112.174 33.7554 112.174 34.0094V34.7312H103.956Z" fill="white"/>
<path d="M100.665 36.207H75.0691C74.9988 36.3608 74.9306 36.5164 74.8651 36.6741C74.7362 36.9954 74.6197 37.323 74.5156 37.657H84.6945C84.8131 37.5754 84.9357 37.4978 85.0624 37.4245C85.8842 36.9493 86.8306 36.7116 87.9014 36.7116C88.9722 36.7116 89.906 36.9493 90.7028 37.4245C90.8296 37.4978 90.952 37.5754 91.0699 37.657H101.225C101.117 37.323 100.997 36.9954 100.863 36.6741C100.8 36.5164 100.734 36.3608 100.665 36.207Z" fill="white"/>
<path d="M103.953 37.657V36.207H112.171V37.657H103.953Z" fill="white"/>
<path d="M101.612 39.1328H92.4688C92.5177 39.2122 92.5645 39.2933 92.6095 39.3763C92.822 39.7582 92.9867 40.1604 93.1038 40.5829H101.83C101.78 40.088 101.708 39.6048 101.612 39.1328Z" fill="white"/>
<path d="M103.953 40.5829V39.1328H112.171V40.5829H103.953Z" fill="white"/>
<path d="M101.909 42.0586H93.3165C93.3179 42.1149 93.3186 42.1714 93.3186 42.2284C93.3186 42.6768 93.2775 43.1036 93.1953 43.5086H101.862C101.894 43.09 101.91 42.6633 101.91 42.2284C101.91 42.1717 101.91 42.115 101.909 42.0586Z" fill="white"/>
<path d="M103.953 43.5086V42.0586H112.171V43.5086H103.953Z" fill="white"/>
<path d="M101.678 44.9844H92.6644C92.6468 45.0167 92.6288 45.0488 92.6106 45.0807C92.3277 45.6016 91.9705 46.053 91.5391 46.4344H101.34C101.478 45.9634 101.59 45.4803 101.678 44.9844Z" fill="white"/>
<path d="M103.953 46.4344V44.9844H112.171V46.4344H103.953Z" fill="white"/>
<path d="M100.814 47.9102H74.9219C75.137 48.4143 75.3776 48.8974 75.643 49.3603H100.112C100.372 48.8974 100.606 48.4143 100.814 47.9102Z" fill="white"/>
<path d="M103.953 49.3603V47.9102H112.171V49.3603H103.953Z" fill="white"/>
<path d="M99.1355 50.8359H76.625C76.979 51.2943 77.3634 51.7277 77.7783 52.1363C77.8304 52.1867 77.8831 52.2365 77.9359 52.2859H97.8317C97.8836 52.2365 97.9351 52.1867 97.9863 52.1363C98.4013 51.7277 98.7842 51.2943 99.1355 50.8359Z" fill="white"/>
<path d="M103.867 52.2859C103.914 51.8621 103.941 51.3789 103.95 50.8359H112.174C112.183 51.3789 112.211 51.8621 112.257 52.2859H103.867Z" fill="white"/>
<path d="M95.9537 53.7617H79.832C80.576 54.2401 81.3736 54.649 82.2245 54.9885C83.9427 55.664 85.8353 56.0017 87.9022 56.0017C89.9442 56.0017 91.8242 55.664 93.5425 54.9885C94.406 54.649 95.2097 54.2401 95.9537 53.7617Z" fill="white"/>
<path d="M70.5827 52.2859V50.8359H52.3555C52.7956 51.3598 53.2812 51.8431 53.8127 52.2859H70.5827Z" fill="white"/>
<path d="M56.0312 53.7617H70.585V55.664C70.0371 55.4889 69.4893 55.4014 68.9415 55.4014C68.5679 55.4014 68.0325 55.4514 67.3353 55.5515C66.6629 55.6514 65.8785 55.7016 64.982 55.7016C61.7696 55.7016 59.0055 55.1637 56.6896 54.0879C56.4651 53.9838 56.2457 53.875 56.0312 53.7617Z" fill="white"/>
<path d="M43.9175 52.2859C43.9695 52.2365 44.0211 52.1867 44.0722 52.1363C44.4871 51.7277 44.8702 51.2943 45.2215 50.8359H22.7109C23.0649 51.2943 23.4494 51.7277 23.8642 52.1363C23.9164 52.1867 23.9689 52.2365 24.0218 52.2859H43.9175Z" fill="white"/>
<path d="M25.918 53.7617H42.0395C41.2956 54.2401 40.4918 54.649 39.6284 54.9885C37.9102 55.664 36.0301 56.0017 33.9881 56.0017C31.9212 56.0017 30.0287 55.664 28.3104 54.9885C27.4595 54.649 26.662 54.2401 25.918 53.7617Z" fill="white"/>
<path d="M9.47649 52.2859C9.42107 51.8628 9.38816 51.3794 9.3777 50.8359H1.15332C1.14454 51.3789 1.11688 51.8621 1.07031 52.2859H9.47649Z" fill="white"/>
<path d="M0.760703 53.7617H9.85817C10.061 54.2401 10.3115 54.5991 10.6095 54.8385V55.1763H0.113281V54.8385C0.380164 54.5895 0.595982 54.2306 0.760703 53.7617Z" fill="white"/>
<path d="M1.15625 49.3603H9.37393V47.9102H1.15625V49.3603Z" fill="white"/>
<path d="M1.15625 46.4344H9.37393V44.9844H1.15625V46.4344Z" fill="white"/>
<path d="M20.168 44.9844C20.2526 45.4803 20.3611 45.9634 20.4935 46.4344H30.3101C29.8728 46.053 29.5047 45.6016 29.2062 45.0807C29.189 45.0488 29.172 45.0167 29.1552 44.9844H20.168Z" fill="white"/>
<path d="M38.7467 44.9844C38.729 45.0167 38.711 45.0488 38.6927 45.0807C38.41 45.6016 38.0527 46.053 37.6211 46.4344H47.4225C47.5597 45.9634 47.6723 45.4803 47.7601 44.9844H38.7467Z" fill="white"/>
<path d="M49.7148 44.9844C49.8007 45.4838 49.9099 45.967 50.0425 46.4344H60.0193C59.5661 46.0837 59.1903 45.6701 58.8921 45.1934C58.8491 45.1248 58.8079 45.0551 58.7683 44.9844H49.7148Z" fill="white"/>
<path d="M58.2201 43.5086H49.5345C49.4984 43.0442 49.4805 42.5675 49.4805 42.0785C49.4805 42.0718 49.4805 42.0652 49.4805 42.0586H58.0717C58.0728 42.5728 58.1223 43.0562 58.2201 43.5086Z" fill="white"/>
<path d="M73.315 43.5086H63.8828C64.147 43.1857 64.3515 42.7341 64.496 42.1535C64.5039 42.1224 64.5117 42.0908 64.5194 42.0586H72.6527C72.6604 42.0908 72.6682 42.1224 72.6762 42.1535C72.8208 42.7341 73.0337 43.1857 73.315 43.5086Z" fill="white"/>
<path d="M74.082 44.9844C74.1666 45.4803 74.2752 45.9634 74.4076 46.4344H84.2241C83.7868 46.053 83.4189 45.6016 83.1203 45.0807C83.103 45.0488 83.086 45.0167 83.0693 44.9844H74.082Z" fill="white"/>
<path d="M82.5675 43.5086H73.9058C73.8748 43.09 73.8594 42.6633 73.8594 42.2284C73.8594 42.1717 73.8597 42.115 73.8602 42.0586H82.4527C82.4513 42.1149 82.4506 42.1714 82.4506 42.2284C82.4506 42.6768 82.4896 43.1036 82.5675 43.5086Z" fill="white"/>
<path d="M82.6551 40.5829C82.766 40.1604 82.9223 39.7582 83.1235 39.3763C83.171 39.2933 83.2203 39.2122 83.2714 39.1328H74.1474C74.0553 39.6048 73.9853 40.088 73.9375 40.5829H82.6551Z" fill="white"/>
<path d="M72.4539 40.5829C72.428 40.186 72.415 39.7463 72.415 39.2637V39.1328H64.7576V39.2637C64.7576 39.7463 64.7447 40.186 64.7188 40.5829H72.4539Z" fill="white"/>
<path d="M58.2188 40.5829C58.3307 40.0645 58.506 39.5812 58.7447 39.1328H49.7565C49.663 39.6034 49.5931 40.0868 49.5469 40.5829H58.2188Z" fill="white"/>
<path d="M47.9158 40.5829C47.8662 40.088 47.7936 39.6048 47.6982 39.1328H38.5547C38.6035 39.2122 38.6503 39.2933 38.6953 39.3763C38.9078 39.7582 39.0725 40.1604 39.1896 40.5829H47.9158Z" fill="white"/>
<path d="M39.4025 42.0586C39.4039 42.1149 39.4046 42.1714 39.4046 42.2284C39.4046 42.6768 39.3635 43.1036 39.2812 43.5086H47.9476C47.9798 43.09 47.9958 42.6633 47.9958 42.2284C47.9958 42.1717 47.9955 42.115 47.995 42.0586H39.4025Z" fill="white"/>
<path d="M50.1406 37.657H59.9923C60.2922 37.4131 60.6228 37.1981 60.9837 37.0119C61.93 36.5615 63.0382 36.3364 64.3083 36.3364C64.4586 36.3364 64.608 36.3379 64.7564 36.341V37.657H72.4138V36.207H50.7191C50.4961 36.6741 50.3034 37.1575 50.1406 37.657Z" fill="white"/>
<path d="M51.5586 34.7312H72.414V34.3471C72.414 33.9574 72.4236 33.6021 72.4427 33.2812H52.6877C52.2775 33.7333 51.9011 34.2166 51.5586 34.7312Z" fill="white"/>
<path d="M70.5847 47.9102H50.5625C50.7774 48.4153 51.024 48.8987 51.3028 49.3603H70.5847V47.9102Z" fill="white"/>
<path d="M46.1937 49.3603C46.4541 48.8974 46.6884 48.4143 46.8963 47.9102H21.0039C21.2192 48.4143 21.4597 48.8974 21.7252 49.3603H46.1937Z" fill="white"/>
<path d="M103.558 53.7617H112.572C112.737 54.2306 112.953 54.5895 113.22 54.8385V55.1763H102.91V54.8385C103.177 54.5895 103.393 54.2306 103.558 53.7617Z" fill="white"/>
<path d="M114.659 53.7617C114.486 54.2306 114.246 54.5895 113.941 54.8385V55.1763H125.932C128.173 55.1763 130.09 54.8134 131.684 54.0879C131.92 53.9859 132.148 53.8771 132.368 53.7617H114.659Z" fill="white"/>
<path d="M140.52 53.7617C142.246 54.9048 144.561 55.4763 147.466 55.4763C148.139 55.4763 148.748 55.4388 149.297 55.3637C149.845 55.2887 150.256 55.2512 150.529 55.2512C150.953 55.2512 151.414 55.3388 151.912 55.514V53.7617H140.52Z" fill="white"/>
<path d="M151.911 52.2859H138.871C138.509 51.8404 138.215 51.3572 137.988 50.8359H151.911V52.2859Z" fill="white"/>
<path d="M154.531 53.7617C154.366 54.2306 154.15 54.5895 153.883 54.8385V55.1763H164.156V54.8385C163.888 54.5895 163.672 54.2306 163.508 53.7617H154.531Z" fill="white"/>
<path d="M163.222 52.2859H154.844C154.891 51.8621 154.918 51.3789 154.927 50.8359H163.151C163.158 51.3789 163.181 51.8621 163.222 52.2859Z" fill="white"/>
<path d="M167.657 53.7617C167.502 54.2306 167.282 54.5895 166.996 54.8385V55.1763H177.306V54.8385C177.02 54.5895 176.791 54.2306 176.623 53.7617H167.657Z" fill="white"/>
<path d="M176.306 52.2859H167.953C168.001 51.8621 168.028 51.3789 168.037 50.8359H176.224C176.232 51.3789 176.26 51.8621 176.306 52.2859Z" fill="white"/>
<path d="M178.489 53.7617C178.297 54.2345 178.042 54.5933 177.723 54.8385V55.1763H186.725V54.9135C186.512 54.5351 186.395 54.1511 186.377 53.7617H178.489Z" fill="white"/>
<path d="M186.787 52.2859H178.84C178.893 51.8647 178.928 51.3814 178.943 50.8359H188.069L187.545 51.3482C187.228 51.6673 186.975 51.9799 186.787 52.2859Z" fill="white"/>
<path d="M198.461 53.7617C198.436 54.1506 198.321 54.5345 198.117 54.9135V55.1763H207.007V54.8385C206.707 54.5933 206.456 54.2345 206.254 53.7617H198.461Z" fill="white"/>
<path d="M205.891 52.2859H198.111C197.918 51.9484 197.646 51.6107 197.297 51.2732L196.863 50.8359H205.786C205.803 51.3814 205.838 51.8647 205.891 52.2859Z" fill="white"/>
<path d="M205.774 49.3603V47.9102H193.965L195.4 49.3603H205.774Z" fill="white"/>
<path d="M189.577 49.3603L191.059 47.9102H178.957V49.3603H189.577Z" fill="white"/>
<path d="M176.219 49.3603V47.9102H168.039V49.3603H176.219Z" fill="white"/>
<path d="M163.147 49.3603V47.9102H154.93V49.3603H163.147Z" fill="white"/>
<path d="M151.911 49.3603V47.9102H150.944C150.865 47.9669 150.782 48.0196 150.699 48.0685C150.596 48.1295 150.49 48.1844 150.38 48.2333C150.246 48.2911 150.09 48.3414 149.911 48.3842C149.892 48.389 149.871 48.3936 149.851 48.3982C149.817 48.406 149.78 48.4136 149.744 48.4209C149.52 48.4959 149.272 48.5334 148.997 48.5334C148.424 48.5334 147.977 48.396 147.652 48.1207C147.574 48.0535 147.505 47.9834 147.445 47.9102H137.418C137.419 48.4167 137.461 48.9001 137.544 49.3603H151.911Z" fill="white"/>
<path d="M136.253 49.3603C136.41 48.9019 136.529 48.4185 136.608 47.9102H127.114C126.616 48.1507 125.985 48.2709 125.22 48.2709H123.315V47.9102H115.098V49.3603H136.253Z" fill="white"/>
<path d="M115.095 50.8359C115.085 51.3789 115.053 51.8621 115 52.2859H134.406C134.786 51.909 135.124 51.4963 135.418 51.048C135.465 50.978 135.511 50.9073 135.555 50.8359H115.095Z" fill="white"/>
<path d="M115.098 46.4344H123.315V44.9844H115.098V46.4344Z" fill="white"/>
<path d="M115.098 43.5086H123.315V42.0586H115.098V43.5086Z" fill="white"/>
<path d="M115.098 40.5829H134.963C134.587 40.0719 134.148 39.5887 133.647 39.1328H115.098V40.5829Z" fill="white"/>
<path d="M115.098 37.657H131.632C130.725 37.124 129.684 36.6406 128.51 36.207H115.098V37.657Z" fill="white"/>
<path d="M115.101 34.7312H123.662L123.319 34.6321V34.0094C123.319 33.7547 123.323 33.512 123.332 33.2812H115.09C115.097 33.5127 115.101 33.7554 115.101 34.0094V34.7312Z" fill="white"/>
<path d="M137.98 33.2812V34.7312H153.273C153.124 34.2187 152.925 33.7354 152.673 33.2812H137.98Z" fill="white"/>
<path d="M156.146 33.2812C155.901 33.7361 155.693 34.2195 155.523 34.7312H175.628C175.457 34.2195 175.249 33.7361 175.004 33.2812H156.146Z" fill="white"/>
<path d="M178.945 33.2812C178.954 33.5127 178.956 33.7554 178.956 34.0094V34.7312H186.95V34.0094C186.95 33.7554 186.954 33.5127 186.961 33.2812H178.945Z" fill="white"/>
<path d="M187.08 31.8056H178.826C178.79 31.5543 178.745 31.3257 178.695 31.1197C178.621 30.8336 178.53 30.5788 178.426 30.3555H187.48C187.374 30.5788 187.285 30.8336 187.211 31.1197C187.159 31.3257 187.116 31.5543 187.08 31.8056Z" fill="white"/>
<path d="M197.809 33.2812C197.817 33.5127 197.82 33.7554 197.82 34.0094V34.7312H205.777V34.0094C205.777 33.7554 205.78 33.5127 205.788 33.2812H197.809Z" fill="white"/>
<path d="M205.905 31.8056H197.688C197.652 31.5543 197.609 31.3257 197.557 31.1197C197.483 30.8336 197.391 30.5788 197.281 30.3555H206.311C206.201 30.5788 206.109 30.8336 206.036 31.1197C205.985 31.3257 205.941 31.5543 205.905 31.8056Z" fill="white"/>
<path d="M172.471 30.3555H158.694C158.113 30.7771 157.595 31.2604 157.141 31.8056H174.028C173.576 31.2604 173.058 30.7771 172.471 30.3555Z" fill="white"/>
<path d="M205.777 36.207H197.82V37.657H205.777V36.207Z" fill="white"/>
<path d="M205.777 39.1328H197.82V40.5829H205.777V39.1328Z" fill="white"/>
<path d="M205.777 42.0586H197.82V42.212L197.665 42.0586H178.957V43.5086H205.777V42.0586Z" fill="white"/>
<path d="M205.777 44.9844H178.957V46.4344H205.777V44.9844Z" fill="white"/>
<path d="M176.219 46.4344V44.9844H168.039V46.4344H176.219Z" fill="white"/>
<path d="M163.147 46.4344V44.9844H154.93V46.4344H163.147Z" fill="white"/>
<path d="M147.337 46.4344C147.383 46.3439 147.439 46.2554 147.503 46.1691C147.752 45.8938 148.151 45.5311 148.698 45.0807L148.828 44.9844H138.005C137.805 45.456 137.656 45.9395 137.559 46.4344H147.337Z" fill="white"/>
<path d="M136.724 46.4344C136.725 46.3961 136.725 46.3576 136.725 46.3191C136.725 45.8609 136.7 45.416 136.65 44.9844H128.344C128.403 45.2267 128.433 45.484 128.433 45.7562C128.433 45.9997 128.407 46.2258 128.357 46.4344H136.724Z" fill="white"/>
<path d="M127.424 43.5086H136.371C136.234 43.0042 136.057 42.5207 135.841 42.0586H124.137L124.362 42.116C125.754 42.4839 126.775 42.9483 127.424 43.5086Z" fill="white"/>
<path d="M140.16 42.0586C139.652 42.5108 139.211 42.9941 138.84 43.5086H150.675C151.109 43.0994 151.497 42.6728 151.836 42.2284C151.879 42.1721 151.921 42.1156 151.962 42.0586H140.16Z" fill="white"/>
<path d="M154.93 42.0586V43.5086H163.147V42.0586H154.93Z" fill="white"/>
<path d="M163.147 40.5829H154.93V39.1328H163.16C163.152 39.2595 163.147 39.3906 163.147 39.5264V40.5829Z" fill="white"/>
<path d="M168.039 42.0586V43.5086H176.219V42.0586H168.039Z" fill="white"/>
<path d="M176.22 40.5829H168.04V39.5264C168.04 39.3906 168.036 39.2595 168.027 39.1328H176.22V40.5829Z" fill="white"/>
<path d="M178.957 40.5829H186.95V39.1328H178.957V40.5829Z" fill="white"/>
<path d="M178.957 37.657H186.95V36.207H178.957V37.657Z" fill="white"/>
<path d="M176.003 36.207H155.146C155.06 36.6711 155 37.1544 154.965 37.657H163.539C163.601 37.5466 163.669 37.4441 163.744 37.3496C164.168 36.8492 164.777 36.599 165.574 36.599C166.371 36.599 166.981 36.8492 167.405 37.3496C167.484 37.4441 167.557 37.5466 167.621 37.657H176.183C176.148 37.1544 176.088 36.6711 176.003 36.207Z" fill="white"/>
<path d="M153.576 37.657C153.585 37.4813 153.591 37.3037 153.591 37.1243C153.591 36.8106 153.577 36.5047 153.548 36.207H143.02C143.185 36.2826 143.334 36.3759 143.468 36.4865C143.875 36.8044 144.098 37.1947 144.136 37.657H153.576Z" fill="white"/>
<path d="M143.665 39.1328C143.651 39.1516 143.636 39.1701 143.621 39.1885C143.328 39.5468 142.813 40.0117 142.078 40.5829H152.838C152.953 40.3354 153.056 40.0831 153.146 39.8265C153.227 39.5989 153.296 39.3677 153.355 39.1328H143.665Z" fill="white"/>
<path d="M140.217 36.207H137.98V37.4997H138.279L138.84 36.9367C139.039 36.7866 139.25 36.6615 139.474 36.5615C139.7 36.4291 139.948 36.3109 140.217 36.207Z" fill="white"/>
<path d="M189.958 39.1328L188.312 40.5829H196.168L194.699 39.1328H189.958Z" fill="white"/>
<path d="M193.206 37.6568H191.633L192.366 37.0117H192.553L193.206 37.6568Z" fill="white"/>
<path d="M1.14453 33.2812H19.6097V34.7312H1.15735V34.0094C1.15735 33.7554 1.1531 33.5127 1.14453 33.2812Z" fill="white"/>
<path d="M212.147 0C211.681 0 211.255 0.0789362 210.869 0.236809C210.476 0.388609 210.135 0.607201 209.845 0.892585C209.555 1.1719 209.33 1.50282 209.173 1.88535C209.017 2.2679 208.938 2.68687 208.938 3.14226C208.938 3.59766 209.017 4.01663 209.173 4.39916C209.33 4.7817 209.555 5.11567 209.845 5.40105C210.135 5.68036 210.476 5.89896 210.869 6.05683C211.255 6.20862 211.681 6.28453 212.147 6.28453C212.607 6.28453 213.033 6.20862 213.426 6.05683C213.818 5.89896 214.159 5.68036 214.45 5.40105C214.74 5.11567 214.963 4.7817 215.121 4.39916C215.278 4.01663 215.356 3.59766 215.356 3.14226C215.356 2.68687 215.278 2.2679 215.121 1.88535C214.963 1.50282 214.74 1.1719 214.45 0.892585C214.159 0.607201 213.818 0.388609 213.426 0.236809C213.033 0.0789362 212.607 0 212.147 0ZM210.95 5.11871C210.606 4.93046 210.339 4.66634 210.153 4.32631C209.965 3.98628 209.871 3.59159 209.871 3.14226C209.871 2.68687 209.965 2.29218 210.153 1.95822C210.339 1.61819 210.606 1.35406 210.95 1.16583C211.288 0.977593 211.688 0.883477 212.147 0.883477C212.6 0.883477 213 0.977593 213.344 1.16583C213.683 1.35406 213.949 1.61819 214.141 1.95822C214.329 2.29218 214.423 2.68687 214.423 3.14226C214.423 3.59159 214.329 3.98628 214.141 4.32631C213.949 4.66634 213.683 4.93046 213.344 5.11871C213 5.30694 212.6 5.40105 212.147 5.40105C211.688 5.40105 211.288 5.30694 210.95 5.11871ZM211.195 2.614H211.259C211.301 2.56543 211.361 2.52595 211.44 2.4956C211.495 2.47738 211.56 2.46827 211.64 2.46827C211.748 2.46827 211.849 2.4956 211.939 2.55024C212.023 2.6049 212.09 2.67775 212.138 2.76884C212.186 2.85992 212.211 2.96618 212.211 3.08762C212.211 3.28192 212.159 3.4398 212.056 3.56124C211.948 3.68267 211.805 3.74339 211.63 3.74339C211.539 3.74339 211.461 3.72518 211.394 3.68875C211.365 3.67053 211.337 3.65232 211.314 3.63409C211.283 3.60982 211.262 3.58856 211.249 3.57034H211.187V4.80903C211.241 4.83332 211.316 4.85153 211.412 4.86368C211.503 4.87582 211.601 4.8819 211.702 4.8819C212.077 4.8819 212.41 4.80903 212.7 4.6633C212.984 4.5115 213.207 4.30202 213.37 4.03486C213.535 3.7616 213.616 3.4489 213.616 3.09673C213.616 2.75062 213.54 2.44398 213.388 2.17682C213.238 1.90964 213.026 1.7032 212.754 1.55747C212.483 1.40567 212.175 1.32977 211.829 1.32977C211.745 1.32977 211.673 1.33281 211.612 1.33888C211.552 1.34495 211.497 1.34799 211.449 1.34799C211.358 1.34799 211.273 1.33888 211.195 1.32066V2.614Z" fill="white"/>
<path fill-rule="evenodd" clip-rule="evenodd" d="M20.9499 21.8885C20.2775 20.2122 19.9414 18.361 19.9414 16.3345C19.9414 14.3082 20.2775 12.4569 20.9499 10.7807C21.6471 9.10453 22.6184 7.65353 23.8634 6.42768C25.1335 5.20182 26.6151 4.25117 28.3084 3.57569C30.0267 2.90024 31.9192 2.5625 33.9861 2.5625C36.0281 2.5625 37.9083 2.90024 39.6265 3.57569C41.3448 4.25117 42.8264 5.20182 44.0715 6.42768C45.3165 7.65353 46.2753 9.10453 46.9477 10.7807C47.6449 12.4569 47.9935 14.3082 47.9935 16.3345C47.9935 18.361 47.6449 20.2122 46.9477 21.8885C46.2753 23.5645 45.3165 25.0155 44.0715 26.2415C42.8264 27.4673 41.3448 28.4179 39.6265 29.0934C37.9083 29.7689 36.0281 30.1066 33.9861 30.1066C31.9192 30.1066 30.0267 29.7689 28.3084 29.0934C26.6151 28.4179 25.1335 27.4673 23.8634 26.2415C22.6184 25.0155 21.6471 23.5645 20.9499 21.8885ZM39.4023 16.3345C39.4023 15.2588 39.1658 14.3082 38.6926 13.4826C38.2444 12.657 37.6094 12.0065 36.7876 11.5312C35.9908 11.0559 35.0569 10.8182 33.9861 10.8182C32.9153 10.8182 31.9691 11.0559 31.1473 11.5312C30.3256 12.0065 29.6781 12.657 29.2049 13.4826C28.7567 14.3082 28.5326 15.2588 28.5326 16.3345C28.5326 17.3852 28.7567 18.336 29.2049 19.1865C29.6781 20.012 30.3256 20.6625 31.1473 21.1379C31.9691 21.6132 32.9153 21.8509 33.9861 21.8509C35.0569 21.8509 35.9908 21.6132 36.7876 21.1379C37.6094 20.6625 38.2444 20.012 38.6926 19.1865C39.1658 18.336 39.4023 17.3852 39.4023 16.3345Z" fill="white"/>
<path d="M14.8665 21.9246H9.37563V8.11501C9.37563 6.83912 9.48768 5.86344 9.71181 5.18797C9.93593 4.5125 10.2347 4.02467 10.6083 3.72445V3.38672H0.112059V3.72445C0.460688 4.04969 0.72216 4.56254 0.896474 5.26303C1.07079 5.9385 1.15795 6.88915 1.15795 8.11501V24.5515C1.15795 25.7773 1.05834 26.7404 0.859121 27.4409C0.684806 28.1164 0.398434 28.6168 0 28.942V29.2797H16.3607C16.9584 29.2797 17.5435 29.3047 18.1163 29.3547C18.689 29.4048 19.1871 29.4923 19.6104 29.6174V20.7612H19.3115C18.963 21.1615 18.44 21.4618 17.7427 21.6619C17.0704 21.837 16.1117 21.9246 14.8665 21.9246Z" fill="white"/>
<path d="M64.4964 16.4101C64.6707 17.0856 64.7578 18.0488 64.7578 19.2997V22.2221C64.6094 22.2252 64.46 22.2267 64.3096 22.2267C63.0396 22.2267 61.9314 22.0016 60.9852 21.5512C60.0638 21.0759 59.3416 20.413 58.8186 19.5624C58.3207 18.6868 58.0717 17.6735 58.0717 16.5227C58.0717 15.2969 58.3455 14.2462 58.8935 13.3706C59.4413 12.495 60.2505 11.832 61.3213 11.3817C62.4171 10.9064 63.7493 10.6687 65.3181 10.6687C65.9656 10.6687 66.5383 10.7062 67.0364 10.7813C67.5593 10.8563 68.0325 10.9689 68.4559 11.119C68.7796 11.2191 69.0908 11.3567 69.3897 11.5318C69.7134 11.6819 69.9998 11.8695 70.2488 12.0947H70.5849V2.90082C70.0371 3.07593 69.4892 3.1635 68.9414 3.1635C68.5679 3.1635 68.0325 3.11346 67.3352 3.01339C66.6628 2.91332 65.8785 2.86328 64.982 2.86328C61.7696 2.86328 59.0055 3.40116 56.6896 4.47691C54.3736 5.55265 52.5932 7.10373 51.3481 9.13013C50.103 11.1565 49.4805 13.6082 49.4805 16.4852C49.4805 19.1621 50.103 21.5012 51.3481 23.5025C52.5932 25.504 54.3239 27.055 56.5402 28.1559C58.7813 29.2565 61.3836 29.807 64.347 29.807C65.9656 29.807 67.5594 29.6945 69.1281 29.4692C70.697 29.2441 72.1538 28.8938 73.4984 28.4185V28.0808C73.1249 27.7805 72.851 27.3553 72.6766 26.8049C72.5024 26.2545 72.4152 25.3914 72.4152 24.2156V19.2997C72.4152 18.0488 72.5024 17.0856 72.6766 16.4101C72.851 15.7097 73.1249 15.1969 73.4984 14.8717V14.5339H63.7119V14.8717C64.0606 15.1969 64.322 15.7097 64.4964 16.4101Z" fill="white"/>
<path fill-rule="evenodd" clip-rule="evenodd" d="M74.8679 21.8885C74.1955 20.2122 73.8594 18.361 73.8594 16.3345C73.8594 14.3082 74.1955 12.4569 74.8679 10.7807C75.5651 9.10453 76.5364 7.65353 77.7814 6.42768C79.0515 5.20182 80.5331 4.25117 82.2264 3.57569C83.9446 2.90024 85.8372 2.5625 87.9041 2.5625C89.9461 2.5625 91.8263 2.90024 93.5445 3.57569C95.2626 4.25117 96.7444 5.20182 97.9895 6.42768C99.2345 7.65353 100.193 9.10453 100.866 10.7807C101.563 12.4569 101.911 14.3082 101.911 16.3345C101.911 18.361 101.563 20.2122 100.866 21.8885C100.193 23.5645 99.2345 25.0155 97.9895 26.2415C96.7444 27.4673 95.2626 28.4179 93.5445 29.0934C91.8263 29.7689 89.9461 30.1066 87.9041 30.1066C85.8372 30.1066 83.9446 29.7689 82.2264 29.0934C80.5331 28.4179 79.0515 27.4673 77.7814 26.2415C76.5364 25.0155 75.5651 23.5645 74.8679 21.8885ZM93.3203 16.3345C93.3203 15.2588 93.0838 14.3082 92.6105 13.4826C92.1624 12.657 91.5273 12.0065 90.7056 11.5312C89.9087 11.0559 88.9749 10.8182 87.9041 10.8182C86.8333 10.8182 85.8871 11.0559 85.0653 11.5312C84.2435 12.0065 83.5961 12.657 83.1228 13.4826C82.6747 14.3082 82.4506 15.2588 82.4506 16.3345C82.4506 17.3852 82.6747 18.336 83.1228 19.1865C83.5961 20.012 84.2435 20.6625 85.0653 21.1379C85.8871 21.6132 86.8333 21.8509 87.9041 21.8509C88.9749 21.8509 89.9087 21.6132 90.7056 21.1379C91.5273 20.6625 92.1624 20.012 92.6105 19.1865C93.0838 18.336 93.3203 17.3852 93.3203 16.3345Z" fill="white"/>
<path d="M103.695 5.26303C103.869 5.9385 103.956 6.88915 103.956 8.11501V24.5515C103.956 25.7773 103.869 26.7404 103.695 27.4409C103.52 28.1164 103.259 28.6168 102.91 28.942V29.2797H113.22V28.942C112.871 28.6168 112.61 28.1164 112.435 27.4409C112.261 26.7404 112.174 25.7773 112.174 24.5515V8.11501C112.174 6.88915 112.261 5.9385 112.435 5.26303C112.61 4.56254 112.871 4.04969 113.22 3.72445V3.38672H102.91V3.72445C103.259 4.04969 103.52 4.56254 103.695 5.26303Z" fill="white"/>
<path fill-rule="evenodd" clip-rule="evenodd" d="M123.653 27.4784C123.877 28.1539 124.176 28.6417 124.55 28.942V29.2797H114.053V28.942C114.402 28.6168 114.664 28.1164 114.838 27.4409C115.012 26.7404 115.099 25.7773 115.099 24.5515V8.11501C115.099 6.88915 115 5.9385 114.801 5.26303C114.626 4.56254 114.34 4.04969 113.941 3.72445V3.38672H125.932C128.173 3.38672 130.09 3.74947 131.684 4.47498C133.303 5.17547 134.548 6.18866 135.419 7.51459C136.291 8.81548 136.727 10.3916 136.727 12.2429C136.727 14.0191 136.353 15.5952 135.606 16.9712C134.859 18.3471 133.714 19.548 132.17 20.5736C130.626 21.5744 128.646 22.4124 126.231 23.0879L123.317 23.9286V24.5515C123.317 25.8273 123.429 26.8029 123.653 27.4784ZM124.363 16.4457L123.317 16.7123V10.2915H125.222C126.268 10.2915 127.065 10.5167 127.613 10.967C128.16 11.3923 128.434 12.0052 128.434 12.8058C128.434 13.7064 128.111 14.4444 127.463 15.0198C126.816 15.5952 125.782 16.0705 124.363 16.4457Z" fill="white"/>
<path d="M151.613 11.1564H151.911V3.05078C151.413 3.22591 150.952 3.31346 150.528 3.31346C150.255 3.31346 149.844 3.27594 149.297 3.20089C148.749 3.12584 148.139 3.08832 147.465 3.08832C144.278 3.08832 141.801 3.77629 140.032 5.15225C138.289 6.50318 137.418 8.34196 137.418 10.6686C137.418 11.8694 137.692 13.0077 138.24 14.0835C138.788 15.1342 139.585 16.0723 140.63 16.8979L141.639 17.6485C142.61 18.3739 143.269 18.9493 143.618 19.3747C143.968 19.8 144.142 20.2627 144.142 20.763C144.142 21.2885 143.917 21.7262 143.469 22.0765C143.045 22.4268 142.461 22.6018 141.713 22.6018C141.291 22.6018 140.88 22.5518 140.481 22.4517C140.108 22.3267 139.772 22.1766 139.472 22.0015C139.248 21.9014 139.037 21.7762 138.837 21.6261L138.277 21.0633H137.978V28.9813C138.476 29.1565 139.211 29.2939 140.181 29.394C141.178 29.5192 142.149 29.5816 143.095 29.5816C146.458 29.5816 149.047 28.8562 150.866 27.4052C152.683 25.9292 153.591 23.9403 153.591 21.4385C153.591 20.4879 153.442 19.5873 153.144 18.7367C152.845 17.886 152.408 17.0855 151.836 16.335C151.263 15.5844 150.554 14.884 149.708 14.2336L148.699 13.483C148.151 13.0327 147.753 12.67 147.503 12.3948C147.279 12.0946 147.167 11.7693 147.167 11.4191C147.167 11.0438 147.329 10.7186 147.652 10.4434C147.977 10.1682 148.424 10.0306 148.997 10.0306C149.271 10.0306 149.521 10.0682 149.744 10.1432C149.993 10.1932 150.205 10.2558 150.379 10.3308C150.604 10.4309 150.816 10.556 151.015 10.7061C151.239 10.8312 151.438 10.9813 151.613 11.1564Z" fill="white"/>
<path d="M154.928 8.11501C154.928 6.88916 154.842 5.9385 154.666 5.26303C154.492 4.56254 154.231 4.04969 153.883 3.72445V3.38672H164.155V3.72445C163.806 4.04969 163.544 4.56254 163.37 5.26303C163.221 5.9385 163.146 6.88916 163.146 8.11501V19.035C163.146 19.9858 163.345 20.7113 163.744 21.2116C164.167 21.712 164.778 21.9622 165.573 21.9622C166.37 21.9622 166.981 21.712 167.404 21.2116C167.828 20.7113 168.038 19.9858 168.038 19.035V8.11501C168.038 6.88916 167.952 5.9385 167.778 5.26303C167.629 4.56254 167.367 4.04969 166.993 3.72445V3.38672H177.303V3.72445C176.929 4.04969 176.655 4.56254 176.481 5.26303C176.306 5.9385 176.22 6.88916 176.22 8.11501V19.8231C176.22 21.9997 175.796 23.8509 174.949 25.377C174.128 26.903 172.92 28.0789 171.326 28.9045C169.757 29.705 167.839 30.1053 165.573 30.1053C163.332 30.1053 161.415 29.705 159.821 28.9045C158.253 28.0789 157.045 26.903 156.197 25.377C155.352 23.8509 154.928 21.9997 154.928 19.8231V8.11501Z" fill="white"/>
<path d="M178.656 5.30055C178.856 6.02605 178.955 7.0893 178.955 8.49027V24.5515C178.955 25.7773 178.868 26.7404 178.694 27.4409C178.52 28.1164 178.258 28.6168 177.909 28.942V29.2797H187.995V28.942C187.646 28.6168 187.384 28.1164 187.21 27.4409C187.036 26.7404 186.948 25.7773 186.948 24.5515V16.7774L192.365 21.5493H192.551L197.819 16.3498V24.5515C197.819 25.7773 197.731 26.7404 197.557 27.4409C197.383 28.1164 197.108 28.6168 196.735 28.942V29.2797H206.858V28.942C206.484 28.6168 206.211 28.1164 206.035 27.4409C205.861 26.7404 205.775 25.7773 205.775 24.5515V8.49027C205.775 7.0893 205.874 6.02605 206.073 5.30055C206.297 4.57505 206.608 4.04969 207.007 3.72445V3.38672H198.117V3.6494C198.441 4.24982 198.541 4.86275 198.415 5.48819C198.291 6.08859 197.918 6.68901 197.295 7.28943L192.533 12.0988L187.546 7.21437C186.924 6.58894 186.551 5.98853 186.425 5.41313C186.301 4.81272 186.4 4.2248 186.725 3.6494V3.38672H177.723V3.72445C178.146 4.04969 178.457 4.57505 178.656 5.30055Z" fill="white"/>
</g>
<defs>
<clipPath id="clip0_2344_18177">
<rect width="216" height="56" fill="white"/>
</clipPath>
</defs>
</svg>
