<svg width="216" height="57" viewBox="0 0 216 57" fill="none" xmlns="http://www.w3.org/2000/svg">
<g clip-path="url(#clip0_2343_18072)">
<path fill-rule="evenodd" clip-rule="evenodd" d="M33.09 12.1641C31.142 12.1641 29.2131 12.5485 27.4134 13.2954C25.6137 14.0423 23.9784 15.1371 22.601 16.5172C21.2236 17.8973 20.1309 19.5357 19.3854 21.3389C18.7224 22.9426 18.3456 24.6486 18.2704 26.3795C18.2531 26.7757 18.0331 27.1383 17.6798 27.3152L12.8993 29.7102C12.546 29.8871 12.3196 30.2497 12.3369 30.6459C12.4121 32.3768 12.7889 34.0829 13.4519 35.6865C14.1974 37.4897 15.2901 39.1281 16.6675 40.5082C18.0449 41.8884 19.6802 42.9831 21.4799 43.73C23.2796 44.4769 25.2085 44.8614 27.1565 44.8614C29.1045 44.8614 31.0335 44.4769 32.8332 43.73C34.6329 42.9831 36.2681 41.8884 37.6455 40.5082C39.023 39.1281 40.1157 37.4897 40.8611 35.6865C41.5241 34.0829 41.901 32.3768 41.9762 30.6459C41.9934 30.2497 42.2135 29.8871 42.5668 29.7102L47.3473 27.3152C47.7005 27.1383 47.9269 26.7757 47.9097 26.3795C47.8345 24.6486 47.4576 22.9426 46.7946 21.3389C46.0491 19.5357 44.9565 17.8973 43.579 16.5172C42.2016 15.1371 40.5664 14.0423 38.7667 13.2954C36.9669 12.5485 35.038 12.1641 33.09 12.1641ZM39.9423 24.1827C40.2325 24.8846 40.4131 25.6257 40.4788 26.3801C40.5132 26.7751 40.2837 27.1383 39.9304 27.3152L35.1499 29.7102C34.7966 29.8871 34.5797 30.2503 34.5453 30.6453C34.4796 31.3997 34.299 32.1408 34.0088 32.8427C33.6361 33.7443 33.0898 34.5635 32.4011 35.2536C31.7123 35.9436 30.8947 36.491 29.9948 36.8645C29.095 37.2379 28.1305 37.4301 27.1565 37.4301C26.1826 37.4301 25.2181 37.2379 24.3182 36.8645C23.4184 36.491 22.6008 35.9436 21.912 35.2536C21.2233 34.5635 20.677 33.7443 20.3042 32.8427C20.0141 32.1408 19.8335 31.3997 19.7678 30.6453C19.7334 30.2503 19.9629 29.8871 20.3162 29.7102L25.0967 27.3152C25.4499 27.1383 25.6669 26.7751 25.7013 26.3801C25.767 25.6257 25.9476 24.8846 26.2377 24.1827C26.6104 23.2811 27.1568 22.4619 27.8455 21.7718C28.5343 21.0818 29.3519 20.5344 30.2517 20.161C31.1516 19.7875 32.1161 19.5953 33.09 19.5953C34.064 19.5953 35.0285 19.7875 35.9283 20.161C36.8282 20.5344 37.6458 21.0818 38.3346 21.7718C39.0233 22.4619 39.5696 23.2811 39.9423 24.1827Z" fill="white"/>
<path fill-rule="evenodd" clip-rule="evenodd" d="M33.0915 0.273438C29.5852 0.273438 26.1131 0.965404 22.8736 2.30984C19.6341 3.65426 16.6907 5.62485 14.2113 8.109C11.7319 10.5932 9.76515 13.5424 8.4233 16.7881C7.16389 19.8344 6.47815 23.086 6.39862 26.3786C6.38905 26.775 6.16758 27.1376 5.81433 27.3145L1.03379 29.7094C0.680557 29.8864 0.455564 30.2489 0.465138 30.6453C0.544654 33.9379 1.2304 37.1896 2.4898 40.2359C3.83163 43.4816 5.7984 46.4308 8.27777 48.9149C10.7572 51.3991 13.7006 53.3699 16.9402 54.7139C20.1796 56.0583 23.6517 56.7507 27.158 56.7507C30.6644 56.7507 34.1365 56.0583 37.376 54.7139C40.6155 53.3699 43.5589 51.3991 46.0383 48.9149C48.5177 46.4308 50.4845 43.4816 51.8263 40.2359C53.0859 37.1896 53.7714 33.9379 53.851 30.6453C53.8604 30.2489 54.0821 29.8864 54.435 29.7094L59.2156 27.3145C59.569 27.1376 59.7939 26.775 59.7845 26.3786C59.7049 23.086 59.0194 19.8344 57.7598 16.7881C56.418 13.5424 54.4511 10.5932 51.9718 8.109C49.4924 5.62485 46.549 3.65427 43.3095 2.30984C40.07 0.965409 36.5979 0.273438 33.0915 0.273438ZM46.4311 30.6453C46.4443 30.249 46.6651 29.8864 47.0184 29.7094L51.7989 27.3145C52.1522 27.1376 52.3781 26.775 52.3645 26.3787C52.287 24.0621 51.7941 21.7766 50.9075 19.6319C49.9384 17.2877 48.5179 15.1578 46.7273 13.3637C44.9366 11.5695 42.8108 10.1464 40.4711 9.17537C38.1315 8.20438 35.6239 7.70461 33.0915 7.70461C30.5591 7.70461 28.0516 8.20438 25.7119 9.17537C23.3723 10.1464 21.2465 11.5695 19.4558 13.3637C17.6651 15.1578 16.2447 17.2877 15.2756 19.6319C14.389 21.7766 13.896 24.0621 13.8185 26.3787C13.8052 26.775 13.5845 27.1376 13.2312 27.3145L8.45068 29.7094C8.09742 29.8864 7.87174 30.249 7.88502 30.6453C7.96246 32.9618 8.45546 35.2474 9.34211 37.3921C10.3112 39.7362 11.7316 41.8662 13.5223 43.6603C15.313 45.4544 17.4388 46.8776 19.7784 47.8486C22.1181 48.8196 24.6256 49.3193 27.158 49.3193C29.6905 49.3193 32.198 48.8196 34.5376 47.8486C36.8773 46.8776 39.0031 45.4544 40.7938 43.6603C42.5845 41.8662 44.0049 39.7362 44.974 37.3921C45.8607 35.2474 46.3536 32.9618 46.4311 30.6453Z" fill="white"/>
<path d="M138.833 9.07255C138.042 9.07255 137.374 8.79801 136.828 8.24893C136.281 7.69985 136.008 7.0331 136.008 6.2487C136.008 5.44469 136.281 4.77306 136.828 4.23378C137.374 3.6847 138.042 3.41016 138.833 3.41016C139.624 3.41016 140.287 3.6847 140.824 4.23378C141.37 4.77306 141.644 5.44469 141.644 6.2487C141.644 7.0331 141.37 7.69985 140.824 8.24893C140.287 8.79801 139.624 9.07255 138.833 9.07255Z" fill="white"/>
<path d="M136.508 26.7082V10.8828H141.134V26.7082H136.508Z" fill="white"/>
<path fill-rule="evenodd" clip-rule="evenodd" d="M143.742 31.3636V10.8819H148.133V12.4556H148.191C148.468 12.1818 148.766 11.9317 149.085 11.7055C150.12 10.9799 151.31 10.6172 152.657 10.6172C153.838 10.6172 154.965 10.926 156.039 11.5437C157.122 12.1615 158 13.0782 158.673 14.2941C159.347 15.5099 159.674 17.0248 159.654 18.8387C159.664 20.2114 159.474 21.4076 159.083 22.4273C158.693 23.4373 158.166 24.2756 157.502 24.9423C156.839 25.6091 156.097 26.1092 155.277 26.4425C154.457 26.7759 153.628 26.9426 152.789 26.9426C151.461 26.9426 150.271 26.57 149.217 25.8248C148.952 25.6348 148.7 25.4288 148.462 25.2071H148.368V28.7078L143.742 31.3636ZM151.706 23.0598C152.388 23.05 152.989 22.8686 153.506 22.5156C154.023 22.1626 154.428 21.6625 154.721 21.0154C155.014 20.3683 155.155 19.6133 155.145 18.7505C155.155 17.868 155.009 17.113 154.706 16.4855C154.414 15.8482 153.999 15.3628 153.462 15.0295C152.925 14.6863 152.31 14.5196 151.618 14.5294C150.964 14.5196 150.378 14.6813 149.861 15.0147C149.344 15.3481 148.934 15.8335 148.631 16.4708C148.329 17.0983 148.178 17.8582 148.178 18.7505C148.178 19.6133 148.329 20.3683 148.631 21.0154C148.943 21.6625 149.363 22.1626 149.89 22.5156C150.417 22.8686 151.022 23.05 151.706 23.0598Z" fill="white"/>
<path d="M166.801 26.9444C165.864 26.9444 164.966 26.7826 164.107 26.459C163.258 26.1355 162.507 25.6795 161.853 25.0912C161.199 24.4932 160.707 23.797 160.375 23.0028L164.005 21.3996C164.249 21.8605 164.615 22.2968 165.103 22.7086C165.591 23.1205 166.167 23.3263 166.831 23.3263C167.182 23.3263 167.489 23.2675 167.753 23.1498C168.016 23.0224 168.221 22.8606 168.368 22.6645C168.524 22.4684 168.602 22.2576 168.602 22.0321C168.602 21.7477 168.489 21.5026 168.265 21.2967C168.041 21.0908 167.753 20.9143 167.402 20.7672C167.05 20.6201 166.679 20.4927 166.289 20.3848C165.908 20.277 165.557 20.1789 165.235 20.0907C164.493 19.8652 163.79 19.5563 163.127 19.1641C162.473 18.7621 161.941 18.2522 161.531 17.6345C161.121 17.0168 160.916 16.2667 160.916 15.3842C160.916 14.4528 161.156 13.634 161.634 12.9281C162.122 12.2123 162.78 11.6534 163.61 11.2514C164.449 10.8494 165.405 10.6484 166.479 10.6484C167.816 10.6484 169.017 10.9573 170.08 11.575C171.154 12.1927 171.915 13.0114 172.364 14.0312L168.807 15.5754C168.621 15.2617 168.348 14.9577 167.987 14.6636C167.636 14.3694 167.187 14.2223 166.64 14.2223C166.181 14.2223 165.801 14.34 165.498 14.5753C165.196 14.8106 165.044 15.1048 165.044 15.4578C165.044 15.8108 165.196 16.0951 165.498 16.3108C165.801 16.5265 166.186 16.7128 166.655 16.8697C167.123 17.0266 167.611 17.1786 168.119 17.3256C168.509 17.4335 168.963 17.5904 169.48 17.7963C169.997 17.9924 170.5 18.262 170.988 18.6052C171.485 18.9484 171.895 19.3896 172.218 19.9289C172.549 20.4682 172.715 21.13 172.715 21.9144C172.715 22.9047 172.442 23.7823 171.895 24.5471C171.359 25.302 170.642 25.8903 169.744 26.312C168.855 26.7336 167.875 26.9444 166.801 26.9444Z" fill="white"/>
<path d="M191.52 26.7091V10.8838H195.926V12.8987H196.007C196.351 12.4172 196.738 12.0103 197.17 11.6779C198.048 10.9916 199.088 10.6484 200.288 10.6484C201.284 10.6484 202.127 10.8935 202.821 11.3838C203.355 11.7493 203.791 12.2395 204.128 12.8545H204.21C204.709 12.2158 205.315 11.7157 206.026 11.3544C206.953 10.8838 207.964 10.6484 209.057 10.6484C210.101 10.6484 210.96 10.8347 211.633 11.2073C212.307 11.5701 212.833 12.0505 213.214 12.6487C213.595 13.237 213.863 13.8841 214.019 14.5901C214.175 15.2862 214.253 15.9628 214.253 16.6197V26.7091H209.598V17.1933C209.598 16.3304 209.418 15.6686 209.057 15.2078C208.705 14.7371 208.188 14.5018 207.505 14.5018C207.056 14.5018 206.656 14.6048 206.304 14.8106C205.963 15.0067 205.69 15.3058 205.485 15.7078C205.289 16.1098 205.192 16.605 205.192 17.1933V26.7091H200.566V17.1933C200.566 16.3304 200.386 15.6686 200.025 15.2078C199.664 14.7371 199.141 14.5018 198.458 14.5018C197.794 14.5018 197.243 14.7322 196.804 15.1931C196.365 15.6441 196.146 16.3206 196.146 17.2227V26.7091H191.52Z" fill="white"/>
<path d="M177.242 26.2522C178.13 26.7131 179.116 26.9435 180.199 26.9435C181.477 26.9435 182.61 26.6297 183.595 26.0022C184.094 25.6797 184.548 25.312 184.956 24.8991H185.074C185.213 25.2208 185.418 25.5051 185.689 25.7522C186.225 26.2424 187.074 26.6395 188.235 26.9435L189.875 23.0607C189.367 22.8744 189.031 22.6538 188.865 22.3989C188.699 22.1439 188.616 21.7321 188.616 21.1634V10.8828H183.99V20.2074C183.99 20.7859 183.878 21.2859 183.654 21.7076C183.439 22.1194 183.136 22.4381 182.746 22.6636C182.365 22.8891 181.921 23.0019 181.414 23.0019C180.731 23.0019 180.15 22.7665 179.672 22.2959C179.203 21.8154 178.969 21.1193 178.969 20.2074V10.8828H174.344V20.8251C174.344 22.1586 174.602 23.2813 175.119 24.1932C175.647 25.0952 176.354 25.7816 177.242 26.2522Z" fill="white"/>
<path fill-rule="evenodd" clip-rule="evenodd" d="M126.49 26.9444C124.976 26.9444 123.596 26.5963 122.346 25.9002C121.107 25.204 120.117 24.2431 119.375 23.0175C118.643 21.7918 118.277 20.3799 118.277 18.7817C118.277 17.1835 118.643 15.7715 119.375 14.5459C120.117 13.3203 121.107 12.3643 122.346 11.6779C123.596 10.9916 124.976 10.6484 126.49 10.6484C128.031 10.6484 129.422 10.9916 130.661 11.6779C131.901 12.3643 132.882 13.3203 133.603 14.5459C134.336 15.7715 134.702 17.1835 134.702 18.7817C134.702 20.3799 134.336 21.7918 133.603 23.0175C132.882 24.2431 131.896 25.204 130.647 25.9002C129.407 26.5963 128.021 26.9444 126.49 26.9444ZM126.49 22.9734C127.211 22.9734 127.86 22.7969 128.436 22.4439C129.012 22.0909 129.466 21.6006 129.798 20.9731C130.129 20.3456 130.295 19.6151 130.295 18.7817C130.295 17.9777 130.134 17.2619 129.812 16.6344C129.49 16.0069 129.046 15.5166 128.48 15.1636C127.914 14.8009 127.26 14.6195 126.519 14.6195C125.787 14.6195 125.128 14.7959 124.542 15.1489C123.967 15.4921 123.513 15.9775 123.181 16.605C122.849 17.2325 122.683 17.9581 122.683 18.7817C122.683 19.6151 122.849 20.3456 123.181 20.9731C123.523 21.6006 123.981 22.0909 124.557 22.4439C125.133 22.7969 125.777 22.9734 126.49 22.9734Z" fill="white"/>
<path fill-rule="evenodd" clip-rule="evenodd" d="M108.187 33.1207C106.879 33.1207 105.679 32.9589 104.586 32.6353C103.503 32.3216 102.649 31.998 102.024 31.6646L103.547 28.0171C104.093 28.3505 104.728 28.6349 105.45 28.8702C106.181 29.1153 106.923 29.2379 107.675 29.2379C108.319 29.2379 108.987 29.13 109.68 28.9143C110.373 28.6986 110.964 28.3554 111.451 27.8848C111.94 27.424 112.184 26.8161 112.184 26.061V24.5315H112.113C111.827 24.8154 111.518 25.0752 111.188 25.3109C110.144 26.0463 108.953 26.414 107.616 26.414C106.787 26.414 105.962 26.2571 105.143 25.9434C104.323 25.6198 103.576 25.1344 102.902 24.4873C102.239 23.8304 101.707 23.0117 101.307 22.0312C100.907 21.0507 100.707 19.8986 100.707 18.5749C100.707 16.81 101.048 15.3442 101.731 14.1773C102.425 13.0007 103.313 12.1183 104.396 11.53C105.479 10.9319 106.606 10.6328 107.777 10.6328C109.134 10.6328 110.319 10.9809 111.334 11.6771C111.66 11.8984 111.963 12.1435 112.242 12.4124H112.33V10.8681H116.531V25.7963C116.531 27.0023 116.326 28.0613 115.917 28.9732C115.506 29.885 114.926 30.6498 114.175 31.2675C113.433 31.8852 112.554 32.3461 111.539 32.65C110.524 32.9638 109.407 33.1207 108.187 33.1207ZM108.758 22.6342C109.46 22.6342 110.08 22.4577 110.617 22.1047C111.154 21.7517 111.578 21.2615 111.891 20.634C112.203 19.9966 112.359 19.2613 112.359 18.4278C112.359 17.5846 112.208 16.8639 111.905 16.2658C111.603 15.6579 111.188 15.1921 110.661 14.8686C110.134 14.545 109.524 14.3833 108.831 14.3833C108.138 14.3833 107.519 14.5499 106.972 14.8833C106.426 15.2069 105.996 15.6726 105.684 16.2805C105.381 16.8884 105.23 17.6042 105.23 18.4278C105.23 19.2514 105.381 19.9819 105.684 20.6193C105.986 21.2468 106.401 21.7419 106.928 22.1047C107.455 22.4577 108.065 22.6342 108.758 22.6342Z" fill="white"/>
<path fill-rule="evenodd" clip-rule="evenodd" d="M91.3215 26.9444C89.8085 26.9444 88.4277 26.5963 87.1785 25.9002C85.9392 25.204 84.9488 24.2431 84.2071 23.0175C83.4753 21.7918 83.1094 20.3799 83.1094 18.7817C83.1094 17.1835 83.4753 15.7715 84.2071 14.5459C84.9488 13.3203 85.9392 12.3643 87.1785 11.6779C88.4277 10.9916 89.8085 10.6484 91.3215 10.6484C92.8632 10.6484 94.2539 10.9916 95.4932 11.6779C96.733 12.3643 97.7136 13.3203 98.4355 14.5459C99.1678 15.7715 99.5337 17.1835 99.5337 18.7817C99.5337 20.3799 99.1678 21.7918 98.4355 23.0175C97.7136 24.2431 96.7278 25.204 95.4786 25.9002C94.2394 26.5963 92.8533 26.9444 91.3215 26.9444ZM91.3215 22.9734C92.0434 22.9734 92.6925 22.7969 93.2681 22.4439C93.8443 22.0909 94.2977 21.6006 94.6297 20.9731C94.9613 20.3456 95.1273 19.6151 95.1273 18.7817C95.1273 17.9777 94.9665 17.2619 94.6443 16.6344C94.3221 16.0069 93.8781 15.5166 93.3124 15.1636C92.7461 14.8009 92.0924 14.6195 91.3507 14.6195C90.6189 14.6195 89.96 14.7959 89.3744 15.1489C88.7988 15.4921 88.3449 15.9775 88.0128 16.605C87.6813 17.2325 87.5153 17.9581 87.5153 18.7817C87.5153 19.6151 87.6813 20.3456 88.0128 20.9731C88.3548 21.6006 88.8133 22.0909 89.389 22.4439C89.9646 22.7969 90.609 22.9734 91.3215 22.9734Z" fill="white"/>
<path d="M70.6016 26.7063V5.02734H75.403V22.4117H83.1759V26.7063H70.6016Z" fill="white"/>
<path fill-rule="evenodd" clip-rule="evenodd" d="M143.75 34.4995V38.8477H143.619C143.428 38.6808 143.228 38.5239 143.018 38.3771C141.994 37.6515 140.813 37.2888 139.476 37.2888C138.295 37.2888 137.163 37.5976 136.08 38.2153C134.996 38.833 134.118 39.7498 133.445 40.9656C132.771 42.1815 132.449 43.6964 132.478 45.5103C132.459 46.883 132.644 48.0792 133.035 49.0989C133.425 50.1089 133.952 50.9472 134.616 51.6139C135.28 52.2807 136.021 52.7808 136.841 53.1139C137.661 53.4475 138.49 53.6144 139.329 53.6144C140.657 53.6144 141.847 53.2415 142.901 52.4963C143.429 52.118 143.902 51.6767 144.32 51.1727H144.465C144.574 51.4567 144.741 51.7263 144.965 51.9816C145.268 52.3049 145.668 52.604 146.165 52.8786C146.673 53.1437 147.288 53.3884 148.01 53.6144L149.635 49.7313C149.186 49.5647 148.864 49.3637 148.669 49.1283C148.474 48.893 148.376 48.4861 148.376 47.9076V31.8438L143.75 34.4995ZM142.228 49.1872C141.701 49.5402 141.096 49.7216 140.413 49.7313C139.739 49.7216 139.139 49.5402 138.612 49.1872C138.085 48.8342 137.675 48.3341 137.382 47.687C137.1 47.0398 136.963 46.2849 136.973 45.422C136.963 44.5396 137.109 43.7846 137.412 43.157C137.714 42.5197 138.129 42.0344 138.656 41.701C139.193 41.3578 139.808 41.1912 140.501 41.201C141.154 41.1912 141.74 41.3529 142.257 41.6863C142.775 42.0197 143.184 42.5051 143.487 43.1424C143.789 43.7699 143.946 44.5298 143.955 45.422C143.946 46.2849 143.789 47.0398 143.487 47.687C143.184 48.3341 142.765 48.8342 142.228 49.1872Z" fill="#D7D7D7"/>
<path d="M201.172 53.3773V37.5517H205.652V39.6255H205.722C205.846 39.4381 205.984 39.2616 206.135 39.096C206.681 38.5077 207.335 38.0665 208.096 37.7724C208.857 37.4684 209.672 37.3164 210.541 37.3164C211.595 37.3164 212.502 37.5615 213.264 38.0518C214.025 38.542 214.61 39.2137 215.02 40.0667C215.43 40.9197 215.635 41.9052 215.635 43.0229V53.3773H211.009V44.0377C211.009 43.0867 210.785 42.3758 210.336 41.9052C209.887 41.4247 209.277 41.1845 208.506 41.1845C207.999 41.1845 207.54 41.2973 207.13 41.5227C206.72 41.7385 206.393 42.062 206.149 42.4935C205.915 42.9151 205.798 43.4445 205.798 44.0819V53.3773H201.172Z" fill="#D7D7D7"/>
<path fill-rule="evenodd" clip-rule="evenodd" d="M191.666 53.6126C190.153 53.6126 188.772 53.2643 187.523 52.5683C186.284 51.872 185.293 50.9111 184.551 49.6855C183.82 48.4599 183.453 47.0479 183.453 45.4497C183.453 43.8515 183.82 42.4396 184.551 41.2139C185.293 39.9883 186.284 39.0323 187.523 38.3459C188.772 37.6596 190.153 37.3164 191.666 37.3164C193.207 37.3164 194.598 37.6596 195.837 38.3459C197.077 39.0323 198.058 39.9883 198.78 41.2139C199.512 42.4396 199.878 43.8515 199.878 45.4497C199.878 47.0479 199.512 48.4599 198.78 49.6855C198.058 50.9111 197.072 51.872 195.823 52.5683C194.584 53.2643 193.198 53.6126 191.666 53.6126ZM191.666 49.6413C192.388 49.6413 193.037 49.4648 193.612 49.1118C194.188 48.7589 194.642 48.2686 194.974 47.6411C195.306 47.0136 195.472 46.2831 195.472 45.4497C195.472 44.6457 195.311 43.9299 194.989 43.3024C194.666 42.6749 194.222 42.1846 193.657 41.8316C193.09 41.4688 192.437 41.2874 191.695 41.2874C190.963 41.2874 190.304 41.4639 189.719 41.8169C189.143 42.1601 188.689 42.6454 188.357 43.273C188.026 43.9005 187.86 44.6261 187.86 45.4497C187.86 46.2831 188.026 47.0136 188.357 47.6411C188.699 48.2686 189.158 48.7589 189.733 49.1118C190.309 49.4648 190.953 49.6413 191.666 49.6413Z" fill="#D7D7D7"/>
<path d="M177.473 53.3763V37.5508H182.098V53.3763H177.473Z" fill="#D7D7D7"/>
<path d="M177.792 34.9208C178.339 35.4699 179.008 35.7444 179.798 35.7444C180.588 35.7444 181.252 35.4699 181.789 34.9208C182.336 34.3717 182.609 33.705 182.609 32.9206C182.609 32.1166 182.336 31.445 181.789 30.9057C181.252 30.3566 180.588 30.082 179.798 30.082C179.008 30.082 178.339 30.3566 177.792 30.9057C177.246 31.445 176.973 32.1166 176.973 32.9206C176.973 33.705 177.246 34.3717 177.792 34.9208Z" fill="#D7D7D7"/>
<path d="M168.973 51.9944C169.919 53.0728 171.364 53.6124 173.306 53.6124C173.901 53.6124 174.487 53.558 175.062 53.4503C175.648 53.3426 176.16 53.181 176.6 52.965L175.106 49.3029C174.94 49.3911 174.75 49.4647 174.535 49.5235C174.32 49.5823 174.101 49.6118 173.877 49.6118C173.399 49.6118 172.993 49.4647 172.662 49.1705C172.34 48.8666 172.179 48.3763 172.179 47.6998V41.4049H175.824V37.5516H172.179V32.9922H167.553V37.5516H164.918V41.4049H167.553V47.8174C167.553 49.5137 168.026 50.906 168.973 51.9944Z" fill="#D7D7D7"/>
<path fill-rule="evenodd" clip-rule="evenodd" d="M152.82 52.9652C153.629 53.3966 154.566 53.6126 155.63 53.6126C156.86 53.6126 157.943 53.3673 158.88 52.8768C159.637 52.4846 160.192 52.0483 160.543 51.568H160.614C160.751 51.8033 160.934 52.0387 161.163 52.274C161.622 52.7445 162.305 53.132 163.213 53.4358L163.754 53.6126L165.379 49.7296L165.028 49.6119C164.687 49.504 164.447 49.3129 164.311 49.0383C164.184 48.754 164.12 48.3422 164.12 47.8029V43.0376C164.12 42.4689 164.052 41.8561 163.916 41.1992C163.789 40.5325 163.516 39.9099 163.096 39.3313C162.676 38.743 162.032 38.2626 161.163 37.89C160.295 37.5076 159.124 37.3164 157.65 37.3164C156.703 37.3164 155.816 37.3948 154.986 37.5517C154.166 37.6988 153.434 37.8851 152.79 38.1106C152.156 38.3361 151.643 38.5616 151.253 38.7872L152.79 42.2875C153.151 42.0522 153.581 41.8463 154.079 41.6698C154.576 41.4835 155.094 41.3414 155.63 41.2433C156.167 41.1355 156.67 41.0815 157.138 41.0815C157.548 41.0815 157.914 41.1305 158.236 41.2286C158.558 41.3169 158.831 41.4492 159.056 41.6257C159.28 41.8022 159.446 42.0179 159.553 42.2728C159.67 42.518 159.729 42.7925 159.729 43.0965V43.8907H156.757C155.391 43.8907 154.22 44.1015 153.244 44.5231C152.278 44.9447 151.536 45.5232 151.019 46.2586C150.511 46.994 150.258 47.8372 150.258 48.7883C150.258 49.6904 150.482 50.5042 150.931 51.2297C151.39 51.9553 152.019 52.5338 152.82 52.9652ZM157.313 46.8028H159.949V47.7882C159.949 48.3667 159.763 48.8275 159.392 49.1707C159.031 49.5139 158.602 49.759 158.104 49.9061C157.606 50.0531 157.172 50.1267 156.801 50.1267C156.401 50.1267 156.04 50.063 155.718 49.9355C155.406 49.7982 155.162 49.6119 154.986 49.3766C154.81 49.1315 154.723 48.8373 154.723 48.4942C154.723 47.9156 154.942 47.4891 155.381 47.2146C155.83 46.94 156.474 46.8028 157.313 46.8028Z" fill="#D7D7D7"/>
<path d="M116.953 53.3773V37.5517H121.432V39.6255H121.503C121.627 39.4381 121.764 39.2616 121.916 39.096C122.462 38.5077 123.116 38.0665 123.877 37.7724C124.639 37.4684 125.453 37.3164 126.322 37.3164C127.376 37.3164 128.283 37.5615 129.044 38.0518C129.806 38.542 130.391 39.2137 130.801 40.0667C131.211 40.9197 131.416 41.9052 131.416 43.0229V53.3773H126.79V44.0377C126.79 43.0867 126.566 42.3758 126.117 41.9052C125.668 41.4247 125.058 41.1845 124.287 41.1845C123.78 41.1845 123.321 41.2973 122.911 41.5227C122.501 41.7385 122.174 42.062 121.93 42.4935C121.696 42.9151 121.579 43.4445 121.579 44.0819V53.3773H116.953Z" fill="#D7D7D7"/>
<path d="M106.066 53.6117C104.983 53.6117 103.997 53.381 103.109 52.9203C102.221 52.4497 101.514 51.7632 100.986 50.8611C100.469 49.9493 100.211 48.8266 100.211 47.4931V37.5508H104.836V46.8754C104.836 47.7872 105.071 48.4834 105.539 48.9639C106.017 49.4345 106.598 49.6698 107.281 49.6698C107.789 49.6698 108.233 49.5571 108.613 49.3315C109.003 49.106 109.306 48.7874 109.521 48.3756C109.745 47.9539 109.858 47.4539 109.858 46.8754V37.5508H114.483V47.8314C114.483 48.4001 114.566 48.8119 114.732 49.0668C114.898 49.3218 115.235 49.5423 115.742 49.7287L114.103 53.6117C112.941 53.3073 112.092 52.9104 111.555 52.4199C111.285 52.1731 111.08 51.8888 110.941 51.5671H110.824C110.415 51.98 109.961 52.3477 109.463 52.6704C108.477 53.2979 107.345 53.6117 106.066 53.6117Z" fill="#D7D7D7"/>
<path fill-rule="evenodd" clip-rule="evenodd" d="M90.8064 53.6126C89.2934 53.6126 87.9126 53.2643 86.6634 52.5683C85.4241 51.872 84.4337 50.9111 83.692 49.6855C82.9602 48.4599 82.5938 47.0479 82.5938 45.4497C82.5938 43.8515 82.9602 42.4396 83.692 41.2139C84.4337 39.9883 85.4241 39.0323 86.6634 38.3459C87.9126 37.6596 89.2934 37.3164 90.8064 37.3164C92.3481 37.3164 93.7388 37.6596 94.9781 38.3459C96.2174 39.0323 97.1985 39.9883 97.9204 41.2139C98.6527 42.4396 99.0186 43.8515 99.0186 45.4497C99.0186 47.0479 98.6527 48.4599 97.9204 49.6855C97.1985 50.9111 96.2127 51.872 94.9635 52.5683C93.7243 53.2643 92.3382 53.6126 90.8064 53.6126ZM90.8064 49.6413C91.5283 49.6413 92.1774 49.4648 92.753 49.1118C93.3287 48.7589 93.7825 48.2686 94.1146 47.6411C94.4462 47.0136 94.6122 46.2831 94.6122 45.4497C94.6122 44.6457 94.4514 43.9299 94.1292 43.3024C93.807 42.6749 93.363 42.1846 92.7973 41.8316C92.231 41.4688 91.5773 41.2874 90.8356 41.2874C90.1038 41.2874 89.4449 41.4639 88.8593 41.8169C88.2837 42.1601 87.8298 42.6454 87.4977 43.273C87.1662 43.9005 87.0001 44.6261 87.0001 45.4497C87.0001 46.2831 87.1662 47.0136 87.4977 47.6411C87.8397 48.2686 88.2982 48.7589 88.8739 49.1118C89.4495 49.4648 90.0939 49.6413 90.8064 49.6413Z" fill="#D7D7D7"/>
<path d="M70.5664 53.3784V31.6992H83.1407V35.9938H75.3678V40.9797H81.838V45.2743H75.3678V53.3784H70.5664Z" fill="#D7D7D7"/>
<path d="M59.7848 26.418H52.3653C52.3622 26.7979 52.1399 27.1415 51.7993 27.3123L47.0187 29.7072C46.6779 29.8779 46.4603 30.2215 46.4336 30.6015H53.8529C53.8768 30.2214 54.0949 29.8779 54.4358 29.7072L59.2164 27.3123C59.5568 27.1416 59.7785 26.798 59.7848 26.418Z" fill="white"/>
<path d="M0.464844 30.6015H7.88437C7.88759 30.2215 8.10968 29.8779 8.4505 29.7072L13.2311 27.3123C13.5719 27.1415 13.7894 26.7979 13.8162 26.418H6.39667C6.3732 26.798 6.15501 27.1416 5.8142 27.3123L1.03364 29.7072C0.69281 29.8779 0.471373 30.2214 0.464844 30.6015Z" fill="white"/>
<path d="M18.2678 26.418C18.2376 26.7978 18.0207 27.1415 17.6798 27.3123L12.8993 29.7072C12.5584 29.8779 12.3356 30.2216 12.3359 30.6015H19.7651C19.7494 30.2224 19.9751 29.878 20.3161 29.7072L25.0967 27.3123C25.4377 27.1415 25.6517 26.797 25.6971 26.418H18.2678Z" fill="white"/>
<path d="M40.4827 26.418C40.4984 26.797 40.2727 27.1415 39.9317 27.3123L35.1511 29.7072C34.8101 29.878 34.5961 30.2224 34.5508 30.6015H41.98C42.0103 30.2216 42.2271 29.8779 42.568 29.7072L47.3485 27.3123C47.6894 27.1415 47.9122 26.7978 47.9119 26.418H40.4827Z" fill="white"/>
</g>
<defs>
<clipPath id="clip0_2343_18072">
<rect width="216" height="57" fill="white"/>
</clipPath>
</defs>
</svg>
