<svg width="40" height="40" viewBox="0 0 40 40" fill="none" xmlns="http://www.w3.org/2000/svg">
<g clip-path="url(#clip0_2337_9273)" filter="url(#filter0_d_2337_9273)">
<path d="M24.1941 18.2681L36.0019 15.9991L24.1941 13.73L28.2412 7.75689L22.2681 11.804L20.0009 0L17.7319 11.8078L11.7588 7.76068L15.8059 13.7338L4 16.0009L15.8078 18.27L11.7607 24.2431L17.7338 20.196L20.0028 32.0038L22.2719 20.196L28.245 24.2431L24.1979 18.27L24.1941 18.2681Z" fill="#D2A63C"/>
<path d="M21.325 4.18248C26.828 4.79476 31.2087 9.17554 31.821 14.6785L32.693 14.8454C32.1414 8.73766 27.2639 3.86212 21.1562 3.30859L21.3231 4.18058L21.325 4.18248Z" fill="#D2A63C"/>
<path d="M8.18052 14.6786C8.79281 9.1756 13.1736 4.79482 18.6766 4.18253L18.8434 3.31055C12.7357 3.86217 7.86016 8.73961 7.30664 14.8473L8.17863 14.6805L8.18052 14.6786Z" fill="#D2A63C"/>
<path d="M31.8211 17.325C31.2088 22.828 26.828 27.2087 21.325 27.821L21.1582 28.693C27.2659 28.1414 32.1414 23.2639 32.695 17.1562L31.823 17.3231L31.8211 17.325Z" fill="#D2A63C"/>
<path d="M18.6786 27.8211C13.1756 27.2088 8.79482 22.828 8.18253 17.325L7.31055 17.1582C7.86217 23.2659 12.7396 28.1414 18.8473 28.695L18.6805 27.823L18.6786 27.8211Z" fill="#D2A63C"/>
<path d="M27.1222 8.87695L22.5784 13.4227L22.3301 12.126L27.1222 8.87695Z" fill="url(#paint0_linear_2337_9273)"/>
<path d="M22.6777 13.7461L34.421 16.0019H20.4219L22.6777 13.7461Z" fill="#7F6028"/>
<path d="M12.877 8.87695L17.4227 13.4227L16.126 13.671L12.877 8.87695Z" fill="url(#paint1_linear_2337_9273)"/>
<path d="M12.877 23.1219L17.4227 18.5781L17.671 19.8747L12.877 23.1219Z" fill="url(#paint2_linear_2337_9273)"/>
<path d="M17.3216 18.2558L5.58008 16H19.5774L17.3216 18.2558Z" fill="url(#paint3_linear_2337_9273)"/>
<path d="M17.7461 13.3216L20.0019 1.58008V15.5774L17.7461 13.3216Z" fill="url(#paint4_linear_2337_9273)"/>
<path d="M20 16.4219L22.2558 18.6777L20 30.421V16.4219Z" fill="url(#paint5_linear_2337_9273)"/>
<path d="M22.5781 18.5784L23.8747 18.3301L27.1219 23.1222L22.5781 18.5784Z" fill="url(#paint6_linear_2337_9273)"/>
</g>
<defs>
<filter id="filter0_d_2337_9273" x="0" y="0" width="40" height="40" filterUnits="userSpaceOnUse" color-interpolation-filters="sRGB">
<feFlood flood-opacity="0" result="BackgroundImageFix"/>
<feColorMatrix in="SourceAlpha" type="matrix" values="0 0 0 0 0 0 0 0 0 0 0 0 0 0 0 0 0 0 127 0" result="hardAlpha"/>
<feOffset dy="4"/>
<feGaussianBlur stdDeviation="2"/>
<feComposite in2="hardAlpha" operator="out"/>
<feColorMatrix type="matrix" values="0 0 0 0 0 0 0 0 0 0 0 0 0 0 0 0 0 0 0.25 0"/>
<feBlend mode="normal" in2="BackgroundImageFix" result="effect1_dropShadow_2337_9273"/>
<feBlend mode="normal" in="SourceGraphic" in2="effect1_dropShadow_2337_9273" result="shape"/>
</filter>
<linearGradient id="paint0_linear_2337_9273" x1="20.4098" y1="11.1498" x2="24.8456" y2="11.1498" gradientUnits="userSpaceOnUse">
<stop stop-color="#553D10"/>
<stop offset="1" stop-color="#7E5C1F"/>
</linearGradient>
<linearGradient id="paint1_linear_2337_9273" x1="12.877" y1="11.2749" x2="17.4227" y2="11.2749" gradientUnits="userSpaceOnUse">
<stop stop-color="#553D10"/>
<stop offset="1" stop-color="#7E5C1F"/>
</linearGradient>
<linearGradient id="paint2_linear_2337_9273" x1="12.877" y1="20.851" x2="17.671" y2="20.851" gradientUnits="userSpaceOnUse">
<stop stop-color="#553D10"/>
<stop offset="1" stop-color="#7E5C1F"/>
</linearGradient>
<linearGradient id="paint3_linear_2337_9273" x1="12.3892" y1="16.1896" x2="14.2943" y2="14.2845" gradientUnits="userSpaceOnUse">
<stop stop-color="#553D10"/>
<stop offset="1" stop-color="#7E5C1F"/>
</linearGradient>
<linearGradient id="paint4_linear_2337_9273" x1="17.7461" y1="8.57872" x2="20.0019" y2="8.57872" gradientUnits="userSpaceOnUse">
<stop stop-color="#553D10"/>
<stop offset="1" stop-color="#7E5C1F"/>
</linearGradient>
<linearGradient id="paint5_linear_2337_9273" x1="17.113" y1="20.5354" x2="22.0814" y2="25.5038" gradientUnits="userSpaceOnUse">
<stop stop-color="#7E5C1F"/>
<stop offset="1" stop-color="#553D10"/>
</linearGradient>
<linearGradient id="paint6_linear_2337_9273" x1="22.5781" y1="20.7261" x2="27.1219" y2="20.7261" gradientUnits="userSpaceOnUse">
<stop stop-color="#7E5C1F"/>
<stop offset="1" stop-color="#553D10"/>
</linearGradient>
<clipPath id="clip0_2337_9273">
<rect width="32" height="32" fill="white" transform="translate(4)"/>
</clipPath>
</defs>
</svg>
