<svg width="216" height="57" viewBox="0 0 216 57" fill="none" xmlns="http://www.w3.org/2000/svg">
<path d="M49.9437 19.9492C50.5328 19.9492 50.7291 20.1609 50.7291 20.7309V33.6292H57.3891C57.9619 33.6292 58.1746 33.8409 58.1746 34.4109V35.5509C58.1746 36.1209 57.9619 36.3326 57.3891 36.3326H48.6182C48.0455 36.3326 47.8164 36.1209 47.8164 35.5509V20.7309C47.8164 20.1609 48.0455 19.9492 48.6182 19.9492H49.9437Z" fill="white"/>
<path d="M63.9805 25.6351C63.9805 21.8731 66.3696 19.6094 70.5259 19.6094C74.6823 19.6094 77.0714 21.8731 77.0714 25.6351V30.6511C77.0714 34.4131 74.6659 36.6768 70.5259 36.6768C66.3859 36.6768 63.9805 34.4131 63.9805 30.6511V25.6351ZM74.3223 25.6351C74.3223 23.5179 72.9968 22.3779 70.6077 22.3779C68.2187 22.3779 66.9096 23.5342 66.9096 25.6351V30.6837C66.9096 32.8171 68.2187 33.9408 70.6077 33.9408C72.9968 33.9408 74.3223 32.7682 74.3223 30.6837V25.6351Z" fill="white"/>
<path d="M96.5599 27.3601C97.1981 27.3601 97.3453 27.5718 97.3453 28.1418V31.2361C97.3627 31.9649 97.2159 32.6885 96.9158 33.3534C96.6155 34.0185 96.1698 34.6082 95.6108 35.0795C94.2227 36.1796 92.4724 36.7254 90.7017 36.6104C86.4635 36.6104 84.1562 34.3467 84.1562 30.5847V25.5361C84.1562 21.823 86.5453 19.543 90.7017 19.543C93.9744 19.543 96.1017 20.8295 97.0017 23.4027C97.0521 23.4994 97.0791 23.6064 97.0806 23.7152C97.0821 23.8242 97.058 23.932 97.0104 24.0298C96.9628 24.1279 96.8927 24.2135 96.806 24.28C96.7193 24.3463 96.6181 24.3917 96.5108 24.4124L95.2344 24.8521C94.6781 25.0475 94.449 24.9335 94.2526 24.3635C93.9815 23.668 93.4852 23.082 92.8421 22.6987C92.199 22.3153 91.4459 22.156 90.7017 22.2464C88.2962 22.2464 86.9872 23.4027 86.9872 25.5035V30.6824C86.9872 32.8158 88.3126 33.9395 90.7017 33.9395C93.0908 33.9395 94.5635 32.8484 94.5635 31.2524V30.0473H91.0126C90.4235 30.0473 90.2108 29.8193 90.2108 29.2493V28.1418C90.2108 27.5718 90.4235 27.3601 91.0126 27.3601H96.5599Z" fill="white"/>
<path d="M104.105 25.6351C104.105 21.8731 106.495 19.6094 110.651 19.6094C114.807 19.6094 117.196 21.8731 117.196 25.6351V30.6511C117.196 34.4131 114.791 36.6768 110.651 36.6768C106.511 36.6768 104.105 34.4131 104.105 30.6511V25.6351ZM114.431 25.6351C114.431 23.5179 113.105 22.3779 110.733 22.3779C108.36 22.3779 107.018 23.5342 107.018 25.6351V30.6837C107.018 32.8171 108.344 33.9408 110.733 33.9408C113.122 33.9408 114.431 32.7682 114.431 30.6837V25.6351Z" fill="white"/>
<path d="M124.902 20.4215C124.902 20.0632 125.017 19.9492 125.377 19.9492H126.13C126.49 19.9492 126.571 20.0632 126.571 20.4215V35.8604C126.571 36.2186 126.571 36.3326 126.13 36.3326H125.377C125.017 36.3326 124.902 36.2186 124.902 35.8604V20.4215Z" fill="white"/>
<path d="M141.481 19.9492C142.843 19.9492 144.15 20.4879 145.114 21.447C146.077 22.4059 146.619 23.7067 146.619 25.0629C146.619 26.4192 146.077 27.7199 145.114 28.6789C144.15 29.6379 142.843 30.1766 141.481 30.1766H136.571V35.8604C136.571 36.2186 136.49 36.3326 136.146 36.3326H135.377C135.033 36.3326 134.902 36.2186 134.902 35.8604V20.4215C134.902 20.0632 135.033 19.9492 135.377 19.9492H141.481ZM141.333 28.5644C141.802 28.5644 142.266 28.4725 142.698 28.2942C143.131 28.1157 143.525 27.8541 143.856 27.5245C144.187 27.1949 144.45 26.8034 144.629 26.3728C144.808 25.942 144.901 25.4803 144.901 25.0141C144.901 24.5478 144.808 24.0861 144.629 23.6554C144.45 23.2248 144.187 22.8333 143.856 22.5036C143.525 22.174 143.131 21.9125 142.698 21.734C142.266 21.5556 141.802 21.4638 141.333 21.4638H136.424V28.5644H141.333Z" fill="white"/>
<path d="M159.398 19.6253C160.661 19.4866 161.936 19.7571 163.032 20.3966C164.128 21.0363 164.989 22.0109 165.485 23.1756C165.616 23.4362 165.485 23.6479 165.223 23.7782L164.503 24.1039C164.209 24.2179 164.094 24.2016 163.914 23.8922C163.543 23.0277 162.906 22.303 162.094 21.8229C161.282 21.3428 160.338 21.1321 159.398 21.2213C156.632 21.2213 155.127 22.3125 155.127 24.2668C155.111 24.8639 155.312 25.447 155.694 25.9079C156.076 26.3687 156.613 26.6767 157.205 26.7748C158.085 27.0604 158.998 27.2355 159.921 27.2959C161.039 27.3552 162.142 27.5802 163.194 27.9636C164.001 28.2175 164.695 28.7396 165.159 29.4425C165.624 30.1454 165.832 30.9861 165.747 31.8233C165.747 34.8688 163.521 36.709 159.43 36.709C158.089 36.8618 156.735 36.5524 155.594 35.8322C154.454 35.1122 153.596 34.0248 153.163 32.7516C153.134 32.6936 153.119 32.63 153.117 32.5651C153.116 32.5003 153.129 32.4362 153.156 32.377C153.182 32.3179 153.222 32.2653 153.271 32.2231C153.32 32.1808 153.378 32.15 153.441 32.1328L154.161 31.8722C154.218 31.8491 154.279 31.838 154.34 31.8396C154.401 31.8412 154.462 31.8556 154.517 31.8816C154.572 31.9077 154.622 31.9448 154.662 31.9909C154.702 32.037 154.732 32.0907 154.75 32.149C155.116 33.069 155.767 33.8491 156.609 34.3763C157.45 34.9033 158.439 35.15 159.43 35.0805C162.523 35.0805 164.045 34.0056 164.045 31.8233C164.074 31.2497 163.898 30.6845 163.546 30.2281C163.196 29.772 162.694 29.4542 162.13 29.3316C161.284 29.0803 160.411 28.9272 159.529 28.8756L157.761 28.6476C157.208 28.5308 156.662 28.3839 156.125 28.2079C155.594 28.0485 155.1 27.7885 154.669 27.4425C154.234 27.0513 153.892 26.5699 153.666 26.0323C153.44 25.4947 153.335 24.9143 153.359 24.3319C153.474 21.4819 155.618 19.6253 159.398 19.6253Z" fill="white"/>
<path d="M174.568 30.7629C174.637 31.9147 175.146 32.9965 175.99 33.7875C176.835 34.5785 177.951 35.0189 179.109 35.0189C180.268 35.0189 181.384 34.5785 182.228 33.7875C183.072 32.9965 183.58 31.9147 183.65 30.7629V20.4215C183.65 20.0632 183.765 19.9492 184.125 19.9492H184.877C185.237 19.9492 185.352 20.0632 185.352 20.4215V30.7466C185.352 34.4435 183.159 36.6746 179.117 36.6746C175.076 36.6746 172.883 34.4435 172.883 30.7466V20.4215C172.883 20.0632 172.997 19.9492 173.341 19.9492H174.11C174.454 19.9492 174.568 20.0632 174.568 20.4215V30.7629Z" fill="white"/>
<path d="M207.933 19.9481C208.293 19.9481 208.408 20.0621 208.408 20.4204V35.8592C208.408 36.2175 208.293 36.3315 207.933 36.3315H207.246C206.903 36.3315 206.788 36.2175 206.788 35.8592V26.4624C206.788 25.0952 206.881 23.7295 207.066 22.3747H206.968C206.457 23.6135 205.86 24.8161 205.184 25.9738L201.666 32.1461C201.624 32.2533 201.548 32.3448 201.452 32.4088C201.355 32.4726 201.242 32.506 201.126 32.5044H200.668C200.55 32.505 200.436 32.4713 200.336 32.4078C200.238 32.3441 200.159 32.2533 200.112 32.1461L196.544 25.9087C195.911 24.7675 195.365 23.5808 194.908 22.3584H194.81C194.977 23.7256 195.065 25.1014 195.072 26.4787V35.8592C195.072 36.2175 194.957 36.3315 194.597 36.3315H193.959C193.599 36.3315 193.484 36.2175 193.484 35.8592V20.4204C193.484 20.0621 193.599 19.9481 193.959 19.9481H194.548C194.682 19.9357 194.818 19.9649 194.934 20.032C195.052 20.0991 195.145 20.2007 195.203 20.3227L200.93 30.4524L206.624 20.4204C206.804 20.0784 206.903 20.0295 207.263 20.0295L207.933 19.9481Z" fill="white"/>
<path d="M20.8323 33.859V45.6336C20.8323 46.085 20.6522 46.5179 20.3314 46.8369C20.0109 47.1561 19.5759 47.3354 19.1223 47.3354C18.6689 47.3354 18.2339 47.1561 17.9132 46.8369C17.5925 46.5179 17.4123 46.085 17.4123 45.6336V33.8753C17.8885 34.2214 18.4593 34.4145 19.0487 34.429C19.6911 34.4472 20.3206 34.2461 20.8323 33.859ZM35.396 30.4553C34.962 30.4553 34.5457 30.6269 34.2389 30.9323C33.9321 31.2377 33.7596 31.652 33.7596 32.0839V34.1359C33.7596 34.5873 33.9398 35.0202 34.2605 35.3392C34.5811 35.6584 35.016 35.8377 35.4696 35.8377C35.9232 35.8377 36.3581 35.6584 36.6787 35.3392C36.9994 35.0202 37.1796 34.5873 37.1796 34.1359V32.1653C37.1924 31.9318 37.1544 31.6982 37.0683 31.4806C36.9823 31.2631 36.8502 31.0663 36.6808 30.9041C36.5116 30.7419 36.3092 30.6178 36.0877 30.5403C35.8659 30.4629 35.63 30.434 35.396 30.4553ZM13.6978 38.3213C13.109 38.3037 12.539 38.1109 12.0614 37.7676V49.5747C12.0614 50.0283 12.2424 50.4633 12.5647 50.7839C12.8869 51.1046 13.3239 51.2847 13.7796 51.2847C14.2353 51.2847 14.6723 51.1046 14.9945 50.7839C15.3168 50.4633 15.4978 50.0283 15.4978 49.5747V37.849C14.9634 38.1928 14.333 38.3583 13.6978 38.3213ZM30.0614 26.9213C29.8397 26.9102 29.6181 26.9443 29.41 27.0211C29.202 27.098 29.0119 27.2162 28.851 27.3685C28.6903 27.5209 28.5625 27.7041 28.4751 27.9072C28.3879 28.1103 28.3429 28.329 28.3432 28.5499V37.621C28.3432 38.0746 28.5242 38.5096 28.8464 38.8302C29.1688 39.1509 29.6057 39.331 30.0614 39.331C30.5171 39.331 30.9542 39.1509 31.2764 38.8302C31.5986 38.5096 31.7796 38.0746 31.7796 37.621V28.6639C31.7927 28.4289 31.7544 28.1939 31.6673 27.975C31.5803 27.7561 31.4468 27.5586 31.2756 27.396C31.1044 27.2335 30.9001 27.1097 30.6764 27.0335C30.4527 26.9571 30.2149 26.9299 29.9796 26.9539L30.0614 26.9213ZM24.6287 30.4064C24.0123 30.4022 23.4124 30.2089 22.9105 29.8527V41.6924C22.9105 42.146 23.0915 42.581 23.4137 42.9016C23.7361 43.2223 24.173 43.4024 24.6287 43.4024C25.0844 43.4024 25.5213 43.2223 25.8437 42.9016C26.1659 42.581 26.3469 42.146 26.3469 41.6924V29.869C25.8278 30.2538 25.1941 30.4545 24.5469 30.439L24.6287 30.4064ZM9.98324 39.4776V6.40129C9.97893 5.9981 9.81497 5.61292 9.52697 5.32933C9.23897 5.04575 8.85019 4.8867 8.44506 4.88672H8.08506C7.67993 4.8867 7.29114 5.04575 7.00314 5.32933C6.71514 5.61292 6.55118 5.9981 6.54688 6.40129V39.4776C6.54688 39.8836 6.70894 40.273 6.9974 40.5601C7.28586 40.8472 7.67711 41.0084 8.08506 41.0084H8.44506C8.85302 41.0084 9.24426 40.8472 9.53271 40.5601C9.82119 40.273 9.98324 39.8836 9.98324 39.4776ZM13.8778 37.0673H13.5178C13.1098 37.0673 12.7186 36.9061 12.4301 36.6189C12.1417 36.3318 11.9796 35.9424 11.9796 35.5364V10.3424C11.9839 9.93926 12.1479 9.55404 12.4359 9.27047C12.7239 8.98689 13.1127 8.82785 13.5178 8.82786H13.8778C14.2829 8.82785 14.6717 8.98689 14.9597 9.27047C15.2477 9.55404 15.4117 9.93926 15.416 10.3424V35.569C15.416 35.975 15.2539 36.3644 14.9654 36.6515C14.677 36.9386 14.2857 37.0999 13.8778 37.0999V37.0673ZM19.2941 33.1913H18.9178C18.5143 33.1913 18.1271 33.0317 17.8417 32.7477C17.5563 32.4636 17.396 32.0785 17.396 31.6767V14.251C17.3938 14.0507 17.4316 13.852 17.5071 13.6664C17.5825 13.4808 17.6943 13.3119 17.8358 13.1695C17.9774 13.0271 18.1459 12.9141 18.3316 12.837C18.5174 12.7599 18.7165 12.7201 18.9178 12.7201H19.2941C19.6993 12.7244 20.0863 12.8876 20.3712 13.1742C20.6563 13.4609 20.816 13.8478 20.816 14.251V31.6767C20.816 32.0785 20.6556 32.4636 20.3702 32.7477C20.0848 33.0317 19.6978 33.1913 19.2941 33.1913ZM24.7105 29.2013H24.3669C23.9617 29.2013 23.5729 29.0423 23.2849 28.7586C22.9969 28.4751 22.8329 28.09 22.8287 27.6867V18.3061C22.8153 18.097 22.8451 17.8874 22.9164 17.6902C22.9876 17.4932 23.0989 17.3126 23.243 17.16C23.3872 17.0072 23.5613 16.8857 23.7547 16.8027C23.948 16.7198 24.1563 16.6771 24.3669 16.6776H24.7269C25.1348 16.6776 25.5261 16.8388 25.8146 17.1259C26.1031 17.413 26.2651 17.8024 26.2651 18.2084V27.6541C26.2672 27.8566 26.2291 28.0574 26.1526 28.245C26.0764 28.4326 25.9635 28.6033 25.8203 28.7472C25.6773 28.891 25.5071 29.0052 25.3192 29.0832C25.1315 29.1612 24.9303 29.2013 24.7269 29.2013H24.7105ZM30.1432 25.6999H29.7832C29.3753 25.6999 28.984 25.5386 28.6955 25.2515C28.4071 24.9644 28.2451 24.575 28.2451 24.169V21.7424C28.2493 21.3392 28.4133 20.954 28.7013 20.6705C28.9893 20.3868 29.3781 20.2279 29.7832 20.2279H30.1432C30.5484 20.2279 30.9372 20.3868 31.2252 20.6705C31.5132 20.954 31.6772 21.3392 31.6814 21.7424V24.169C31.6814 24.5722 31.5217 24.9592 31.2367 25.2458C30.9518 25.5324 30.5648 25.6956 30.1596 25.6999H30.1432Z" fill="white"/>
</svg>
