<svg width="212" height="37" viewBox="0 0 212 37" fill="none" xmlns="http://www.w3.org/2000/svg">
<g clip-path="url(#clip0_2344_18172)">
<path d="M81.564 11.5C81.564 18.3761 81.564 21.0906 72.4453 21.0906C81.564 21.0906 81.564 23.8049 81.564 30.6812C81.564 23.8458 81.564 21.0906 90.5398 21.0906C81.564 21.0906 81.564 18.3353 81.564 11.5Z" fill="white"/>
<path fill-rule="evenodd" clip-rule="evenodd" d="M36.6026 36.4291C33.4489 36.4291 30.6764 35.7983 28.2849 34.5364C25.9197 33.2482 24.067 31.4606 22.7268 29.1734C22.5109 28.7933 22.3127 28.4029 22.1323 28.0023L21.0732 35.877H0.0625V35.4829H0.101956C1.04799 35.4829 1.81012 35.233 2.38826 34.7336C2.9664 34.2341 3.25546 33.5112 3.25546 32.5647V9.85105C3.25546 8.90476 2.9664 8.14229 2.38826 7.56396C1.81012 6.98562 1.04799 6.69645 0.101956 6.69645H0.0625V6.30209H12.6374V6.69645H12.4798C11.5336 6.69645 10.7715 6.98562 10.1934 7.56396C9.61523 8.14229 9.32619 8.90476 9.32619 9.85105V32.7225C9.32619 33.5637 9.5233 34.221 9.91744 34.6941C10.3379 35.141 11.0606 35.3644 12.0855 35.3644H12.9133C15.2523 35.3644 17.2232 34.6416 18.8263 33.1956C20.3899 31.7854 21.3909 29.8126 21.8294 27.2771C21.1136 25.4222 20.7558 23.3597 20.7558 21.0897C20.7558 18.0138 21.4127 15.3324 22.7268 13.0451C24.067 10.7317 25.9197 8.94407 28.2849 7.68219C30.6764 6.39407 33.4489 5.75 36.6026 5.75C39.6802 5.75 42.3822 6.36346 44.709 7.59021C47.1908 6.36346 50.0731 5.75 53.356 5.75C54.3809 5.75 55.2218 5.78947 55.8788 5.86825C56.562 5.92093 57.1666 5.98666 57.692 6.06543C58.2177 6.14437 58.7959 6.22314 59.4266 6.30209C60.0836 6.3546 60.8983 6.38086 61.8706 6.38086L63.0532 14.2677H62.659C62.1859 11.7702 61.1217 9.81162 59.4661 8.39199C57.8367 6.97241 55.7999 6.26261 53.356 6.26261C51.858 6.26261 50.4914 6.61751 49.2563 7.3273C48.4426 7.79492 47.7087 8.38229 47.0548 9.08958C46.7504 9.41851 46.4634 9.77362 46.1936 10.1546C46.1632 10.1976 46.1329 10.2409 46.103 10.2847C45.8494 10.6612 45.6116 11.0602 45.3895 11.4819C45.0972 12.0366 44.832 12.631 44.5943 13.2635C44.4959 13.5246 44.4023 13.7925 44.3133 14.0672C44.2216 14.3503 44.1347 14.6407 44.0529 14.938C43.5798 16.7519 43.3433 18.7631 43.3433 20.9713C43.3433 23.0068 43.5286 24.8786 43.8994 26.5871L43.2729 28.4483C42.9451 29.4223 42.5526 30.2745 42.1017 31.0127C41.8243 31.4508 41.5304 31.844 41.2215 32.1951L41.192 32.2287C40.2163 31.3397 39.3828 30.3213 38.6918 29.1734C37.2989 26.86 36.6026 24.139 36.6026 21.0107C36.6026 17.9612 37.2989 15.2929 38.6918 13.0058C39.6427 11.444 40.8511 10.1215 42.3167 9.03786C41.7243 8.35001 41.0679 7.77987 40.3474 7.3273C39.2174 6.61751 37.969 6.26261 36.6026 6.26261C35.2359 6.26261 33.9877 6.61751 32.8576 7.3273C31.7276 8.0371 30.7684 9.03606 29.98 10.3244C29.1653 11.6125 28.5346 13.1765 28.0878 15.0168C27.6673 16.8307 27.4571 18.8419 27.4571 21.0501C27.4571 23.2585 27.6673 25.2695 28.0878 27.0834C28.5346 28.8974 29.1653 30.4484 29.98 31.7366C30.7684 33.0249 31.7276 34.0238 32.8576 34.7336C33.9877 35.4434 35.2359 35.7983 36.6026 35.7983C37.969 35.7983 39.2174 35.4434 40.3474 34.7336C41.4774 34.0238 42.4498 33.0249 43.2644 31.7366C44.0529 30.4484 44.6572 28.8974 45.0777 27.0834C45.5245 25.2695 45.7479 23.2585 45.7479 21.0501C45.7479 19.0536 45.5653 17.2181 45.2 15.5439L45.8763 13.7451C46.2613 12.7212 46.7162 11.8274 47.2353 11.0554C47.374 10.8538 47.5172 10.6615 47.665 10.4781C47.7934 10.3185 47.9252 10.1658 48.0604 10.0196L48.09 9.99472C49.0051 10.8826 49.788 11.8993 50.4389 13.0451C51.7791 15.3324 52.4492 18.0138 52.4492 21.0897C52.4492 24.1654 51.7791 26.86 50.4389 29.1734C49.548 30.724 48.4095 32.0451 47.0234 33.1366C47.6054 33.7737 48.2445 34.3061 48.941 34.7336C50.1236 35.4434 51.4375 35.7983 52.8829 35.7983C53.9604 35.7983 54.9853 35.6143 55.9577 35.2462C56.9563 34.8781 57.7184 34.4182 58.244 33.866V23.8106C58.244 22.8641 57.9549 22.1017 57.3768 21.5233C56.7986 20.945 56.0365 20.6558 55.0904 20.6558H54.9722V20.2614H65.7309C65.8394 17.53 66.491 15.1246 67.6857 13.0451C69.0259 10.7317 70.8787 8.94407 73.2438 7.68219C75.6354 6.39407 78.4079 5.75 81.5615 5.75C84.715 5.75 87.4744 6.39407 89.8396 7.68219C92.2308 8.94407 94.0838 10.7317 95.3982 13.0451C96.2615 14.5187 96.847 16.156 97.1537 17.9569V9.85105C97.1537 8.90476 96.8651 8.14229 96.2868 7.56396C95.7085 6.98562 94.9462 6.69645 93.9999 6.69645H93.9611V6.30209H117.679C119.702 6.32834 121.463 6.68324 122.961 7.36677C124.485 8.02405 125.667 8.94407 126.509 10.1272C126.826 10.5588 127.084 11.0187 127.285 11.5066C127.608 9.98371 128.393 8.73518 129.638 7.76114C131.347 6.42032 133.594 5.75 136.379 5.75C137.063 5.75 137.615 5.77626 138.035 5.82895C138.213 5.84985 138.386 5.87276 138.556 5.89785C138.812 5.93581 139.059 5.97846 139.297 6.02596C139.717 6.1049 140.203 6.17063 140.755 6.22314C141.307 6.27582 142.017 6.30209 142.883 6.30209H155.336V6.69645H155.218C154.272 6.69645 153.511 6.98562 152.932 7.56396C152.354 8.14229 152.064 8.90476 152.064 9.85105V25.5061C152.064 28.2928 152.774 30.5011 154.193 32.1309C155.639 33.7346 157.584 34.5364 160.028 34.5364C162.498 34.5364 164.443 33.7214 165.862 32.0916C167.281 30.4353 167.991 28.2402 167.991 25.5061V10.4426C167.991 9.31221 167.649 8.41841 166.966 7.76114C166.282 7.10386 165.375 6.74896 164.246 6.69645V6.30209H177.255L186.874 28.5819L196.492 6.30209H203.864V6.69645C203.023 6.69645 202.313 6.94615 201.735 7.44571C201.156 7.94511 200.894 8.62864 200.946 9.49612L202.957 32.8407C203.088 33.7346 203.508 34.405 204.218 34.8519C204.954 35.2988 205.677 35.5222 206.386 35.5222V35.877H194.166V35.5222C194.613 35.5222 195.072 35.4172 195.546 35.2067C196.019 34.9965 196.4 34.6941 196.689 34.2998C197.005 33.9054 197.123 33.4454 197.044 32.9197L195.112 11.1524L184.154 36.4291L173.116 11.1129L171.264 31.855C171.158 32.9064 171.46 33.7609 172.17 34.4182C172.879 35.0753 173.747 35.4301 174.772 35.4829V35.877H166.888V35.4829C167.886 35.4301 168.728 35.0622 169.411 34.3787C170.094 33.6951 170.488 32.8407 170.593 31.8155L172.564 10.0088C172.065 8.98354 171.434 8.18177 170.672 7.60343C170.542 7.49655 170.406 7.39922 170.261 7.31125C170.055 7.44103 169.863 7.59088 169.686 7.76114C169.002 8.41841 168.661 9.31221 168.661 10.4426V25.5061C168.661 27.7145 168.201 29.6336 167.281 31.2634C166.388 32.8934 165.087 34.1683 163.378 35.0885C161.696 35.9823 159.686 36.4291 157.347 36.4291C155.034 36.4291 153.024 35.9823 151.316 35.0885C149.608 34.1945 148.28 32.9326 147.335 31.3028C146.414 29.6466 145.954 27.7145 145.954 25.5061V9.85105C145.954 8.90476 145.666 8.14229 145.087 7.56396C144.53 7.00652 143.802 6.71786 142.903 6.69762L143.278 14.2677H142.883C142.516 11.8227 141.728 9.89049 140.519 8.47093C139.309 7.05134 137.851 6.34155 136.143 6.34155C134.934 6.34155 133.961 6.69645 133.226 7.40624C132.516 8.11603 132.162 9.0625 132.162 10.2454C132.162 11.2706 132.49 12.2565 133.147 13.203C133.831 14.123 135 15.2009 136.655 16.4365L138.35 17.6984C140.085 18.9603 141.452 20.13 142.45 21.2079C143.475 22.2594 144.211 23.2848 144.658 24.2837C145.105 25.2827 145.328 26.3474 145.328 27.4778C145.328 29.2128 144.894 30.7508 144.026 32.0914C143.16 33.4322 141.951 34.4838 140.4 35.2462C138.876 35.9823 137.076 36.3766 135 36.4291C134.317 36.4291 133.751 36.4029 133.305 36.3504C132.884 36.2977 132.464 36.232 132.044 36.1532C131.623 36.0742 131.111 36.0085 130.506 35.956C129.902 35.9035 129.074 35.877 128.023 35.877L126.642 25.6243H127.116C127.51 28.8579 128.403 31.3554 129.796 33.1168C131.215 34.8519 133.029 35.7194 135.236 35.7194C136.865 35.7194 138.192 35.2594 139.218 34.3392C140.243 33.4191 140.755 32.2229 140.755 30.7508C140.755 30.1197 140.637 29.5152 140.4 28.9368C140.19 28.3585 139.823 27.7407 139.297 27.0834C138.771 26.4263 138.074 25.7165 137.207 24.954C136.34 24.1655 135.262 23.2848 133.975 22.312L132.358 21.0897C130.388 19.5912 129.021 18.2503 128.259 17.0674C128.018 16.6938 127.815 16.3096 127.651 15.9149C127.453 16.8689 127.073 17.7394 126.509 18.5265C125.667 19.7094 124.458 20.6428 122.882 21.3261C121.332 21.9834 119.492 22.312 117.363 22.312H113.737V32.3281C113.737 33.2745 114.025 34.0369 114.604 34.6152C115.182 35.1937 115.944 35.4829 116.89 35.4829H116.969V35.877H93.9611V35.4829H93.9999C94.9462 35.4829 95.7085 35.1937 96.2868 34.6152C96.8651 34.0369 97.1537 33.2745 97.1537 32.3281V24.2274C96.847 26.0343 96.2615 27.683 95.3982 29.1734C94.0838 31.4606 92.2308 33.2482 89.8396 34.5364C87.4744 35.7983 84.715 36.4291 81.5615 36.4291C78.4079 36.4291 75.6354 35.7983 73.2438 34.5364C70.8787 33.2482 69.0259 31.4606 67.6857 29.1734C66.3771 26.8695 65.7201 24.1877 65.7147 21.1276C65.5376 21.2397 65.373 21.3715 65.2213 21.5233C64.6431 22.1017 64.3541 22.8641 64.3541 23.8106V33.866C63.8285 34.3917 62.9875 34.8519 61.8312 35.2462C60.7012 35.6143 59.4135 35.9035 57.968 36.1137C56.549 36.3241 55.1298 36.4291 53.7108 36.4291C50.2804 36.4291 47.293 35.8215 44.7486 34.6059C42.4129 35.8215 39.6975 36.4291 36.6026 36.4291ZM85.3064 34.7336C84.1764 35.4434 82.928 35.7983 81.5615 35.7983C80.1949 35.7983 78.9466 35.4434 77.8165 34.7336C76.6865 34.0238 75.7274 33.0249 74.9389 31.7366C74.1243 30.4484 73.4935 28.8974 73.0467 27.0834C72.6263 25.2695 72.416 23.2585 72.416 21.0501C72.416 18.8419 72.6263 16.8307 73.0467 15.0168C73.4935 13.1765 74.1243 11.6125 74.9389 10.3244C75.7274 9.03606 76.6865 8.0371 77.8165 7.3273C78.9466 6.61751 80.1949 6.26261 81.5615 6.26261C82.928 6.26261 84.1764 6.61751 85.3064 7.3273C86.4364 8.0371 87.4088 9.03606 88.2234 10.3244C89.0118 11.6125 89.6162 13.1765 90.0367 15.0168C90.4834 16.8307 90.7071 18.8419 90.7071 21.0501C90.7071 23.2585 90.4834 25.2695 90.0367 27.0834C89.6162 28.8974 89.0118 30.4484 88.2234 31.7366C87.4088 33.0249 86.4364 34.0238 85.3064 34.7336ZM106.798 34.6152C106.429 34.9848 105.985 35.2363 105.465 35.3698C104.945 35.2363 104.501 34.9848 104.131 34.6152C103.553 34.0369 103.264 33.2745 103.264 32.3281V9.85105C103.264 8.90476 103.553 8.14229 104.131 7.56396C104.501 7.19434 104.945 6.9428 105.465 6.80951C105.985 6.9428 106.429 7.19434 106.798 7.56396C107.377 8.14229 107.666 8.90476 107.666 9.85105V32.3281C107.666 33.2745 107.377 34.0369 106.798 34.6152ZM116.062 21.7994H113.737V6.81469H116.023C117.153 6.81469 118.138 7.14333 118.98 7.80061C119.821 8.43146 120.465 9.31221 120.911 10.4426C121.384 11.573 121.62 12.8611 121.62 14.307C121.62 15.753 121.384 17.0411 120.911 18.1715C120.465 19.3019 119.821 20.1957 118.98 20.853C118.165 21.484 117.193 21.7994 116.062 21.7994Z" fill="white"/>
<path d="M211.58 3.07219C211.58 4.58554 210.354 5.81235 208.841 5.81235C207.328 5.81235 206.102 4.58554 206.102 3.07219C206.102 1.55884 207.328 0.332031 208.841 0.332031C210.354 0.332031 211.58 1.55884 211.58 3.07219Z" fill="white"/>
</g>
<defs>
<clipPath id="clip0_2344_18172">
<rect width="212" height="37" fill="white"/>
</clipPath>
</defs>
</svg>
