<svg width="140" height="56" viewBox="0 0 140 56" fill="none" xmlns="http://www.w3.org/2000/svg">
<path d="M49.6152 37.0474H53.7738V29.9183H55.5819L59.9988 37.0474H64.4415L59.5597 29.1952C61.7295 28.5494 63.3567 27.0771 63.3567 24.2875V24.1841C63.3567 20.3614 60.5929 18.5791 56.2277 18.5791H49.6152V37.0474ZM53.7738 27.0771V21.782H56.1243C58.1391 21.782 59.2756 22.4278 59.2756 24.3133V24.4166C59.2756 26.1989 58.2166 27.0771 56.1243 27.0771H53.7738Z" fill="white"/>
<path d="M71.5799 37.331C75.2735 37.331 77.5982 35.7038 78.0373 32.785H74.4986C74.2661 33.9215 73.4138 34.6706 71.6832 34.6706C69.6427 34.6706 68.4287 33.3791 68.3254 31.132H78.0632V30.0988C78.0632 25.2685 74.9636 23.228 71.4766 23.228C67.5505 23.228 64.5283 25.9918 64.5283 30.2537V30.4603C64.5283 34.7739 67.4988 37.331 71.5799 37.331ZM68.377 28.8331C68.6611 26.9216 69.7976 25.811 71.4766 25.811C73.2588 25.811 74.292 26.7925 74.4212 28.8331H68.377Z" fill="white"/>
<path d="M79.8438 37.0476H83.5633V17.417H79.8438V37.0476Z" fill="white"/>
<path d="M90.6982 37.3321C92.9198 37.3321 94.2883 36.2989 94.9856 34.93V37.048H98.7053V23.5391H94.9856V31.4688C94.9856 33.4578 93.7458 34.4392 92.1708 34.4392C90.5695 34.4392 89.8197 33.561 89.8197 31.7271V23.5391H86.1006V32.2437C86.1006 35.7824 88.0636 37.3321 90.6982 37.3321Z" fill="white"/>
<path d="M101.244 37.0469H104.99V29.0656C104.99 27.2317 106.152 26.3017 107.598 26.3017C108.916 26.3017 109.717 27.0766 109.717 28.8073V37.0469H113.436V29.0656C113.436 27.2317 114.598 26.3017 116.045 26.3017C117.388 26.3017 118.163 27.0766 118.163 28.8073V37.0469H121.883V28.394C121.883 24.8036 119.945 23.228 117.439 23.228C115.735 23.228 113.979 23.9512 112.894 25.5785C112.248 23.9771 110.905 23.228 109.123 23.228C107.107 23.228 105.661 24.3387 104.99 25.6043V23.538H101.244V37.0469Z" fill="white"/>
<path d="M130.531 37.331C134.225 37.331 136.55 35.7038 136.989 32.785H133.45C133.217 33.9215 132.365 34.6706 130.634 34.6706C128.594 34.6706 127.38 33.3791 127.277 31.132H137.015V30.0988C137.015 25.2685 133.915 23.228 130.428 23.228C126.502 23.228 123.479 25.9918 123.479 30.2537V30.4603C123.479 34.7739 126.45 37.331 130.531 37.331ZM127.329 28.8331C127.613 26.9216 128.75 25.811 130.428 25.811C132.21 25.811 133.244 26.7925 133.373 28.8331H127.329Z" fill="white"/>
<path fill-rule="evenodd" clip-rule="evenodd" d="M35.3029 19.684L35.0517 19.2355C34.7279 18.6932 34.2711 18.2425 33.7245 17.9261L21.6884 10.9843C21.1434 10.6682 20.5248 10.5011 19.8947 10.5H19.3745C18.7444 10.5011 18.1258 10.6682 17.5808 10.9843L5.54486 17.944C5.00131 18.2583 4.54979 18.7099 4.23543 19.2535L3.98431 19.7019C3.66816 20.2468 3.50112 20.8656 3.5 21.4955V35.397C3.50112 36.0271 3.66816 36.6457 3.98431 37.1908L4.23543 37.6392C4.55792 38.1765 5.00761 38.6261 5.54486 38.9487L17.5987 45.8903C18.141 46.213 18.7615 46.3806 19.3925 46.3747H19.8947C20.5248 46.3735 21.1434 46.2065 21.6884 45.8903L33.7245 38.9307C34.2733 38.6234 34.7266 38.1703 35.0338 37.6213L35.3029 37.1728C35.6152 36.6262 35.782 36.0086 35.7872 35.3791V21.4776C35.7861 20.8476 35.6191 20.2289 35.3029 19.684ZM19.3745 14.0874H19.8947L30.406 20.1502L19.6436 26.3565L8.88122 20.1502L19.3745 14.0874ZM21.4373 41.8905L31.9306 35.8276L32.1997 35.3792V23.2536L21.4373 29.4778V41.8905Z" fill="white"/>
</svg>
